<svg width="32" height="32" viewBox="0 0 32 32" fill="none" xmlns="http://www.w3.org/2000/svg">
<path d="M26.7062 9.02188C26.8937 9.20938 27 9.4625 27 9.72812V29C27 29.5531 26.5531 30 26 30H6C5.44687 30 5 29.5531 5 29V3C5 2.44687 5.44687 2 6 2H19.2719C19.5375 2 19.7938 2.10625 19.9813 2.29375L26.7062 9.02188V9.02188ZM24.6938 10.1875L18.8125 4.30625V10.1875H24.6938ZM16 17.6906L17.6503 23.8469C17.6717 23.9267 17.7188 23.9972 17.7843 24.0475C17.8499 24.0978 17.9302 24.1251 18.0128 24.125H19.0056C19.0882 24.1251 19.1684 24.0979 19.234 24.0478C19.2995 23.9976 19.3467 23.9272 19.3681 23.8475L21.6922 15.2225C21.7006 15.1907 21.7048 15.1579 21.7047 15.125C21.7047 15.0255 21.6652 14.9302 21.5949 14.8598C21.5245 14.7895 21.4291 14.75 21.3297 14.75H20.2181C20.1333 14.75 20.0509 14.7787 19.9845 14.8316C19.918 14.8844 19.8715 14.9582 19.8525 15.0409L18.4219 21.2628L16.8669 15.0341C16.8466 14.9529 16.7998 14.8809 16.7339 14.8294C16.668 14.778 16.5867 14.75 16.5031 14.75H15.4969C15.4132 14.75 15.332 14.778 15.266 14.8296C15.2001 14.8811 15.1533 14.9532 15.1331 15.0344L13.5813 21.2503L12.1406 15.0406C12.1215 14.9581 12.075 14.8845 12.0087 14.8318C11.9425 14.7791 11.8603 14.7504 11.7756 14.7503H10.6697C10.6369 14.7503 10.6042 14.7546 10.5725 14.7631C10.4765 14.789 10.3947 14.8519 10.3451 14.938C10.2954 15.0242 10.282 15.1265 10.3078 15.2225L12.6256 23.8475C12.6471 23.9271 12.6941 23.9974 12.7595 24.0476C12.8249 24.0977 12.9051 24.1249 12.9875 24.125H13.9872C14.0698 24.125 14.15 24.0977 14.2155 24.0474C14.281 23.9971 14.328 23.9266 14.3494 23.8469L15.9997 17.6906H16Z" fill="#185ABD"/>
</svg>
