<svg id="ePtjQWw4u3o1" xmlns="http://www.w3.org/2000/svg" xmlns:xlink="http://www.w3.org/1999/xlink" viewBox="0 0 161 150" shape-rendering="geometricPrecision" text-rendering="geometricPrecision">
<style><![CDATA[
#ePtjQWw4u3o5_to {animation: ePtjQWw4u3o5_to__to 8000ms linear infinite normal forwards}@keyframes ePtjQWw4u3o5_to__to { 0% {transform: translate(80.065119px,74.655365px);animation-timing-function: cubic-bezier(0.445,0.05,0.55,0.95)} 25% {transform: translate(79.948881px,75.685012px);animation-timing-function: cubic-bezier(0.445,0.05,0.55,0.95)} 50% {transform: translate(80.065119px,74.655365px);animation-timing-function: cubic-bezier(0.445,0.05,0.55,0.95)} 75% {transform: translate(79.948881px,75.685012px);animation-timing-function: cubic-bezier(0.445,0.05,0.55,0.95)} 100% {transform: translate(80.065119px,74.655365px)}} #ePtjQWw4u3o5_tr {animation: ePtjQWw4u3o5_tr__tr 8000ms linear infinite normal forwards}@keyframes ePtjQWw4u3o5_tr__tr { 0% {transform: rotate(0deg);animation-timing-function: cubic-bezier(0.445,0.05,0.55,0.95)} 25% {transform: rotate(-0.373426deg);animation-timing-function: cubic-bezier(0.445,0.05,0.55,0.95)} 50% {transform: rotate(0deg);animation-timing-function: cubic-bezier(0.445,0.05,0.55,0.95)} 75% {transform: rotate(-0.373426deg);animation-timing-function: cubic-bezier(0.445,0.05,0.55,0.95)} 100% {transform: rotate(0deg)}} #ePtjQWw4u3o6_to {animation: ePtjQWw4u3o6_to__to 8000ms linear infinite normal forwards}@keyframes ePtjQWw4u3o6_to__to { 0% {transform: translate(38.09914px,100.222953px);animation-timing-function: cubic-bezier(0.445,0.05,0.55,0.95)} 50% {transform: translate(36.930757px,100.68877px);animation-timing-function: cubic-bezier(0.445,0.05,0.55,0.95)} 100% {transform: translate(38.09914px,100.222953px)}} #ePtjQWw4u3o6_tr {animation: ePtjQWw4u3o6_tr__tr 8000ms linear infinite normal forwards}@keyframes ePtjQWw4u3o6_tr__tr { 0% {transform: rotate(-3.116994deg);animation-timing-function: cubic-bezier(0.445,0.05,0.55,0.95)} 50% {transform: rotate(6.463818deg);animation-timing-function: cubic-bezier(0.445,0.05,0.55,0.95)} 100% {transform: rotate(-3.116994deg)}} #ePtjQWw4u3o15_to {animation: ePtjQWw4u3o15_to__to 8000ms linear infinite normal forwards}@keyframes ePtjQWw4u3o15_to__to { 0% {transform: translate(125.858559px,106.7579px);animation-timing-function: cubic-bezier(0.42,0,0.58,1)} 25% {transform: translate(124.436229px,105.891848px);animation-timing-function: cubic-bezier(0.42,0,0.58,1)} 50% {transform: translate(125.858559px,106.7579px);animation-timing-function: cubic-bezier(0.42,0,0.58,1)} 75% {transform: translate(124.436229px,105.891848px);animation-timing-function: cubic-bezier(0.42,0,0.58,1)} 100% {transform: translate(125.858559px,106.7579px)}} #ePtjQWw4u3o15_tr {animation: ePtjQWw4u3o15_tr__tr 8000ms linear infinite normal forwards}@keyframes ePtjQWw4u3o15_tr__tr { 0% {transform: rotate(0deg);animation-timing-function: cubic-bezier(0.42,0,0.58,1)} 25% {transform: rotate(2.431411deg);animation-timing-function: cubic-bezier(0.42,0,0.58,1)} 50% {transform: rotate(0deg);animation-timing-function: cubic-bezier(0.42,0,0.58,1)} 75% {transform: rotate(2.431411deg);animation-timing-function: cubic-bezier(0.42,0,0.58,1)} 100% {transform: rotate(0deg)}} #ePtjQWw4u3o18_to {animation: ePtjQWw4u3o18_to__to 8000ms linear infinite normal forwards}@keyframes ePtjQWw4u3o18_to__to { 0% {transform: translate(101.015969px,31.27935px);animation-timing-function: cubic-bezier(0.42,0,0.58,1)} 16.25% {transform: translate(100.168943px,31.50416px);animation-timing-function: cubic-bezier(0.42,0,0.58,1)} 33.75% {transform: translate(102.063938px,31.513261px);animation-timing-function: cubic-bezier(0.42,0,0.58,1)} 50% {transform: translate(101.015969px,31.27935px);animation-timing-function: cubic-bezier(0.42,0,0.58,1)} 66.25% {transform: translate(100.168943px,31.50416px);animation-timing-function: cubic-bezier(0.42,0,0.58,1)} 83.75% {transform: translate(102.063938px,31.513261px);animation-timing-function: cubic-bezier(0.42,0,0.58,1)} 100% {transform: translate(101.015969px,31.27935px)}} #ePtjQWw4u3o18_tr {animation: ePtjQWw4u3o18_tr__tr 8000ms linear infinite normal forwards}@keyframes ePtjQWw4u3o18_tr__tr { 0% {transform: rotate(0deg);animation-timing-function: cubic-bezier(0.42,0,0.58,1)} 16.25% {transform: rotate(-2.449039deg);animation-timing-function: cubic-bezier(0.42,0,0.58,1)} 33.75% {transform: rotate(1.969306deg);animation-timing-function: cubic-bezier(0.42,0,0.58,1)} 50% {transform: rotate(0deg);animation-timing-function: cubic-bezier(0.42,0,0.58,1)} 66.25% {transform: rotate(-2.449039deg);animation-timing-function: cubic-bezier(0.42,0,0.58,1)} 83.75% {transform: rotate(1.969306deg);animation-timing-function: cubic-bezier(0.42,0,0.58,1)} 100% {transform: rotate(0deg)}}
]]></style>
<g clip-path="url(#ePtjQWw4u3o40)"><g><path d="M15.6914,78.7654c0-39.8043,32.2677-72.07204,72.072-72.07204h72.9276v142.99964h-74.0716c-39.1724,0-70.928-31.755-70.928-70.9276v0Z" fill="#63b3f4"/><g id="ePtjQWw4u3o5_to" transform="translate(80.065119,74.655365)"><g id="ePtjQWw4u3o5_tr" transform="rotate(0)"><g transform="translate(-80.065118,-74.655365)"><g id="ePtjQWw4u3o6_to" transform="translate(38.09914,100.222953)"><g id="ePtjQWw4u3o6_tr" transform="rotate(-3.116994)"><g transform="translate(-35.498282,-100.1553)"><path d="M25.5407,89.3731l-2.7349-2.8484c0,0-3.7742-1.9373-5.7487-1.6519s-.8205,3.8636-.8205,3.8636l9.3041.6367Z" fill="#f69066"/><path d="M47.6985,110.354L33.2911,88.2258c0,0-4.3211-2.1184-8.4343-1.136-4.1133.9769-12.7227-1.7123-15.27703-3.1447s-7.59749-5.2796-9.484556-4.149C-1.79732,80.9266,14.3002,92.5285,16.6358,93.1103c2.3355.5817,9.8127,1.372,11.0871,5.2411c1.2745,3.8696,6.7607,19.6476,6.7607,19.6476l13.2149-7.645Z" fill="#fbbb99"/></g></g></g><g transform="translate(.000001 0)"><path d="M90.7512,66.455l.8095-10.2134L104.13,44.283l4.967,18.9889c0,0,.585.2414,9.971,1.2897c0,0-13.838,13.2154-22.3056,9.703-8.4671-3.5124-14.008-5.8394-14.008-5.8394l7.9968-1.9702Z" fill="#f89e71"/><path d="M114.555,67.2997l5.825-2.9416l12.947,2.9416L145.06,149.693h-62.3005c0,0-5.2127-23.017-5.9949-25.635s-3.3912-8.891-4.1734-14.127L58.512,149.687h-17.2078c0,0,18.258-52.6746,27.2558-70.0994c1.5643-3.0239,4.1734-7.3211,9.6158-9.6316c8.4453-3.5892,4.5727-1.5367,4.5727-1.5367s15.6435,11.4318,31.8065-1.1196Z" fill="#b69468"/><path d="M112.209,63.612c0,0-5.475,7.7712-13.8166,7.7712-8.3414,0-7.6412-5.2906-7.6412-5.2906l-7.9968,1.9648L87.9069,80.938l8.8555-6.6845l8.8716,7.848c0,0,9.884-8.2981,14.747-17.7486l-8.172-.7409Z" fill="#e1e2e1"/><path d="M82.7544,68.0626c.9299,2.1184,1.8214,4.2533,2.7294,6.3827l2.6692,6.4046-.3993-.1098c2.9154-2.2775,5.8691-4.5002,8.8063-6.7449l.2188-.1646.2079.1811l4.4473,3.9075l4.419,3.9405-.432-.0055c1.455-1.2403,2.861-2.5684,4.223-3.9295c1.367-1.3555,2.696-2.755,3.971-4.1984c1.28-1.4434,2.467-2.9636,3.626-4.5057c1.149-1.5532,2.177-3.1831,3.145-4.8625-1.701,3.4795-3.932,6.6955-6.416,9.6701-1.247,1.4873-2.538,2.9361-3.889,4.3301-1.362,1.383-2.756,2.7221-4.233,4.0063l-.214.1866-.218-.1921-4.453-3.902-4.4248-3.935.4266.0165c-2.9646,2.2117-5.9128,4.4453-8.8993,6.6186l-.2789.2031-.1204-.3128-2.4887-6.476c-.8095-2.1788-1.6355-4.3356-2.4231-6.5089Z" fill="#9c7d54"/><path d="M96.7841,78.3696c-.5087,2.0581-.9681,4.1216-1.351,6.2016-.3938,2.08-.7439,4.16-1.0174,6.2565-.5634,4.1819-.9025,8.4023-.7931,12.6113.0109,2.108.1914,4.204.4704,6.284.3008,2.091.6782,4.171,1.0228,6.257.361,2.085.7603,4.16,1.1924,6.234.4157,2.075.8807,4.138,1.4003,6.196-1.3182-4.028-2.2809-8.171-3.1342-12.32-.4321-2.075-.7931-4.166-1.1267-6.262-.3009-2.113-.5087-4.243-.5415-6.372l-.0165-1.597.0493-1.597c.0164-1.0649.1039-2.1242.1805-3.1888.0656-1.0593.2078-2.1185.3063-3.1722.1313-1.0537.2735-2.1074.4485-3.1557.3391-2.0964.7548-4.1819,1.2198-6.2509.4977-2.0581,1.0283-4.1106,1.6901-6.1248Z" fill="#9c7d54"/></g><g id="ePtjQWw4u3o15_to" transform="translate(125.858559,106.7579)"><g id="ePtjQWw4u3o15_tr" transform="rotate(0)"><g transform="translate(-125.858559,-106.7579)"><path d="M110.82,129.458l-9.255,1.219-10.0372-3.315v16.914l1.6519,1.394c0,0,8.9483-1.915,9.4733-2.266.52-.352,13.035-1.57,13.035-1.57l-4.868-12.376Z" fill="#fbbb99"/><path d="M139.065,121.704c.479-.155.479-.156.478-.156v-.001l-.001-.005-.007-.019-.024-.075-.096-.297c-.083-.26-.206-.642-.362-1.132-.312-.98-.756-2.389-1.287-4.104-1.063-3.43-2.471-8.085-3.854-12.984-1.384-4.9003-2.741-10.0389-3.703-14.4387-.481-2.2001-.862-4.2095-1.099-5.9085-.237-1.7084-.324-3.0696-.232-3.9886v-.0004c.38-3.8403,1.588-6.5784,2.69-8.3494.552-.8864,1.078-1.532,1.462-1.9528.181-.1985.331-.3469.437-.4468.061.0145.134.0326.217.0546.301.0792.74.2094,1.284.4112c1.087.4037,2.587,1.093,4.225,2.2325c3.27,2.2743,7.108,6.3552,9.291,13.5907c2.219,7.3524,5.865,19.5152,8.5,30.3612c1.318,5.425,2.38,10.505,2.885,14.483.253,1.991.365,3.687.304,5.005-.03.658-.103,1.208-.217,1.646-.114.442-.262.738-.419.918-.159.183-.471.402-.977.639-.496.233-1.136.464-1.906.693-1.541.457-3.56.888-5.898,1.291-4.673.806-10.573,1.491-16.369,2.046-5.794.554-11.476.978-15.709,1.264-2.117.143-3.871.251-5.096.323-.612.036-1.092.063-1.419.082-.007,0-.014,0-.02.001-.032-.291-.082-.701-.156-1.201-.153-1.032-.409-2.449-.822-3.993-.737-2.753-1.999-6.001-4.146-8.132l32.159-7.367.535-.123-.169-.522-.479.155Z" transform="translate(-.256691 0.56307)" fill="#b69468" stroke="#9c7d55" stroke-width="1.00546" stroke-miterlimit="10"/></g></g></g><g id="ePtjQWw4u3o18_to" transform="translate(101.015969,31.27935)"><g id="ePtjQWw4u3o18_tr" transform="rotate(0)"><g transform="translate(-101.015968,-30.879738)"><path d="M76.3946,20.9117c0,0-1.2197,26.002-1.0119,27.9722.7275,6.827,7.3129,19.8554,25.7673,9.2472c0,0,7.942-5.6471,9.43-12.8638c0,0,6.268.8891,6.809-4.7635.542-5.6526-4.622-6.6185-6.323-5.6087l1.745-23.0769-36.5914,3.4409.175,5.6526Z" fill="#fbbb99"/><path d="M81.6781,38.55c.8941,0,1.619-.7273,1.619-1.6244c0-.8972-.7249-1.6245-1.619-1.6245-.8942,0-1.619.7273-1.619,1.6245c0,.8971.7248,1.6244,1.619,1.6244Z" fill="#263238"/><path d="M97.1952,39.4555c.8941,0,1.619-.7273,1.619-1.6245s-.7249-1.6244-1.619-1.6244c-.8942,0-1.619.7273-1.619,1.6244s.7248,1.6245,1.619,1.6245Z" fill="#263238"/><path d="M83.8003,31.9752c-.6946-.2415-1.2197-.439-1.7393-.4774-.2571-.022-.5141-.022-.7985.0274-.2899.0329-.5853.1262-.9627.1921.1422-.3403.3829-.6421.7165-.8287.3173-.214.7329-.2964,1.1268-.2634.3992.0384.7712.1975,1.0556.439.2844.236.5141.5378.6016.911Z" fill="#263238"/><path d="M96.8013,32.6117c-.6946-.2414-1.2197-.439-1.7393-.4774-.2571-.022-.5142-.022-.7986.0274-.2899.0384-.5852.1263-.9626.1921.1422-.3402.3829-.6421.7165-.8287.3172-.214.7329-.2963,1.1267-.2634.3993.0384.7712.1976,1.0557.439.2898.236.5141.5433.6016.911Z" fill="#263238"/><path d="M85.4684,37.2546c-.1532,1.0537-.3774,2.0909-.6236,3.1171-.2406,1.0318-.5251,2.047-.8149,3.0623l-.465,1.5147c-.2078.6037-.2734.7519.1313.9823.3993.1866.9298.247,1.4385.2744.5196.033,1.0447.022,1.5753.0055-.5032.1702-1.0283.2799-1.5643.3458-.5361.0494-1.083.0933-1.6737-.1098-.1477-.0549-.2954-.1372-.4376-.2634-.1367-.1262-.2352-.3238-.2625-.5159-.0383-.1921,0-.3732.0328-.5268l.0984-.3842.4267-1.5256c.3062-1.0098.618-2.0196.9681-3.0184.361-.9933.7329-1.9867,1.1705-2.958Z" fill="#263238"/><path d="M81.8257,49.3884c0,0,.4157,5.6801,5.8743,5.6746c5.6829-.011,7.6684-5.4386,7.6684-5.4386-8.5599,4.0007-13.5427-.236-13.5427-.236Z" fill="#af3948"/><path d="M81.8313,49.4052c.2516,1.5311.8915,3.0787,2.0292,4.1434.5633.5378,1.2635.911,1.9964,1.1415.7438.225,1.526.2909,2.3081.2689c1.5643-.0494,3.1287-.5927,4.3484-1.6025c1.2252-.9878,2.1714-2.3214,2.7512-3.7702l.1477.1372c-1.0721.5213-2.1934.9384-3.3474,1.2512-1.1541.3129-2.3465.4775-3.5389.5049-1.1978.011-2.3957-.1427-3.5388-.4829-1.1322-.3348-2.2644-.8397-3.1559-1.5915Zm-.011-.0275c.5032.3568,1.0119.6257,1.5534.8617.536.2414,1.0939.4335,1.6627.5817c1.1377.3018,2.3191.4061,3.4896.3787c1.1705-.022,2.3356-.2086,3.4732-.4995c1.1377-.2853,2.248-.6969,3.3255-1.1799l.0055-.0055c.0547-.0219.1203,0,.1422.0549.011.0275.011.0604,0,.0878-.3117.7519-.7329,1.4324-1.2197,2.069-.4813.6366-1.0447,1.2128-1.6737,1.7013-.6345.4829-1.3291.8835-2.073,1.1799-.7438.2799-1.5315.4665-2.33.5213-.7986.0604-1.6135.011-2.3902-.2195-.7767-.225-1.4987-.6476-2.0785-1.2128-.5852-.5598-1.0283-1.2568-1.34-1.9922-.3063-.7353-.5032-1.5037-.547-2.3269Z" fill="#263238"/><path d="M89.1609,49.6245c-3.5662-.5324-4.4523-.0385-5.94,0-.3555.0109-1.3947-.236-1.3947-.236s4.9828,4.2367,13.5482.236c-.0055,0-2.6473.5323-6.2135,0Z" fill="#fff"/><path d="M89.1552,49.6409c-1.2143-.1702-2.4504-.258-3.6701-.1372-.6071.0548-1.2088.1591-1.8323.225-.1586.0109-.3063.0164-.4704.0219-.1696-.0055-.3227-.0329-.4759-.0549-.3063-.0549-.6071-.1152-.9079-.1975l.093-.1811c.9025.7244,2.0018,1.2347,3.134,1.553c1.1377.3184,2.3246.4226,3.5006.3897.5852-.0439,1.176-.0714,1.7503-.1866.5852-.0768,1.154-.225,1.7229-.3622s1.1158-.3622,1.6791-.5323c.547-.2141,1.0885-.45,1.63-.6696l.0875.2635c-1.0447.1811-2.0894.2085-3.1341.1756-1.0392-.0494-2.0784-.1537-3.1067-.3073Zm.0055-.0275c.5141.0659,1.0337.1262,1.5479.1537.5196.0274,1.0392.0274,1.5533.0164c1.0338-.0329,2.073-.1152,3.0794-.2908h.0109c.0766-.011.1477.0384.1587.1152.0109.0659-.0219.1262-.0821.1537-.5524.2305-1.0939.4719-1.6518.6915-.5688.1756-1.1322.3896-1.712.5213-1.1541.2964-2.3464.4445-3.5388.461-1.1924-.011-2.3793-.1646-3.5224-.4774-1.1432-.3183-2.2644-.7574-3.249-1.4763-.0437-.0329-.0547-.0988-.0219-.1427.0219-.0329.0657-.0494.104-.0439h.0109c.6071.1098,1.1869.2854,1.7886.1921.6071-.0384,1.2197-.1482,1.8377-.1647c1.2416-.0493,2.4723.1098,3.6866.2909Z" fill="#263238"/><path d="M122.369,34.472c5.978-1.0002,9.846-7.6934,8.64-14.9496s-7.03-12.32768-13.007-11.32749c-5.978,1.00019-9.846,7.69329-8.64,14.94949c1.207,7.2563,7.03,12.3278,13.007,11.3276Z" fill="#1a2e35"/><path d="M93.1794,19.2787c0,0-12.6789,4.171-17.3118,12.5239l-.3938,9.939c0,0-6.0715-9.1432-4.3704-20.3609s13.4283-19.47188,20.8617-20.514624s23.0109,2.178784,28.0979,13.583124c5.087,11.4098,4.567,37.868-15.791,40.431l6.225-5.9437.213-10.3121-1.953-.2086.055-5.06c.005.0109-12.1429-3.013-15.6326-14.0771Z" fill="#1a2e35"/><path d="M90.3789,0.783985c0,0,27.2831-.422581,23.7171,33.592815l-2.773,12.1726c0,0-5.175,6.5144-14.4241,10.4933l.2734,1.6794c0,0,12.0387-4.8844,15.7087-12.7599c3.671-7.8754,2.828-11.2671,2.828-11.2671s5.333-29.47122-19.833-34.981297c.0055,0-3.9765-.570766-5.4971,1.070182Z" fill="#2e5b6c"/><path d="M120.403,42.772c.468-4.4703-1.936-8.3879-5.369-8.7503-3.434-.3623-6.598,2.9678-7.066,7.438-.469,4.4703,1.935,8.3879,5.369,8.7503s6.597-2.9677,7.066-7.438Z" fill="#153035"/><path d="M118.375,42.1101c.297-2.8305-.888-5.2754-2.645-5.4609-1.758-.1854-3.423,1.9588-3.72,4.7892-.296,2.8305.888,5.2754,2.645,5.4608c1.758.1855,3.423-1.9587,3.72-4.7891Z" fill="#2e5b6c"/><path d="M118.005,42.0706c.176-1.676-.527-3.1238-1.569-3.2338-1.043-.1101-2.03,1.1594-2.206,2.8354-.175,1.6759.527,3.1238,1.57,3.2338c1.042.11,2.03-1.1595,2.205-2.8354Z" fill="#153035"/><path d="M99.8196,54.9461l.6184,1.2678c0,0-2.0023,1.9647-2.3687,2.6013-.3665.6367-3.9547,2.7386-5.3659,1.2349-1.4166-1.4983-.6016-2.091.2516-2.3764.8533-.2854,6.8646-2.7276,6.8646-2.7276Z" fill="#153035"/></g></g></g></g></g></g><g><path d="M117.454,146.45h-19.0675L88.4808,97.699c-.082-.3952-.4266-.6806-.8314-.6806h-68.8806c-.5361,0-.9408.494-.8314,1.0263l9.9878,49.0693c-.197.269-.3228.598-.3228.96c0,.895.722,1.619,1.6136,1.619h88.238c.892,0,1.614-.724,1.614-1.619c0-.9-.722-1.624-1.614-1.624Z" fill="#e2e2e2"/><path d="M97.309,149.688h-70.5926L16.4989,99.4825c-.1094-.5268.2954-1.0263.8314-1.0263h68.8697c.4047,0,.7548.2854.8314.6806L97.309,149.688Z" fill="#ececec"/><path d="M55.2733,127.96c1.4411-.4,2.1186-2.503,1.5133-4.697-.6053-2.193-2.2641-3.647-3.7052-3.247s-2.1186,2.503-1.5133,4.697s2.2642,3.647,3.7052,3.247Z" fill="#e2e2e2"/></g></g><clipPath id="ePtjQWw4u3o40"><rect width="161" height="150" rx="0" ry="0" fill="#fff"/></clipPath></g></svg>
