<svg width="17" height="16" viewBox="0 0 17 16" fill="none" xmlns="http://www.w3.org/2000/svg">
<path d="M12.7125 3.27329C12.1013 2.65591 11.3733 2.1664 10.5709 1.83333C9.76855 1.50025 8.9079 1.33027 8.03915 1.33329C4.39915 1.33329 1.43248 4.29996 1.43248 7.93996C1.43248 9.10662 1.73915 10.24 2.31248 11.24L1.37915 14.6666L4.87915 13.7466C5.84582 14.2733 6.93248 14.5533 8.03915 14.5533C11.6792 14.5533 14.6458 11.5866 14.6458 7.94662C14.6458 6.17996 13.9592 4.51996 12.7125 3.27329ZM8.03915 13.4333C7.05248 13.4333 6.08582 13.1666 5.23915 12.6666L5.03915 12.5466L2.95915 13.0933L3.51248 11.0666L3.37915 10.86C2.83098 9.9846 2.53991 8.97279 2.53915 7.93996C2.53915 4.91329 5.00582 2.44663 8.03248 2.44663C9.49915 2.44663 10.8792 3.01996 11.9125 4.05996C12.4241 4.56927 12.8296 5.17507 13.1054 5.84224C13.3812 6.50942 13.5218 7.2247 13.5192 7.94662C13.5325 10.9733 11.0658 13.4333 8.03915 13.4333ZM11.0525 9.32662C10.8858 9.24662 10.0725 8.84663 9.92582 8.78662C9.77248 8.73329 9.66582 8.70662 9.55248 8.86662C9.43915 9.03329 9.12582 9.40662 9.03248 9.51329C8.93915 9.62663 8.83915 9.63996 8.67248 9.55329C8.50582 9.47329 7.97248 9.29329 7.34582 8.73329C6.85248 8.29329 6.52582 7.75329 6.42582 7.58663C6.33248 7.41996 6.41248 7.33329 6.49915 7.24662C6.57248 7.17329 6.66582 7.05329 6.74582 6.95996C6.82582 6.86662 6.85915 6.79329 6.91248 6.68662C6.96582 6.57329 6.93915 6.47996 6.89915 6.39996C6.85915 6.31996 6.52582 5.50663 6.39248 5.17329C6.25915 4.85329 6.11915 4.89329 6.01915 4.88663H5.69915C5.58582 4.88663 5.41248 4.92663 5.25915 5.09329C5.11248 5.25996 4.68582 5.65996 4.68582 6.47329C4.68582 7.28663 5.27915 8.07329 5.35915 8.17996C5.43915 8.29329 6.52582 9.95996 8.17915 10.6733C8.57248 10.8466 8.87915 10.9466 9.11915 11.02C9.51248 11.1466 9.87248 11.1266 10.1592 11.0866C10.4792 11.04 11.1392 10.6866 11.2725 10.3C11.4125 9.91329 11.4125 9.58663 11.3658 9.51329C11.3192 9.43996 11.2192 9.40662 11.0525 9.32662Z" fill="white"/>
</svg>
