<svg width="28" height="29" viewBox="0 0 28 29" fill="none" xmlns="http://www.w3.org/2000/svg">
<g filter="url(#filter0_di_249_408)">
<rect x="2" y="0.403687" width="24" height="24" rx="12" fill="#069ade"/>
<path d="M18.293 7.69673L12 13.9897L9.707 11.6967C9.5184 11.5146 9.26579 11.4138 9.0036 11.4161C8.7414 11.4183 8.49059 11.5235 8.30518 11.7089C8.11977 11.8943 8.0146 12.1451 8.01232 12.4073C8.01005 12.6695 8.11084 12.9221 8.293 13.1107L11.293 16.1107C11.4805 16.2982 11.7348 16.4035 12 16.4035C12.2652 16.4035 12.5195 16.2982 12.707 16.1107L19.707 9.11073C19.8892 8.92213 19.99 8.66952 19.9877 8.40733C19.9854 8.14513 19.8802 7.89432 19.6948 7.70891C19.5094 7.5235 19.2586 7.41833 18.9964 7.41605C18.7342 7.41378 18.4816 7.51457 18.293 7.69673Z" fill="white"/>
</g>
<defs>
<filter id="filter0_di_249_408" x="0" y="-0.596313" width="28" height="29" filterUnits="userSpaceOnUse" color-interpolation-filters="sRGB">
<feFlood flood-opacity="0" result="BackgroundImageFix"/>
<feColorMatrix in="SourceAlpha" type="matrix" values="0 0 0 0 0 0 0 0 0 0 0 0 0 0 0 0 0 0 127 0" result="hardAlpha"/>
<feOffset dy="2"/>
<feGaussianBlur stdDeviation="1"/>
<feColorMatrix type="matrix" values="0 0 0 0 0.854902 0 0 0 0 0.890196 0 0 0 0 0.882353 0 0 0 0.1 0"/>
<feBlend mode="normal" in2="BackgroundImageFix" result="effect1_dropShadow_249_408"/>
<feBlend mode="normal" in="SourceGraphic" in2="effect1_dropShadow_249_408" result="shape"/>
<feColorMatrix in="SourceAlpha" type="matrix" values="0 0 0 0 0 0 0 0 0 0 0 0 0 0 0 0 0 0 127 0" result="hardAlpha"/>
<feOffset dy="-1"/>
<feGaussianBlur stdDeviation="0.5"/>
<feComposite in2="hardAlpha" operator="arithmetic" k2="-1" k3="1"/>
<feColorMatrix type="matrix" values="0 0 0 0 0.854902 0 0 0 0 0.890196 0 0 0 0 0.882353 0 0 0 0.15 0"/>
<feBlend mode="normal" in2="shape" result="effect2_innerShadow_249_408"/>
</filter>
</defs>
</svg>
