<svg width="297" height="50" viewBox="0 0 297 50" fill="none" xmlns="http://www.w3.org/2000/svg">
<path fill-rule="evenodd" clip-rule="evenodd" d="M25.0208 1C36.9657 4.28705 42.5423 8.37089 48.9283 18.1234C49.4465 30.3399 47.2308 36.8291 39.7958 45.8298C28.1714 50.0935 21.2241 50.0198 10.2433 45.8298C2.53847 36.2484 0.460881 29.7105 1.11203 18.1234C7.97442 7.94003 13.6371 3.96984 25.0208 1Z" fill="#0090D4"/>
<path d="M25.0606 0.855376L25.0219 0.844709L24.983 0.854858C19.2813 2.34233 15.0006 4.08332 11.2838 6.73451C7.5673 9.38554 4.42426 12.9398 0.987637 18.0396L0.96458 18.0738L0.962265 18.115C0.636105 23.919 0.992592 28.4707 2.40162 32.7754C3.8105 37.0797 6.26798 41.1256 10.1264 45.9238L10.1519 45.9555L10.1898 45.97C15.6897 48.0686 20.1907 49.1407 24.7779 49.1499C29.3648 49.1592 34.0263 48.1058 39.8475 45.9706L39.8856 45.9567L39.9114 45.9253C43.6355 41.4171 46.0603 37.5283 47.4869 33.2298C48.9133 28.9316 49.3377 24.2351 49.0782 18.117L49.0765 18.0758L49.0538 18.0412C45.8551 13.1563 42.8526 9.68092 39.1467 7.01538C35.4413 4.35013 31.0422 2.50141 25.0606 0.855376Z" stroke="white" stroke-width="0.3" stroke-miterlimit="10"/>
<path d="M8.35571 20.4675L7.82237 21.2219L6.77977 22.773L6.08555 24.7599L5.71564 25.6042L5.78531 26.9979L6.36425 27.9558L6.57075 29.0736L6.85072 29.8516L7.47526 30.9931L7.42839 31.5863L7.57028 32.2033L8.05547 33.0712L8.51786 33.642L8.65595 34.3276" stroke="#231F20" stroke-width="0.2477" stroke-miterlimit="2.613"/>
<path fill-rule="evenodd" clip-rule="evenodd" d="M25.0209 39.4481C24.0264 39.1845 23.0243 38.7175 22.1401 38.0768C21.9577 37.9431 21.7778 37.802 21.6042 37.6509C21.5384 37.5947 21.4712 37.5348 21.4053 37.4761C20.2601 37.9344 18.612 38.4564 16.9296 38.7499C15.5222 38.9947 14.0844 39.0834 12.8796 38.8386C11.628 38.5876 10.6272 37.9844 10.1559 36.8466C10.0774 36.6543 10.0115 36.4407 9.9659 36.2172C9.96464 36.2172 9.96464 36.2172 9.96464 36.2159C8.99932 35.5853 8.52426 34.8197 8.36844 34.204C8.33423 34.0729 8.31523 33.9455 8.30763 33.8331C8.30256 33.7669 8.30256 33.7044 8.30763 33.6395C7.64635 32.9901 7.24096 32.3194 7.18776 31.6938C7.17636 31.5614 7.18269 31.429 7.20676 31.2916C7.22069 31.2154 7.23716 31.1405 7.25997 31.0681H7.2587L7.25616 31.0656L7.26123 31.0631C6.92806 30.6747 6.66456 30.2813 6.4872 29.8242C6.29844 29.3459 6.20723 28.8088 6.23384 28.1557C5.05189 27.0854 5.19884 25.4069 5.92346 23.9869C6.7697 22.3247 7.90225 20.7473 8.39631 19.3536C8.67121 18.578 8.8853 19.0601 8.8853 19.3024C8.88277 20.4626 8.69401 21.7077 8.45838 22.823C8.43305 22.9391 8.40644 23.059 8.3279 23.4399C8.20882 24.0131 8.21008 24.5477 8.3735 24.9373C8.44191 25.0947 8.53439 25.2295 8.66107 25.3345C8.78649 25.4369 8.94611 25.513 9.145 25.553C9.60359 25.6417 10.2484 25.5455 11.1276 25.1821C13.2609 24.3004 15.3258 23.5211 16.7966 23.4224C18.4384 23.3125 19.3936 23.9619 19.0769 26.0151C19.0338 26.2973 18.9857 26.5908 18.9426 26.8481C18.8248 27.54 18.7615 27.9246 18.8071 28.2968C18.84 28.574 18.9148 28.8925 19.1149 29.2147C19.2821 29.4845 19.5418 29.7617 19.9346 30.0315C19.9536 29.9753 19.9738 29.9191 19.9954 29.8666C19.8801 28.6952 19.9979 27.525 20.4996 26.4235C20.5908 26.2287 20.6908 26.0351 20.8061 25.844L18.5081 14.8139C18.3498 14.0558 18.1737 13.5837 17.8671 13.3564C17.463 13.0605 16.7928 13.1454 16.3304 13.2203C15.9352 13.2853 15.9352 13.058 16.2139 12.8994C16.6421 12.6608 17.1665 12.3186 17.6327 12.0126C18.4752 11.4581 19.3265 10.9673 20.2677 11.6705C20.3868 10.8774 21.0202 10.4665 21.6194 10.0569C21.7905 9.92951 22.2212 9.68848 22.4517 9.36127C22.6684 9.05405 22.9205 8.94415 22.9635 9.30507C22.9737 9.40124 23.0104 9.59232 23.0421 9.79963C23.4741 9.33879 24.1189 9.07528 24.5407 8.63068C24.7814 8.37841 24.789 8.13987 25.0171 8.12738C25.2413 8.13987 25.2514 8.37841 25.4896 8.63068C25.9127 9.07653 26.5575 9.33879 26.9895 9.79963C27.0212 9.59232 27.0579 9.40124 27.068 9.30507C27.1111 8.94415 27.3619 9.05405 27.5798 9.36127C27.8117 9.68723 28.2399 9.92951 28.4134 10.0569C29.0088 10.4665 29.646 10.8787 29.7638 11.6705C30.7076 10.9673 31.5589 11.4581 32.4001 12.0126C32.8676 12.3186 33.392 12.6608 33.8202 12.8994C34.1002 13.058 34.0977 13.2853 33.7024 13.2203C33.2425 13.1454 32.5711 13.0605 32.1657 13.3564C31.8604 13.5825 31.6844 14.0546 31.5273 14.8139L29.2292 25.844C29.3407 26.0351 29.4459 26.2287 29.5346 26.4235C30.0362 27.525 30.1553 28.6952 30.0387 29.8666C30.0616 29.9191 30.0818 29.9753 30.0996 30.0315C30.4948 29.7617 30.7532 29.4832 30.9205 29.2147C31.1206 28.8925 31.1966 28.574 31.2283 28.2968C31.2739 27.9246 31.2106 27.5387 31.094 26.8481C31.0509 26.5908 31.0003 26.2973 30.9572 26.0151C30.6392 23.9607 31.5969 23.3113 33.2375 23.4224C34.7108 23.5198 36.7732 24.2991 38.9103 25.1821C39.7844 25.5455 40.4318 25.6417 40.8904 25.553C41.088 25.513 41.2464 25.4369 41.373 25.3345C41.501 25.2295 41.5947 25.0947 41.6606 24.9373C41.8253 24.5464 41.8278 24.0131 41.7087 23.4399C41.6289 23.059 41.6049 22.9391 41.577 22.823C41.3414 21.7077 41.1501 20.4626 41.1501 19.3024C41.1501 19.0601 41.3654 18.578 41.6391 19.3536C42.1319 20.7486 43.2657 22.3247 44.1094 23.9869C44.8353 25.4069 44.9848 27.0866 43.799 28.1557C43.8281 28.8101 43.7357 29.3459 43.5456 29.8242C43.3708 30.2825 43.1035 30.6747 42.7741 31.0631L42.7779 31.0656L42.7754 31.0681H42.7779C42.7995 31.1405 42.8185 31.2142 42.8337 31.2916C42.8552 31.429 42.8603 31.5614 42.8514 31.6938C42.7995 32.3207 42.3928 32.9913 41.7303 33.6395C41.7341 33.7044 41.7341 33.7656 41.7303 33.8331C41.7252 33.9455 41.7037 34.0729 41.6707 34.204C41.5162 34.8197 41.0411 35.5853 40.0745 36.2159C40.0745 36.2172 40.0745 36.2172 40.0745 36.2172C40.0289 36.4407 39.9643 36.6531 39.8832 36.8466C39.4145 37.9844 38.4137 38.5863 37.1608 38.8386C35.9548 39.0846 34.5182 38.9947 33.1108 38.7499C31.4297 38.4564 29.7829 37.9344 28.6364 37.4761C28.5692 37.5348 28.5034 37.5947 28.4375 37.6509C28.2601 37.8008 28.0828 37.9431 27.9016 38.0768C27.0148 38.7162 26.0115 39.1845 25.0209 39.4481Z" fill="#231F20"/>
<path fill-rule="evenodd" clip-rule="evenodd" d="M24.4102 21.95C24.6281 22.2222 24.851 22.5007 25.0208 22.8404C25.188 22.5007 25.4135 22.2235 25.6289 21.95C25.9684 21.5266 26.2952 21.1207 26.3104 20.5113C26.3256 19.8818 25.9506 19.3648 25.5757 18.8502C25.3755 18.5742 25.1754 18.2982 25.0221 17.9973C24.865 18.2995 24.6648 18.5742 24.4647 18.8502C24.0884 19.3648 23.7147 19.8818 23.7312 20.5113C23.7438 21.1207 24.0707 21.5266 24.4102 21.95Z" fill="white"/>
<path fill-rule="evenodd" clip-rule="evenodd" d="M10.2358 35.7764C10.7628 35.9999 11.2454 36.1173 11.7281 36.1698C12.1651 36.2172 12.6136 36.2097 13.0988 36.1923C13.432 36.176 13.4674 36.7118 13.0899 36.7268C12.6009 36.7518 12.1373 36.7518 11.6685 36.7005C11.3138 36.6643 10.9578 36.5944 10.5905 36.4795C10.612 36.5444 10.6348 36.6069 10.6601 36.6706C11.0503 37.6172 11.9105 38.1243 12.9924 38.3416C14.1198 38.5689 15.4893 38.4852 16.841 38.2492C18.251 38.0031 19.6318 37.5935 20.7023 37.2013C19.1035 36.9129 17.8658 36.3758 17.0107 35.5541C16.0479 34.6287 15.5856 33.3548 15.6831 31.69C15.7452 30.6023 16.0784 29.4883 16.3887 28.4492C16.6041 27.7248 16.8093 27.0355 16.8967 26.4372C17.0576 25.3295 16.7776 24.5077 15.2549 24.2804C14.0856 24.5939 12.7301 25.1259 11.3341 25.7029C10.3485 26.1113 9.59474 26.2162 9.03734 26.1025C8.74597 26.0463 8.50527 25.9327 8.31398 25.7703C8.12016 25.6117 7.97447 25.4069 7.87693 25.1696C7.66537 24.6713 7.65777 24.0319 7.79712 23.3613C7.80725 23.3175 7.86933 23.0266 7.92887 22.7418C8.06188 22.1149 8.18477 21.5304 8.28485 20.9109C8.03655 21.3943 7.75151 21.8826 7.46774 22.3709C6.5835 23.8908 5.69546 25.4182 5.99696 26.7083C6.37447 28.3281 8.30258 28.6977 9.70876 28.8975C10.3168 28.9837 10.2446 29.5157 9.58081 29.4121C8.80424 29.2897 7.9086 29.0936 7.19791 28.7901C7.05349 28.7239 6.91161 28.6565 6.77859 28.5816C6.79759 28.99 6.87234 29.3421 6.99522 29.6581C7.59949 31.2017 8.78144 31.3741 10.289 31.5264C10.987 31.5989 10.9578 32.1259 10.2548 32.0622C9.49846 31.9985 8.66236 31.8611 8.03655 31.6026C7.92887 31.5577 7.82752 31.509 7.73631 31.4615C7.58683 32.2883 8.25571 33.0613 9.05381 33.4422C9.87598 33.8356 10.8375 33.8231 11.4836 33.7732C11.965 33.7382 11.9713 34.3064 11.4924 34.3102C10.9794 34.3127 10.4169 34.3064 9.88738 34.234C9.5238 34.1866 9.17796 34.1054 8.87139 33.9842C8.87645 34.0217 8.88659 34.0592 8.89672 34.1004C9.02214 34.6024 9.41992 35.2344 10.2358 35.7764Z" fill="white"/>
<path fill-rule="evenodd" clip-rule="evenodd" d="M23.3562 24.0619C22.1768 24.8374 21.4294 25.7254 20.9961 26.6721C20.6668 27.3977 20.5173 28.1657 20.5021 28.945C20.8048 28.4954 21.1672 28.0883 21.5383 27.6724C22.3478 26.7632 23.1763 25.8303 23.3284 24.4066C23.3385 24.2942 23.3474 24.1818 23.3562 24.0619Z" fill="white"/>
<path fill-rule="evenodd" clip-rule="evenodd" d="M14.7989 40.2792C14.8022 40.2694 14.8 40.2783 14.7989 40.2792V40.2792Z" fill="white"/>
<path fill-rule="evenodd" clip-rule="evenodd" d="M39.8048 35.7764C39.2766 35.9999 38.7939 36.1173 38.3125 36.1698C37.8742 36.2172 37.4257 36.2097 36.9406 36.1923C36.6074 36.176 36.5732 36.7118 36.9494 36.7268C37.4422 36.7518 37.9008 36.7518 38.3721 36.7005C38.728 36.6643 39.0828 36.5944 39.4501 36.4795C39.4299 36.5444 39.4083 36.6069 39.3805 36.6706C38.9877 37.6172 38.1301 38.1243 37.0482 38.3416C35.9195 38.5689 34.5526 38.4852 33.2009 38.2492C31.7909 38.0031 30.4088 37.5935 29.3396 37.2013C30.9345 36.9129 32.1773 36.3758 33.0286 35.5541C33.9952 34.6287 34.4525 33.3548 34.3562 31.69C34.2942 30.6023 33.961 29.4883 33.6493 28.4492C33.4352 27.7248 33.2288 27.0355 33.1426 26.4372C32.9843 25.3295 33.2617 24.5077 34.7844 24.2804C35.9512 24.5939 37.3105 25.1259 38.704 25.7029C39.6896 26.1113 40.4433 26.2162 41.002 26.1025C41.2946 26.0463 41.5328 25.9327 41.7279 25.7703C41.9204 25.6117 42.0661 25.4069 42.1649 25.1696C42.3752 24.6713 42.3841 24.0319 42.246 23.3613C42.2371 23.3175 42.1738 23.0266 42.1143 22.7418C41.9787 22.1149 41.8558 21.5304 41.757 20.9109C42.0053 21.3943 42.2891 21.8826 42.5716 22.3709C43.4584 23.8908 44.3451 25.4182 44.0449 26.7083C43.6661 28.3281 41.738 28.6977 40.3331 28.8975C39.7238 28.9837 39.7947 29.5157 40.4585 29.4121C41.2376 29.2897 42.1345 29.0936 42.8452 28.7901C42.9896 28.7239 43.1315 28.6565 43.2607 28.5816C43.2443 28.99 43.1695 29.3421 43.0467 29.6581C42.4424 31.2017 41.2579 31.3741 39.7504 31.5264C39.0549 31.5989 39.0815 32.1259 39.7871 32.0622C40.5421 31.9985 41.377 31.8611 42.0053 31.6026C42.1117 31.5577 42.2131 31.509 42.3081 31.4615C42.455 32.2883 41.7862 33.0613 40.9893 33.4422C40.1684 33.8356 39.2044 33.8231 38.5583 33.7732C38.0794 33.7382 38.0718 34.3064 38.5494 34.3102C39.065 34.3127 39.625 34.3064 40.1545 34.234C40.5193 34.1866 40.8639 34.1054 41.1705 33.9842C41.1654 34.0217 41.1553 34.0592 41.1464 34.1004C41.0172 34.6024 40.6181 35.2344 39.8048 35.7764Z" fill="white"/>
<path fill-rule="evenodd" clip-rule="evenodd" d="M26.6843 24.0619C27.8649 24.8374 28.6098 25.7254 29.0418 26.6721C29.3763 27.3977 29.5232 28.1657 29.5372 28.945C29.2331 28.4954 28.8683 28.0883 28.5022 27.6724C27.6914 26.7632 26.8616 25.8303 26.7109 24.4066C26.6995 24.2942 26.6906 24.1818 26.6843 24.0619Z" fill="white"/>
<path fill-rule="evenodd" clip-rule="evenodd" d="M25.0208 34.9745C24.8802 34.9745 24.8587 35.1993 24.7877 35.4017C24.7244 35.5865 24.6459 35.7538 24.5483 35.9237C24.4976 36.0136 24.4482 36.1035 24.4064 36.196H24.4052C23.9934 37.1014 24.4381 37.7183 25.0208 38.3103C25.6238 37.6896 26.0457 37.1014 25.6327 36.196C25.5934 36.1035 25.5402 36.0136 25.4921 35.9237C25.3945 35.7538 25.3147 35.5853 25.2527 35.4017C25.1792 35.1993 25.1576 34.9745 25.0208 34.9745Z" fill="white"/>
<path fill-rule="evenodd" clip-rule="evenodd" d="M26.1103 22.3983C26.0926 22.4183 26.0736 22.442 26.0546 22.4633C25.7594 22.8317 25.4541 23.2151 25.33 23.7509C25.1931 24.3503 24.8498 24.4015 24.713 23.7771C24.6104 23.2913 24.3532 22.9316 24.0872 22.5956V22.6094C24.0378 22.5432 23.9821 22.4757 23.9301 22.4058C23.9301 23.0577 23.9263 23.8907 23.8668 24.4577C23.6957 26.0525 22.8102 27.0529 21.9412 28.027C21.2596 28.7913 20.5971 29.5394 20.3615 30.536L20.2779 30.8919L19.9612 30.7096C19.3024 30.3312 18.9008 29.9241 18.6525 29.5232C18.4004 29.116 18.3067 28.7276 18.2649 28.3904C18.2117 27.9483 18.2801 27.5362 18.408 26.7919C18.4422 26.5758 18.4828 26.3285 18.5385 25.9676C18.783 24.4028 18.0635 23.9057 16.8296 23.9869C16.6839 23.9956 16.5319 24.0131 16.3748 24.0368C17.4072 24.5027 17.5935 25.3919 17.4275 26.5059C17.3376 27.1441 17.1273 27.8509 16.9056 28.5977C16.6066 29.6031 16.2836 30.6809 16.224 31.7162C16.1379 33.2198 16.5395 34.3563 17.3895 35.1718C18.2522 36.0036 19.5836 36.5181 21.3369 36.7629L21.4927 36.8416H21.4953H21.4965C21.6435 36.994 21.798 37.1388 21.9589 37.2762C22.1198 37.4136 22.287 37.546 22.4619 37.6733C23.0433 38.0955 24.2405 38.9722 24.9423 38.9609C25.6758 38.9535 27.5735 37.6733 27.5735 37.6733C27.5735 37.6733 27.9168 37.4136 28.0777 37.2762C28.2373 37.1388 28.3931 36.994 28.5413 36.8416L28.6997 36.7629C30.4543 36.5194 31.7844 36.0036 32.6471 35.1718C33.4972 34.3563 33.8987 33.2198 33.8151 31.7162C33.7531 30.6809 33.4338 29.6031 33.1298 28.5977C32.9094 27.8509 32.6991 27.1441 32.6066 26.5059C32.4444 25.3919 32.6294 24.5027 33.6618 24.0368C33.5048 24.0131 33.3527 23.9956 33.2071 23.9869C31.9744 23.9057 31.2536 24.4015 31.4956 25.9676C31.5526 26.3285 31.5931 26.5771 31.6299 26.7919C31.7553 27.5362 31.825 27.9496 31.7717 28.3904C31.7287 28.7289 31.6349 29.1173 31.3828 29.5232C31.1333 29.9228 30.7317 30.3312 30.078 30.7096L29.7588 30.8919L29.6739 30.536C29.4408 29.5382 28.7744 28.7901 28.0954 28.027C27.2264 27.0529 26.3371 26.0525 26.1711 24.4577C26.1128 23.8882 26.1065 23.0515 26.1103 22.3983Z" fill="white"/>
<path fill-rule="evenodd" clip-rule="evenodd" d="M23.388 21.6402C23.2714 21.3892 23.1929 21.1045 23.1865 20.7598C23.1675 19.9542 23.5944 19.3635 24.0226 18.7753C24.409 18.242 24.7232 17.9048 24.8435 17.1393C24.9056 16.7546 25.1172 16.8171 25.1754 17.1493C25.3009 17.8636 25.6239 18.232 26.0179 18.7753C26.4461 19.3648 26.873 19.9542 26.8565 20.7598C26.8477 21.1032 26.7704 21.388 26.6551 21.6402C26.6589 22.2022 26.6488 22.9353 26.6589 23.4736C27.5849 24.0293 28.2855 24.6513 28.8074 25.3144L28.8188 25.2645L31.0003 14.7939C31.1865 13.9034 31.4108 13.3364 31.8466 13.0167C32.0163 12.8918 32.2127 12.8094 32.4382 12.7669C32.3748 12.7245 32.3115 12.682 32.2494 12.6408C31.5602 12.1837 30.8635 11.7254 30.1363 12.1812C29.8678 12.3511 29.7424 12.4772 29.6879 12.7757L28.6136 18.6304C28.5148 19.0725 27.9777 18.9876 28.0879 18.4856L29.1241 12.8219C29.1913 12.4672 29.2964 12.0763 29.1913 11.7216C29.0329 11.1983 28.5325 10.8587 28.0803 10.5489C27.8725 10.4078 27.6724 10.2729 27.5051 10.1231C27.4849 10.2592 27.4646 10.3903 27.4481 10.4977H27.4507L26.7805 17.2317C26.7298 17.6476 26.1902 17.6014 26.2446 17.1155L26.8172 11.3869C26.8743 10.8087 26.9034 10.5327 26.4638 10.1206C26.2788 9.94697 26.0622 9.78087 25.8532 9.62101C25.634 9.45741 25.4174 9.31878 25.2477 9.15268C25.1577 9.06776 25.0804 8.97409 25.0209 8.87793C24.9575 8.97409 24.8815 9.06776 24.7916 9.15268C24.6218 9.31878 24.4027 9.45741 24.1861 9.62101C23.977 9.78087 23.7604 9.94697 23.5742 10.1206C23.1359 10.5327 23.165 10.8087 23.2207 11.3869L23.7946 17.1155C23.8491 17.6014 23.3081 17.6476 23.2587 17.2317L22.5886 10.4977H22.5911C22.5734 10.3903 22.5531 10.2592 22.5328 10.1231C22.3644 10.2729 22.1655 10.4078 21.9552 10.5489C21.5054 10.8587 21.0038 11.1983 20.8492 11.7216C20.7441 12.0763 20.8467 12.4672 20.9126 12.8219L21.9501 18.4856C22.0603 18.9876 21.5232 19.0725 21.4256 18.6304L20.3514 12.7757C20.2982 12.476 20.1727 12.3498 19.9029 12.1812C19.1758 11.7254 18.4815 12.185 17.7924 12.6408C17.729 12.6833 17.6657 12.7245 17.6024 12.7669C17.8304 12.8094 18.0242 12.8906 18.1965 13.0167C18.6298 13.3364 18.8552 13.9034 19.0427 14.7939L21.2242 25.2645L21.2369 25.3144C21.7563 24.6513 22.4581 24.0293 23.3829 23.4736C23.393 22.9353 23.3804 22.2035 23.388 21.6402Z" fill="white"/>
<path fill-rule="evenodd" clip-rule="evenodd" d="M25.2248 43.4632C25.9494 43.4132 26.5208 43.1747 27.1972 42.9249C28.2208 42.5452 29.1393 42.2068 30.9508 42.6576C31.4487 42.78 31.9795 43.0073 32.5394 43.2446C33.7138 43.7429 35.0123 44.2962 36.5249 44.1713L36.6693 43.693C36.0232 43.1909 35.8117 42.2443 35.6115 41.3513C35.5608 41.1165 35.5089 40.8842 35.4455 40.6407C35.4455 40.6457 35.4455 40.6457 35.4455 40.6407L35.3949 40.4546L35.1998 40.4384C34.0837 40.3547 33.3261 40.025 32.338 39.6778C31.9111 39.5304 31.5805 39.3194 31.0459 39.1533C29.5877 38.7062 28.0891 39.1396 26.8527 39.448C26.2002 39.6129 25.6644 40.0387 25.0791 40.06H25.0766H25.0386H24.9993H24.9942C24.4128 40.04 24.243 39.6141 23.5906 39.448C22.3554 39.1396 21.0202 38.8049 19.5633 39.2532C19.0275 39.4193 18.4384 39.7615 18.014 39.9101C17.0272 40.2585 16.2481 40.4833 15.2422 40.4371L15.0484 40.4534L14.999 40.6395C14.999 40.6444 14.999 40.6444 14.999 40.6395C14.9344 40.883 14.8824 41.1153 14.8305 41.3501C14.6303 42.243 14.4188 43.1897 13.7714 43.6917L13.9158 44.17C15.431 44.2949 16.7295 43.7417 17.9025 43.2434C18.4625 43.0061 18.9971 42.7788 19.4899 42.6564C21.3052 42.2068 22.2224 42.544 23.246 42.9237C23.925 43.1734 24.4989 43.4132 25.2248 43.4632Z" fill="white"/>
<path d="M36.0916 44.3686C34.7285 44.3686 33.5339 43.8603 32.4774 43.4132L32.4356 43.3945C31.8934 43.1659 31.3816 42.9486 30.9078 42.8312C30.339 42.6913 29.8373 42.6214 29.3711 42.6214C28.5287 42.6214 27.913 42.8512 27.2606 43.0922C27.1909 43.1185 27.1225 43.1447 27.0541 43.1697C26.4676 43.3882 25.9127 43.5955 25.2362 43.6405L25.2235 43.6417L25.2096 43.6405C24.5306 43.5955 23.9732 43.387 23.3828 43.1672C23.3182 43.1434 23.2511 43.1185 23.1839 43.0935C22.5315 42.8524 21.9159 42.6227 21.0734 42.6227C20.6085 42.6227 20.1056 42.6926 19.5368 42.8325C19.0604 42.9524 18.5372 43.1747 17.9836 43.4082L17.9697 43.4144C16.9144 43.8615 15.7185 44.3711 14.3542 44.3711C14.206 44.3711 14.0527 44.3636 13.9032 44.3524L13.779 44.3411L13.5649 43.628L13.6612 43.5531C14.2566 43.0897 14.4568 42.1868 14.6531 41.3138L14.6721 41.2277C14.7165 41.0328 14.7621 40.8293 14.8178 40.6207V40.6194L14.9052 40.2872L15.2384 40.2598H15.2511C15.3322 40.2635 15.4145 40.2648 15.4943 40.2648C16.3152 40.2648 16.9917 40.0824 17.952 39.7415C18.1306 39.679 18.3447 39.5779 18.5689 39.473C18.878 39.3281 19.1947 39.1782 19.5076 39.0821C20.0017 38.9297 20.5046 38.8548 21.0455 38.8548C21.9615 38.8548 22.809 39.0671 23.6311 39.2719C23.9643 39.3556 24.1809 39.5005 24.3722 39.6278C24.5749 39.7627 24.7358 39.8689 24.9942 39.8789H25.0741C25.3705 39.8689 25.6745 39.7302 25.9963 39.5829C26.2497 39.4667 26.5144 39.3468 26.8058 39.2719C26.8831 39.2532 26.9604 39.2332 27.0389 39.2132C27.8421 39.0109 28.7542 38.7798 29.6916 38.7798C30.1984 38.7798 30.6569 38.846 31.0978 38.9809C31.412 39.0783 31.6527 39.187 31.8845 39.2931C32.0555 39.3706 32.2177 39.4443 32.395 39.5054C32.5433 39.5579 32.6851 39.6091 32.8232 39.6578C33.6074 39.9426 34.2851 40.1873 35.2112 40.256L35.533 40.2822L35.6216 40.6145C35.6863 40.8605 35.7395 41.0978 35.7863 41.3101C35.9802 42.1818 36.1816 43.0847 36.7783 43.5481L36.8745 43.623L36.6604 44.3361L36.5376 44.3474C36.3931 44.3611 36.2424 44.3686 36.0916 44.3686ZM29.3711 42.263C29.8665 42.263 30.3985 42.3354 30.9965 42.4828C31.4981 42.6077 32.0226 42.83 32.5787 43.0648L32.6218 43.0835C33.6454 43.5168 34.8033 44.0089 36.0916 44.0089C36.1904 44.0089 36.2905 44.0052 36.3906 44.0002L36.4641 43.7516C35.8408 43.1984 35.6356 42.278 35.4367 41.3875C35.3898 41.174 35.3366 40.9317 35.2707 40.6844L35.2543 40.6207L35.1884 40.6145C34.2129 40.542 33.5136 40.2897 32.7041 39.9963C32.5661 39.9463 32.4254 39.8951 32.2798 39.8439C32.0872 39.7777 31.9174 39.7003 31.7376 39.6191C31.5159 39.5167 31.2853 39.413 30.9952 39.3231C30.5911 39.1982 30.1654 39.1383 29.6967 39.1383C28.8036 39.1383 27.9168 39.3618 27.1339 39.5604C27.0554 39.5791 26.9781 39.5991 26.9021 39.6191C26.6424 39.684 26.3941 39.7989 26.1547 39.9076C25.7987 40.0699 25.463 40.2236 25.0893 40.236L25.0424 40.2373L24.993 40.236C24.6269 40.2248 24.3963 40.0712 24.1746 39.9238C24.001 39.8077 23.8199 39.6865 23.5501 39.6191C22.7482 39.4193 21.9222 39.2132 21.0531 39.2132C20.5489 39.2132 20.0815 39.2819 19.6229 39.423C19.3341 39.5117 19.0288 39.6566 18.7323 39.7952C18.498 39.9051 18.275 40.0087 18.0799 40.0774C17.0816 40.4296 16.3748 40.6207 15.5007 40.6207C15.4183 40.6207 15.3347 40.6194 15.2524 40.6169L15.1979 40.6207L15.1852 40.6682L15.1611 40.8168H15.1459C15.1041 40.9816 15.0674 41.144 15.0319 41.3013L15.0129 41.3863C14.8128 42.2767 14.6088 43.1971 13.9855 43.7504L14.059 43.9989C14.1578 44.0039 14.2579 44.0077 14.3567 44.0077C15.6463 44.0077 16.8055 43.5156 17.8278 43.0797L17.8417 43.0747C18.4093 42.835 18.9451 42.6077 19.4493 42.4815C20.0473 42.3329 20.5794 42.2617 21.0747 42.2617C21.983 42.2617 22.6291 42.5028 23.3132 42.7563C23.379 42.78 23.4462 42.8062 23.5121 42.83C24.0973 43.0473 24.6041 43.2359 25.2235 43.2808C25.8405 43.2359 26.3421 43.0498 26.9249 42.8325C26.9933 42.8075 27.063 42.7813 27.1339 42.755C27.818 42.504 28.4628 42.263 29.3711 42.263Z" fill="#231F20"/>
<path d="M25.0057 42.5491H25.0019H25.0057ZM36.0207 42.599C36.0587 42.689 36.0993 42.7789 36.1474 42.8713C35.0478 43.1161 33.819 42.6515 32.6928 42.1507C31.8478 41.7748 31.0016 41.3976 30.1984 41.3614C29.2837 41.3239 28.4261 41.4039 27.59 41.6024C26.7539 41.801 25.9368 42.1107 25.0969 42.5291C25.0906 42.5329 25.0868 42.5354 25.0766 42.5379C25.0766 42.5403 25.0741 42.5403 25.0728 42.5416H25.0703C25.0703 42.5416 25.0703 42.5428 25.0677 42.5428C25.0677 42.5441 25.0639 42.5466 25.0614 42.5466H25.0589H25.0563H25.0551H25.0525V42.5491H25.0487H25.0462H25.0449H25.0424H25.0386H25.0373C25.0373 42.5491 25.0373 42.5503 25.0348 42.5503H25.0323H25.0272L25.0259 42.5516H25.0247H25.0183H25.0158H25.0145H25.0095C25.0082 42.5503 25.0082 42.5503 25.0082 42.5503H25.0057H25.0019H24.9981C24.9968 42.5503 24.9968 42.5491 24.9968 42.5491H24.9943H24.993H24.9917H24.9905H24.9879H24.9854H24.9829H24.9803V42.5466H24.9753H24.974H24.9702C24.9702 42.5466 24.9664 42.5441 24.9626 42.5416H24.9601L24.9588 42.5403H24.9575C24.9575 42.5403 24.9563 42.5403 24.9537 42.5379H24.9512V42.5366C24.9474 42.5354 24.9449 42.5329 24.9423 42.5329C24.9423 42.5329 24.9411 42.5329 24.9385 42.5291C24.0986 42.1107 23.2777 41.801 22.4416 41.6024C21.603 41.4039 20.7491 41.3227 19.8332 41.3614C19.0237 41.3976 18.2548 41.7748 17.4959 42.1469C16.4989 42.6328 15.4196 43.0611 14.3251 42.8164L14.4543 42.5428C15.4437 42.7639 16.4128 42.3455 17.3642 41.8797C18.1509 41.4938 18.9515 41.1054 19.8206 41.0642C20.7631 41.0204 21.6448 41.1079 22.5113 41.3114C23.3512 41.51 24.1734 41.821 25.0171 42.2356C25.857 41.821 26.6817 41.51 27.5203 41.3114C28.3856 41.1079 29.2685 41.0204 30.2123 41.0642C31.07 41.1041 31.9428 41.49 32.8156 41.8797C33.8962 42.3568 35.0161 42.8213 36.0207 42.599Z" fill="#231F20"/>
<path d="M25.1475 39.9539H24.8447V42.2655H25.1475V39.9539Z" fill="#231F20"/>
<path d="M9.0133 17.3192C8.05811 16.8708 7.57925 16.646 6.62153 16.1977C6.44291 16.5736 6.35676 16.7647 6.19208 17.1568C5.99318 17.0756 5.89311 17.0344 5.69421 16.952C6.14647 15.8767 6.4011 15.3672 6.96104 14.4055C7.14726 14.5117 7.24101 14.5654 7.42723 14.6728C7.22327 15.0225 7.12446 15.2023 6.9357 15.5657C7.87569 16.0478 8.34568 16.2888 9.28566 16.7684C9.17418 16.987 9.11844 17.0956 9.0133 17.3192Z" fill="#231F20"/>
<path d="M7.19281 14.0171C7.33976 13.7773 7.41324 13.6586 7.56652 13.4263C8.14419 13.8023 8.43176 13.9896 9.00817 14.3655C9.23619 14.5154 9.38948 14.6065 9.46549 14.6365C9.58837 14.6865 9.71125 14.6902 9.8316 14.6527C9.95195 14.614 10.0596 14.5266 10.1572 14.3892C10.2547 14.2494 10.3016 14.1257 10.2927 14.0108C10.2851 13.8972 10.2433 13.801 10.166 13.7223C10.0888 13.6436 9.95195 13.5275 9.75052 13.3776C9.18552 12.958 8.90555 12.7482 8.34182 12.3273C8.5065 12.1075 8.59012 12.0014 8.76114 11.7891C9.2818 12.2049 9.54277 12.4135 10.0647 12.8306C10.3624 13.0679 10.5626 13.249 10.6652 13.3714C10.7678 13.495 10.8362 13.6237 10.8691 13.7573C10.9021 13.8909 10.9008 14.0333 10.8666 14.1844C10.8324 14.3355 10.7488 14.5016 10.617 14.689C10.4574 14.9138 10.3117 15.0699 10.1724 15.1535C10.0356 15.2372 9.89494 15.2859 9.75432 15.3009C9.61371 15.3134 9.48449 15.3022 9.36414 15.2622C9.18805 15.2022 8.94736 15.0811 8.64332 14.8975C8.06312 14.5441 7.77301 14.368 7.19281 14.0171Z" fill="#231F20"/>
<path d="M12.0549 12.8307C11.2784 12.1176 10.8907 11.7617 10.1129 11.0473C9.85192 11.327 9.72397 11.4719 9.4744 11.7667C9.30971 11.628 9.22737 11.5593 9.06268 11.422C9.7493 10.6102 10.1154 10.2318 10.8818 9.53241C11.0275 9.68852 11.101 9.76845 11.248 9.92456C10.9693 10.1781 10.8324 10.3105 10.5651 10.579C11.3202 11.3158 11.6951 11.6842 12.4489 12.4223C12.288 12.5834 12.2095 12.6646 12.0549 12.8307Z" fill="#231F20"/>
<path d="M14.4479 10.7013C13.4724 9.84584 12.9682 9.43371 11.9244 8.64441C12.1347 8.47831 12.2398 8.39589 12.4526 8.23728C13.138 8.81176 13.4737 9.10775 14.1287 9.70971C13.7866 8.88545 13.6283 8.46707 13.3293 7.62033C13.5852 7.44923 13.7144 7.36681 13.9754 7.20695C14.6417 7.83639 14.9635 8.15735 15.5906 8.81676C15.2891 7.97127 15.1472 7.54415 14.8824 6.68242C15.1104 6.56003 15.2245 6.50009 15.4538 6.38269C15.7705 7.63906 15.9465 8.25976 16.3481 9.48366C16.1454 9.59481 16.0441 9.65226 15.8452 9.77215C15.1611 9.07777 14.8089 8.74058 14.0805 8.08367C14.3972 9.00409 14.567 9.45868 14.9356 10.3554C14.738 10.4903 14.6405 10.5577 14.4479 10.7013Z" fill="#231F20"/>
<path d="M15.7439 6.24025C15.9732 6.12785 16.0897 6.0729 16.3228 5.96925C16.6155 6.58744 16.7599 6.89717 17.05 7.51661C17.1665 7.76139 17.2476 7.91875 17.2932 7.98494C17.3692 8.0911 17.4668 8.16228 17.5821 8.196C17.6986 8.23097 17.8266 8.21973 17.971 8.15978C18.1167 8.09859 18.2129 8.02116 18.2598 7.92375C18.308 7.82633 18.3206 7.72392 18.2965 7.61902C18.2712 7.51286 18.2129 7.34302 18.1192 7.11072C17.8608 6.46255 17.7328 6.14034 17.4718 5.49093C17.71 5.39976 17.8304 5.3573 18.0711 5.27362C18.2991 5.89681 18.4131 6.20778 18.6386 6.82848C18.7691 7.18441 18.8451 7.44043 18.8704 7.59654C18.8945 7.75265 18.8882 7.89502 18.8514 8.02366C18.8147 8.15229 18.7463 8.26594 18.6462 8.37334C18.5461 8.4795 18.3992 8.57067 18.2028 8.65184C17.9659 8.74801 17.7734 8.79546 17.6239 8.78672C17.4731 8.77923 17.3363 8.74176 17.2159 8.67557C17.0969 8.60938 16.9968 8.52695 16.9182 8.42954C16.8042 8.28467 16.6674 8.05488 16.5065 7.73891C16.2012 7.14195 16.0492 6.84097 15.7439 6.24025Z" fill="#231F20"/>
<path d="M19.6939 8.05996C19.3012 6.86228 19.1061 6.26407 18.7121 5.06764C19.2226 4.90903 19.4798 4.8366 19.9992 4.71046C20.326 4.63053 20.5718 4.6068 20.7327 4.63053C20.8936 4.65551 21.0329 4.73044 21.1495 4.85408C21.2673 4.98022 21.3433 5.13258 21.3788 5.31617C21.4244 5.54846 21.3965 5.75078 21.3015 5.92687C21.2065 6.10171 20.8036 6.32776 20.8036 6.32776C20.8036 6.3365 21.0633 6.4439 21.1634 6.52009C21.2635 6.59627 21.4054 6.74239 21.5853 6.95719C21.7664 7.172 21.8551 7.27941 22.0286 7.49921C21.774 7.54417 21.6473 7.5679 21.3952 7.62035C21.1849 7.38431 21.0747 7.26817 20.8505 7.03837C20.6529 6.83356 20.5173 6.70742 20.4476 6.65996C20.3792 6.61125 20.3108 6.58253 20.245 6.57629C20.1791 6.56879 20.0828 6.58128 19.9549 6.61625C19.9092 6.62749 19.8877 6.63498 19.8408 6.64747C19.9891 7.15077 20.0638 7.40304 20.212 7.90884C20.0043 7.96504 19.9004 7.99626 19.6939 8.05996ZM19.7002 6.16416C19.8687 6.1167 19.9523 6.09422 20.1246 6.05051C20.4008 5.97932 20.5718 5.92812 20.6339 5.88566C20.6972 5.84569 20.7416 5.78949 20.7669 5.71955C20.7922 5.65087 20.7948 5.56969 20.7745 5.47727C20.7504 5.37486 20.7048 5.29618 20.6364 5.24373C20.5693 5.19253 20.4819 5.1663 20.3805 5.17629C20.3311 5.17879 20.1816 5.21001 19.9397 5.27246C19.7522 5.31991 19.6584 5.34489 19.4722 5.39609C19.5634 5.70457 19.609 5.85818 19.7002 6.16416Z" fill="#231F20"/>
<path d="M22.2998 7.45297C22.0907 6.21283 21.9881 5.59214 21.7778 4.35325C22.0287 4.31329 22.1553 4.2958 22.4062 4.26208C22.5785 5.50722 22.6621 6.13041 22.8331 7.37679C22.619 7.40426 22.5113 7.41925 22.2998 7.45297Z" fill="#231F20"/>
<path d="M24.3774 7.24188C24.3166 5.98676 24.2874 5.35982 24.2253 4.10345C24.48 4.09221 24.6054 4.08846 24.86 4.08472C24.8689 4.57927 24.8752 4.8278 24.8828 5.31986C25.3503 5.31236 25.5846 5.31486 26.0508 5.3336C26.0711 4.83904 26.0825 4.59301 26.1015 4.09845C26.3549 4.10969 26.4828 4.11594 26.7349 4.13342C26.6462 5.38605 26.5993 6.01299 26.5094 7.26561C26.2928 7.25187 26.1864 7.24563 25.971 7.23689C25.9938 6.68863 26.0052 6.41388 26.028 5.86562C25.5745 5.84813 25.3465 5.84439 24.8917 5.85188C24.9018 6.40139 24.9056 6.67614 24.9158 7.2269C24.7004 7.22939 24.5927 7.23189 24.3774 7.24188Z" fill="#231F20"/>
<path d="M29.437 7.69775C29.2089 7.64529 29.0924 7.62032 28.8631 7.57536C28.8314 7.27688 28.8124 7.12951 28.7719 6.83102C28.3348 6.7511 28.1157 6.71613 27.6748 6.66118C27.5456 6.93218 27.481 7.06956 27.3606 7.34182C27.1339 7.31559 27.0186 7.30435 26.7918 7.28562C27.3163 6.06796 27.6178 5.466 28.2841 4.28955C28.5502 4.32702 28.6832 4.347 28.948 4.39196C29.2229 5.71702 29.3191 6.37893 29.437 7.69775ZM28.6921 6.27777C28.6224 5.79195 28.5818 5.54842 28.4919 5.06261C28.255 5.49847 28.141 5.71702 27.9231 6.15913C28.2297 6.20159 28.3842 6.22407 28.6921 6.27777Z" fill="#231F20"/>
<path d="M29.7196 7.76523C30.0401 6.54757 30.1997 5.93687 30.5164 4.72046C30.7571 4.77916 30.8762 4.81038 31.1131 4.87657C31.3741 5.82197 31.478 6.2953 31.63 7.23695C31.915 6.44516 32.0595 6.04927 32.3458 5.25873C32.5687 5.33616 32.6789 5.37487 32.9019 5.4573C32.4408 6.63125 32.2089 7.21822 31.7453 8.39217C31.5426 8.31723 31.44 8.27977 31.236 8.20983C31.1043 7.2969 31.013 6.83731 30.7799 5.92188C30.5507 6.70993 30.4328 7.10457 30.2048 7.89261C30.0122 7.83891 29.916 7.81269 29.7196 7.76523Z" fill="#231F20"/>
<path d="M33.5288 5.70331C33.9595 5.8794 34.1749 5.97556 34.5967 6.17788C34.8336 6.29153 35.0046 6.40018 35.1098 6.4976C35.2491 6.62998 35.3429 6.79233 35.3885 6.97467C35.4341 7.15951 35.4366 7.35433 35.3923 7.56165C35.3479 7.76896 35.2504 8 35.0996 8.25602C34.9666 8.47957 34.8273 8.65692 34.6829 8.79179C34.5042 8.9554 34.3243 9.06905 34.1407 9.13149C34.0038 9.1802 33.8493 9.19393 33.6783 9.17395C33.5503 9.15772 33.397 9.10526 33.2146 9.01659C32.8447 8.8405 32.6585 8.75683 32.2809 8.60321C32.7788 7.443 33.0296 6.86227 33.5288 5.70331ZM33.8898 6.44015C33.5351 7.19572 33.359 7.57663 33.003 8.33221C33.1563 8.40089 33.2311 8.43586 33.3818 8.50705C33.5224 8.57324 33.6314 8.61445 33.7011 8.62819C33.7948 8.64443 33.8822 8.64068 33.9658 8.61445C34.0494 8.58698 34.1394 8.52204 34.2433 8.41463C34.3446 8.30848 34.4561 8.14862 34.5726 7.93506C34.6892 7.7215 34.7639 7.54666 34.7893 7.41303C34.8146 7.2794 34.8108 7.162 34.7804 7.06334C34.7475 6.96468 34.6841 6.87726 34.5929 6.80232C34.5232 6.74612 34.375 6.6612 34.1432 6.55505C34.0431 6.50759 33.9924 6.48511 33.8898 6.44015Z" fill="#231F20"/>
<path d="M36.7188 11.2408C36.5314 11.0872 36.4389 11.0123 36.2463 10.8662C36.3477 10.5827 36.3958 10.4391 36.4908 10.1506C36.1247 9.87955 35.9385 9.75092 35.5584 9.50614C35.3215 9.69472 35.2025 9.78963 34.9681 9.98321C34.7717 9.85957 34.6717 9.79838 34.4715 9.68098C35.49 8.81176 36.0335 8.40088 37.1648 7.63531C37.3928 7.78768 37.5043 7.86511 37.7285 8.02621C37.3966 9.34628 37.1952 9.9907 36.7188 11.2408ZM36.6618 9.61604C36.8113 9.14396 36.8823 8.90668 37.0153 8.42711C36.6048 8.71435 36.4034 8.86172 36.0069 9.16395C36.2717 9.33754 36.4034 9.42746 36.6618 9.61604Z" fill="#231F20"/>
<path d="M37.2267 11.6729C37.5853 11.277 37.7651 11.0797 38.1224 10.6838C38.2883 9.85082 38.3517 9.42496 38.4404 8.56073C38.6811 8.74931 38.7989 8.84547 39.0332 9.0453C38.9395 9.62228 38.8812 9.90702 38.7533 10.4703C39.3056 10.2942 39.5856 10.2142 40.1569 10.0731C40.3748 10.2879 40.4825 10.3978 40.6915 10.6226C39.8187 10.7688 39.3918 10.8637 38.562 11.0922C38.1933 11.4769 38.0058 11.6679 37.6372 12.0501C37.475 11.8965 37.394 11.8203 37.2267 11.6729Z" fill="#231F20"/>
<path d="M39.9366 14.7102C39.7909 14.5017 39.7174 14.3993 39.5641 14.197C39.7339 13.9447 39.8187 13.816 39.9834 13.5575C39.6908 13.1816 39.54 12.9993 39.2271 12.6483C38.9472 12.7657 38.8053 12.8269 38.5279 12.9506C38.3644 12.772 38.2834 12.6858 38.1149 12.5147C39.3348 11.944 39.9695 11.6917 41.2731 11.2621C41.4593 11.4769 41.5518 11.5868 41.7304 11.8116C41.0767 13.023 40.7144 13.605 39.9366 14.7102ZM40.2837 13.0755C40.5497 12.6508 40.6789 12.436 40.9272 12.0002C40.4522 12.1663 40.2178 12.2537 39.7541 12.4385C39.9695 12.6858 40.0772 12.8132 40.2837 13.0755Z" fill="#231F20"/>
<path d="M40.1189 14.9725C41.1767 14.2669 41.705 13.9122 42.7577 13.2054C42.9097 13.4302 42.9832 13.5426 43.1263 13.7736C42.7121 14.7028 42.4803 15.1524 41.9786 16.0104C42.7286 15.6107 43.1023 15.4122 43.851 15.0138C43.9764 15.2473 44.0385 15.3647 44.1575 15.6057C43.0199 16.1677 42.4499 16.4487 41.3084 17.0107C41.1982 16.7897 41.1425 16.681 41.0259 16.4675C41.5238 15.6507 41.7569 15.2223 42.1762 14.3344C41.4744 14.774 41.1235 14.995 40.4191 15.4334C40.3001 15.2461 40.2405 15.1536 40.1189 14.9725Z" fill="#231F20"/>
<path d="M41.582 17.5814C42.7437 17.0606 43.3227 16.7984 44.4805 16.2776C44.6034 16.5436 44.6617 16.6797 44.7757 16.952C43.6014 17.4328 43.0123 17.6751 41.8329 18.1547C41.7341 17.9224 41.6846 17.8087 41.582 17.5814Z" fill="#231F20"/>
<path d="M24.3165 34.6923C24.566 34.4513 25.4642 34.4688 25.7315 34.6923C26.0229 34.9334 25.9532 36.1548 25.9532 36.1548C25.9532 36.1548 26.4701 36.8104 26.4549 37.0677C26.4257 37.5573 25.4921 38.4315 24.9803 38.4277C24.4609 38.4252 23.531 37.5285 23.5057 37.034C23.4918 36.7655 24.0276 36.0861 24.0276 36.0861C24.0276 36.0861 24.053 34.9434 24.3165 34.6923ZM24.3367 36.1535C24.3367 36.1535 23.9681 36.7143 23.977 36.9341C23.9947 37.3425 24.6332 38.0805 24.9904 38.083C25.3413 38.0843 25.9836 37.3649 26.0026 36.9616C26.0128 36.7505 25.6568 36.2097 25.6568 36.2097C25.6568 36.2097 25.7062 35.2044 25.5048 35.0046C25.3211 34.821 24.7041 34.8072 24.5331 35.0046C24.3532 35.2131 24.3367 36.1535 24.3367 36.1535Z" fill="#231F20"/>
<path fill-rule="evenodd" clip-rule="evenodd" d="M26.949 30.069C26.9503 30.0711 26.9529 30.0773 26.949 30.069V30.069Z" fill="white"/>
<path fill-rule="evenodd" clip-rule="evenodd" d="M26.1838 28.7289C25.7454 28.0345 25.3096 27.2402 25.0069 26.2911C24.6357 27.264 24.8498 28.2156 25.0335 29.0311C25.245 29.9603 25.4667 30.9057 24.9714 32.3606C24.7928 32.8952 24.3228 32.5355 24.4583 32.2183C25.2856 30.315 24.2924 28.5116 24.0416 27.9871C23.8477 28.6615 23.3081 29.4158 23.0142 30.0677C22.61 30.9631 22.4568 32.1121 23.023 32.9514C23.1294 33.1125 23.2637 33.2586 23.4284 33.3935C23.5576 33.4984 23.7033 33.5933 23.8693 33.6795C23.9668 33.6145 24.077 33.5571 24.191 33.5121C24.224 33.4959 24.2594 33.4821 24.2937 33.4697C24.509 33.3947 24.7408 33.351 24.9815 33.351C25.3286 33.351 25.658 33.4359 25.9418 33.5858C25.9937 33.6133 26.0444 33.6445 26.0963 33.6782C27.1389 33.135 27.4024 32.1558 27.2783 31.2129C27.2542 31.0131 27.2124 30.8145 27.1554 30.6234C27.0984 30.4299 27.03 30.2438 26.9514 30.0689V30.0677V30.0664C26.7399 29.6069 26.4688 29.1747 26.1838 28.7289Z" fill="white"/>
<path fill-rule="evenodd" clip-rule="evenodd" d="M25.2578 25.051C25.5086 26.8456 26.1141 27.525 26.6716 28.4692C26.9617 28.9275 27.2429 29.3734 27.4658 29.8654C27.4658 29.8704 27.4671 29.8704 27.4684 29.8742C27.4684 29.8704 27.4671 29.8704 27.4684 29.8717V29.8742C27.5583 30.0715 27.6369 30.2788 27.6964 30.4936C27.7598 30.7072 27.8079 30.9295 27.837 31.1518C27.9928 32.3344 27.6293 33.5721 26.1838 34.2153L26.0153 34.2902L25.8747 34.1765C25.838 34.1466 25.8038 34.1216 25.7721 34.1004C25.7404 34.0779 25.6999 34.0554 25.6606 34.0342C25.4605 33.928 25.2286 33.8668 24.9803 33.8668C24.8081 33.8668 24.6434 33.8955 24.4926 33.9493C24.4685 33.9567 24.4445 33.968 24.4204 33.9742C24.3001 34.0279 24.1873 34.0941 24.0847 34.1765L23.9428 34.2877L23.7731 34.2153L23.768 34.2115C23.4906 34.0879 23.2549 33.9405 23.0497 33.7732C22.8457 33.6083 22.6798 33.4235 22.5455 33.2212C21.869 32.2171 22.0324 30.8907 22.4936 29.8704C22.8736 29.0312 23.5526 28.338 23.7287 27.2827C23.7946 26.9106 23.863 26.5134 24.1974 27.1566C24.2456 27.2465 24.3102 27.3664 24.3647 27.5587C24.1898 26.8931 24.7105 25.4744 24.8955 24.9985C25.0614 24.5789 25.216 24.4515 25.2578 25.051Z" fill="#FBD106"/>
<path d="M25.985 34.4987L25.7569 34.3152C25.7253 34.2889 25.6974 34.2689 25.6708 34.2515L25.6632 34.2465C25.6442 34.2327 25.6151 34.2165 25.5872 34.2003L25.5707 34.1903C25.2654 34.0292 24.8854 34.0029 24.5522 34.1178C24.5408 34.1216 24.5319 34.1253 24.5256 34.1278C24.5116 34.1341 24.499 34.1391 24.4863 34.1428C24.3824 34.1878 24.2862 34.2465 24.2 34.3152L23.9707 34.4962L23.6793 34.3689C23.4044 34.2452 23.1536 34.0916 22.9357 33.9118C22.7229 33.7407 22.5405 33.5408 22.3935 33.321C21.7715 32.3969 21.7487 31.0818 22.3276 29.798C22.4657 29.4945 22.6431 29.2072 22.8128 28.9287C23.1219 28.4254 23.4412 27.9047 23.5501 27.254C23.6033 26.9505 23.6565 26.637 23.915 26.637C24.0189 26.637 24.1063 26.6957 24.1873 26.7969C24.2887 26.1163 24.575 25.327 24.727 24.9348C24.8372 24.6513 24.9487 24.464 25.1299 24.464C25.3946 24.464 25.4225 24.8299 25.4364 25.0322C25.6404 26.4834 26.0774 27.1778 26.5386 27.9134C26.6336 28.0645 26.7299 28.2194 26.8261 28.3805C27.0896 28.7951 27.362 29.2272 27.5837 29.6918H27.59L27.6217 29.7717L27.6483 29.798V29.8354C27.7383 30.0365 27.8117 30.2413 27.8687 30.4449C27.9359 30.6684 27.9853 30.9007 28.0157 31.128C28.1297 31.9985 28.0537 33.5783 26.2573 34.3776L25.985 34.4987ZM25.8722 33.9517C25.909 33.9767 25.9495 34.0054 25.99 34.0392L26.042 34.0804L26.1104 34.0504C27.6914 33.3473 27.7573 31.946 27.6572 31.173C27.6293 30.9632 27.5837 30.7509 27.5216 30.541C27.4659 30.345 27.3937 30.1489 27.3063 29.9566L27.2543 29.8841L27.2645 29.8641C27.0516 29.4108 26.7907 28.9987 26.5158 28.5628C26.4182 28.4005 26.3232 28.2481 26.2307 28.0995C25.7683 27.3651 25.2895 26.6033 25.0754 25.0734L25.0741 25.061C25.0729 25.0547 25.0729 25.0485 25.0729 25.0435C25.0703 25.0497 25.0665 25.056 25.0653 25.0622C24.9018 25.4806 24.3774 26.8956 24.5395 27.5125L24.1899 27.6074C24.1392 27.4363 24.0835 27.3289 24.0341 27.2415C24.0011 27.1753 23.9732 27.1278 23.9492 27.0904C23.9327 27.1641 23.9175 27.2527 23.9074 27.3127C23.7858 28.0308 23.4475 28.5803 23.1219 29.1123C22.9497 29.3933 22.7862 29.6593 22.6583 29.9428C22.1287 31.113 22.1414 32.3007 22.6938 33.1225C22.8217 33.3136 22.9788 33.4859 23.1637 33.6345C23.3626 33.7969 23.5894 33.9355 23.8415 34.0491L23.9124 34.0816L23.9682 34.0367C24.0797 33.9467 24.2076 33.8706 24.3444 33.8119L24.3634 33.8056C24.371 33.8031 24.3786 33.8006 24.3875 33.7969C24.4027 33.7894 24.4179 33.7844 24.4331 33.7794C24.6054 33.7207 24.7903 33.6895 24.9766 33.6895C25.2439 33.6895 25.5086 33.7544 25.743 33.8768L25.7671 33.8905C25.8038 33.9093 25.838 33.9305 25.8722 33.9517Z" fill="#231F20"/>
<path d="M24.4875 27.2141C24.4875 27.2141 25.3274 28.9175 25.4262 29.8404C25.5162 30.6947 24.5813 32.4668 24.5813 32.4668C24.5813 32.4668 25.0398 30.8158 24.9765 29.9366C24.9208 29.1648 24.1936 27.6062 24.1936 27.6062L24.4875 27.2141Z" fill="#231F20"/>
<path d="M58.218 20V10.13H59.366V14.61H59.394L64.182 10.13H65.652L60.5 14.932L65.96 20H64.448L59.394 15.352H59.366V20H58.218ZM69.7296 20.126C68.6563 20.126 67.8069 19.8133 67.1816 19.188C66.5563 18.5533 66.2436 17.6947 66.2436 16.612C66.2436 15.912 66.3836 15.296 66.6636 14.764C66.9436 14.2227 67.3263 13.8073 67.8116 13.518C68.3063 13.2193 68.8756 13.07 69.5196 13.07C70.4436 13.07 71.1669 13.3687 71.6896 13.966C72.2123 14.554 72.4736 15.366 72.4736 16.402V16.836H67.3496C67.3869 17.6107 67.6109 18.2033 68.0216 18.614C68.4323 19.0153 69.0016 19.216 69.7296 19.216C70.1403 19.216 70.5323 19.1553 70.9056 19.034C71.2789 18.9033 71.6336 18.6933 71.9696 18.404L72.3616 19.202C72.0536 19.4913 71.6616 19.72 71.1856 19.888C70.7096 20.0467 70.2243 20.126 69.7296 20.126ZM69.5476 13.91C68.9036 13.91 68.3949 14.1107 68.0216 14.512C67.6483 14.9133 67.4289 15.4407 67.3636 16.094H71.4936C71.4656 15.4033 71.2836 14.8667 70.9476 14.484C70.6209 14.1013 70.1543 13.91 69.5476 13.91ZM74.1428 20V13.196H75.2488V14.344C75.4541 13.9333 75.7388 13.6207 76.1028 13.406C76.4668 13.182 76.8914 13.07 77.3768 13.07C78.4408 13.07 79.1221 13.532 79.4208 14.456C79.6261 14.0267 79.9294 13.6907 80.3308 13.448C80.7321 13.196 81.1941 13.07 81.7168 13.07C83.2288 13.07 83.9848 13.966 83.9848 15.758V20H82.8508V15.814C82.8508 15.1887 82.7388 14.7313 82.5148 14.442C82.3001 14.1433 81.9408 13.994 81.4368 13.994C80.8861 13.994 80.4474 14.19 80.1208 14.582C79.7941 14.974 79.6308 15.4967 79.6308 16.15V20H78.4968V15.814C78.4968 15.1887 78.3848 14.7313 78.1608 14.442C77.9461 14.1433 77.5868 13.994 77.0828 13.994C76.5228 13.994 76.0794 14.19 75.7528 14.582C75.4354 14.974 75.2768 15.4967 75.2768 16.15V20H74.1428ZM89.171 20.126C88.0977 20.126 87.2483 19.8133 86.623 19.188C85.9977 18.5533 85.685 17.6947 85.685 16.612C85.685 15.912 85.825 15.296 86.105 14.764C86.385 14.2227 86.7677 13.8073 87.253 13.518C87.7477 13.2193 88.317 13.07 88.961 13.07C89.885 13.07 90.6083 13.3687 91.131 13.966C91.6537 14.554 91.915 15.366 91.915 16.402V16.836H86.791C86.8283 17.6107 87.0523 18.2033 87.463 18.614C87.8737 19.0153 88.443 19.216 89.171 19.216C89.5817 19.216 89.9737 19.1553 90.347 19.034C90.7203 18.9033 91.075 18.6933 91.411 18.404L91.803 19.202C91.495 19.4913 91.103 19.72 90.627 19.888C90.151 20.0467 89.6657 20.126 89.171 20.126ZM88.989 13.91C88.345 13.91 87.8363 14.1107 87.463 14.512C87.0897 14.9133 86.8703 15.4407 86.805 16.094H90.935C90.907 15.4033 90.725 14.8667 90.389 14.484C90.0623 14.1013 89.5957 13.91 88.989 13.91ZM93.5562 20V13.196H94.6622V14.358C94.8862 13.9287 95.2035 13.6067 95.6142 13.392C96.0249 13.1773 96.4869 13.07 97.0002 13.07C98.6149 13.07 99.4222 13.966 99.4222 15.758V20H98.2882V15.828C98.2882 15.1933 98.1622 14.7313 97.9102 14.442C97.6675 14.1433 97.2755 13.994 96.7342 13.994C96.1089 13.994 95.6095 14.19 95.2362 14.582C94.8722 14.9647 94.6902 15.478 94.6902 16.122V20H93.5562ZM104.243 20.126C103.441 20.126 102.839 19.916 102.437 19.496C102.036 19.0667 101.835 18.4507 101.835 17.648V14.078H100.505V13.196H101.835V11.11H102.969V13.196H105.125V14.078H102.969V17.536C102.969 18.068 103.081 18.474 103.305 18.754C103.529 19.0247 103.893 19.16 104.397 19.16C104.547 19.16 104.696 19.1413 104.845 19.104C104.995 19.0667 105.13 19.0293 105.251 18.992L105.447 19.86C105.326 19.9253 105.149 19.986 104.915 20.042C104.682 20.098 104.458 20.126 104.243 20.126ZM109.405 20.126C108.332 20.126 107.483 19.8133 106.857 19.188C106.232 18.5533 105.919 17.6947 105.919 16.612C105.919 15.912 106.059 15.296 106.339 14.764C106.619 14.2227 107.002 13.8073 107.487 13.518C107.982 13.2193 108.551 13.07 109.195 13.07C110.119 13.07 110.843 13.3687 111.365 13.966C111.888 14.554 112.149 15.366 112.149 16.402V16.836H107.025C107.063 17.6107 107.287 18.2033 107.697 18.614C108.108 19.0153 108.677 19.216 109.405 19.216C109.816 19.216 110.208 19.1553 110.581 19.034C110.955 18.9033 111.309 18.6933 111.645 18.404L112.037 19.202C111.729 19.4913 111.337 19.72 110.861 19.888C110.385 20.0467 109.9 20.126 109.405 20.126ZM109.223 13.91C108.579 13.91 108.071 14.1107 107.697 14.512C107.324 14.9133 107.105 15.4407 107.039 16.094H111.169C111.141 15.4033 110.959 14.8667 110.623 14.484C110.297 14.1013 109.83 13.91 109.223 13.91ZM113.791 20V13.196H114.897V14.414C115.261 13.5927 116.007 13.14 117.137 13.056L117.543 13.014L117.627 13.994L116.913 14.078C116.269 14.134 115.779 14.3393 115.443 14.694C115.107 15.0393 114.939 15.5153 114.939 16.122V20H113.791ZM118.668 11.502V10.228H120.068V11.502H118.668ZM118.808 20V13.196H119.942V20H118.808ZM124.204 20.126C123.737 20.126 123.317 20.0373 122.944 19.86C122.58 19.6733 122.291 19.4213 122.076 19.104C121.861 18.7867 121.754 18.432 121.754 18.04C121.754 17.5453 121.88 17.1533 122.132 16.864C122.393 16.5747 122.818 16.3693 123.406 16.248C124.003 16.1173 124.815 16.052 125.842 16.052H126.29V15.618C126.29 15.0393 126.169 14.624 125.926 14.372C125.693 14.1107 125.315 13.98 124.792 13.98C124.381 13.98 123.985 14.0407 123.602 14.162C123.219 14.274 122.827 14.4607 122.426 14.722L122.034 13.896C122.389 13.644 122.818 13.4433 123.322 13.294C123.835 13.1447 124.325 13.07 124.792 13.07C125.669 13.07 126.318 13.2847 126.738 13.714C127.167 14.1433 127.382 14.8107 127.382 15.716V20H126.318V18.824C126.141 19.2253 125.865 19.5427 125.492 19.776C125.128 20.0093 124.699 20.126 124.204 20.126ZM124.386 19.272C124.946 19.272 125.403 19.0807 125.758 18.698C126.113 18.306 126.29 17.8113 126.29 17.214V16.794H125.856C125.1 16.794 124.503 16.8313 124.064 16.906C123.635 16.9713 123.331 17.0927 123.154 17.27C122.986 17.438 122.902 17.6713 122.902 17.97C122.902 18.3527 123.033 18.6653 123.294 18.908C123.565 19.1507 123.929 19.272 124.386 19.272ZM129.486 20V13.196H130.592V14.358C130.816 13.9287 131.133 13.6067 131.544 13.392C131.955 13.1773 132.417 13.07 132.93 13.07C134.545 13.07 135.352 13.966 135.352 15.758V20H134.218V15.828C134.218 15.1933 134.092 14.7313 133.84 14.442C133.597 14.1433 133.205 13.994 132.664 13.994C132.039 13.994 131.539 14.19 131.166 14.582C130.802 14.9647 130.62 15.478 130.62 16.122V20H129.486ZM141.193 20V10.13H145.099C146.163 10.13 146.975 10.3867 147.535 10.9C148.104 11.4133 148.389 12.146 148.389 13.098C148.389 14.0407 148.104 14.7733 147.535 15.296C146.975 15.8093 146.163 16.066 145.099 16.066H142.341V20H141.193ZM142.341 15.1H144.959C146.489 15.1 147.255 14.4327 147.255 13.098C147.255 11.754 146.489 11.082 144.959 11.082H142.341V15.1ZM152.65 20.126C151.576 20.126 150.727 19.8133 150.102 19.188C149.476 18.5533 149.164 17.6947 149.164 16.612C149.164 15.912 149.304 15.296 149.584 14.764C149.864 14.2227 150.246 13.8073 150.732 13.518C151.226 13.2193 151.796 13.07 152.44 13.07C153.364 13.07 154.087 13.3687 154.61 13.966C155.132 14.554 155.394 15.366 155.394 16.402V16.836H150.27C150.307 17.6107 150.531 18.2033 150.942 18.614C151.352 19.0153 151.922 19.216 152.65 19.216C153.06 19.216 153.452 19.1553 153.826 19.034C154.199 18.9033 154.554 18.6933 154.89 18.404L155.282 19.202C154.974 19.4913 154.582 19.72 154.106 19.888C153.63 20.0467 153.144 20.126 152.65 20.126ZM152.468 13.91C151.824 13.91 151.315 14.1107 150.942 14.512C150.568 14.9133 150.349 15.4407 150.284 16.094H154.414C154.386 15.4033 154.204 14.8667 153.868 14.484C153.541 14.1013 153.074 13.91 152.468 13.91ZM157.035 20V13.196H158.141V14.358C158.365 13.9287 158.682 13.6067 159.093 13.392C159.503 13.1773 159.965 13.07 160.479 13.07C162.093 13.07 162.901 13.966 162.901 15.758V20H161.767V15.828C161.767 15.1933 161.641 14.7313 161.389 14.442C161.146 14.1433 160.754 13.994 160.213 13.994C159.587 13.994 159.088 14.19 158.715 14.582C158.351 14.9647 158.169 15.478 158.169 16.122V20H157.035ZM167.582 20.126C166.975 20.126 166.443 19.9813 165.986 19.692C165.538 19.4027 165.188 18.9967 164.936 18.474C164.693 17.942 164.572 17.3167 164.572 16.598C164.572 15.87 164.693 15.2447 164.936 14.722C165.188 14.19 165.538 13.784 165.986 13.504C166.443 13.2147 166.975 13.07 167.582 13.07C168.114 13.07 168.58 13.1867 168.982 13.42C169.392 13.6533 169.696 13.9753 169.892 14.386V10.13H171.026V20H169.92V18.754C169.724 19.1833 169.42 19.5193 169.01 19.762C168.599 20.0047 168.123 20.126 167.582 20.126ZM167.82 19.216C168.454 19.216 168.963 18.992 169.346 18.544C169.728 18.0867 169.92 17.438 169.92 16.598C169.92 15.7487 169.728 15.1 169.346 14.652C168.963 14.204 168.454 13.98 167.82 13.98C167.176 13.98 166.662 14.204 166.28 14.652C165.906 15.1 165.72 15.7487 165.72 16.598C165.72 17.438 165.906 18.0867 166.28 18.544C166.662 18.992 167.176 19.216 167.82 19.216ZM173.014 11.502V10.228H174.414V11.502H173.014ZM173.154 20V13.196H174.288V20H173.154ZM178.998 20.126C178.391 20.126 177.859 19.9813 177.402 19.692C176.954 19.4027 176.604 18.9967 176.352 18.474C176.109 17.942 175.988 17.3167 175.988 16.598C175.988 15.87 176.109 15.2447 176.352 14.722C176.604 14.19 176.954 13.784 177.402 13.504C177.859 13.2147 178.391 13.07 178.998 13.07C179.53 13.07 179.996 13.1867 180.398 13.42C180.808 13.6533 181.112 13.9753 181.308 14.386V10.13H182.442V20H181.336V18.754C181.14 19.1833 180.836 19.5193 180.426 19.762C180.015 20.0047 179.539 20.126 178.998 20.126ZM179.236 19.216C179.87 19.216 180.379 18.992 180.762 18.544C181.144 18.0867 181.336 17.438 181.336 16.598C181.336 15.7487 181.144 15.1 180.762 14.652C180.379 14.204 179.87 13.98 179.236 13.98C178.592 13.98 178.078 14.204 177.696 14.652C177.322 15.1 177.136 15.7487 177.136 16.598C177.136 17.438 177.322 18.0867 177.696 18.544C178.078 18.992 178.592 19.216 179.236 19.216ZM184.43 11.502V10.228H185.83V11.502H184.43ZM184.57 20V13.196H185.704V20H184.57ZM187.824 20V10.13H188.958V16.22H188.986L192.136 13.196H193.578L190.162 16.472L193.872 20H192.43L188.986 16.808H188.958V20H187.824ZM196.897 20.126C196.431 20.126 196.011 20.0373 195.637 19.86C195.273 19.6733 194.984 19.4213 194.769 19.104C194.555 18.7867 194.447 18.432 194.447 18.04C194.447 17.5453 194.573 17.1533 194.825 16.864C195.087 16.5747 195.511 16.3693 196.099 16.248C196.697 16.1173 197.509 16.052 198.535 16.052H198.983V15.618C198.983 15.0393 198.862 14.624 198.619 14.372C198.386 14.1107 198.008 13.98 197.485 13.98C197.075 13.98 196.678 14.0407 196.295 14.162C195.913 14.274 195.521 14.4607 195.119 14.722L194.727 13.896C195.082 13.644 195.511 13.4433 196.015 13.294C196.529 13.1447 197.019 13.07 197.485 13.07C198.363 13.07 199.011 13.2847 199.431 13.714C199.861 14.1433 200.075 14.8107 200.075 15.716V20H199.011V18.824C198.834 19.2253 198.559 19.5427 198.185 19.776C197.821 20.0093 197.392 20.126 196.897 20.126ZM197.079 19.272C197.639 19.272 198.097 19.0807 198.451 18.698C198.806 18.306 198.983 17.8113 198.983 17.214V16.794H198.549C197.793 16.794 197.196 16.8313 196.757 16.906C196.328 16.9713 196.025 17.0927 195.847 17.27C195.679 17.438 195.595 17.6713 195.595 17.97C195.595 18.3527 195.726 18.6653 195.987 18.908C196.258 19.1507 196.622 19.272 197.079 19.272ZM202.179 20V13.196H203.285V14.358C203.509 13.9287 203.827 13.6067 204.237 13.392C204.648 13.1773 205.11 13.07 205.623 13.07C207.238 13.07 208.045 13.966 208.045 15.758V20H206.911V15.828C206.911 15.1933 206.785 14.7313 206.533 14.442C206.291 14.1433 205.899 13.994 205.357 13.994C204.732 13.994 204.233 14.19 203.859 14.582C203.495 14.9647 203.313 15.478 203.313 16.122V20H202.179ZM210.542 21.596L210.01 21.19C210.216 20.9753 210.36 20.77 210.444 20.574C210.538 20.3873 210.598 20.196 210.626 20H209.954V18.572H211.382V19.58C211.382 19.9627 211.322 20.3173 211.2 20.644C211.079 20.9707 210.86 21.288 210.542 21.596ZM217.072 20V10.13H218.22V14.61H218.248L223.036 10.13H224.506L219.354 14.932L224.814 20H223.302L218.248 15.352H218.22V20H217.072ZM228.583 20.126C227.51 20.126 226.66 19.8133 226.035 19.188C225.41 18.5533 225.097 17.6947 225.097 16.612C225.097 15.912 225.237 15.296 225.517 14.764C225.797 14.2227 226.18 13.8073 226.665 13.518C227.16 13.2193 227.729 13.07 228.373 13.07C229.297 13.07 230.02 13.3687 230.543 13.966C231.066 14.554 231.327 15.366 231.327 16.402V16.836H226.203C226.24 17.6107 226.464 18.2033 226.875 18.614C227.286 19.0153 227.855 19.216 228.583 19.216C228.994 19.216 229.386 19.1553 229.759 19.034C230.132 18.9033 230.487 18.6933 230.823 18.404L231.215 19.202C230.907 19.4913 230.515 19.72 230.039 19.888C229.563 20.0467 229.078 20.126 228.583 20.126ZM228.401 13.91C227.757 13.91 227.248 14.1107 226.875 14.512C226.502 14.9133 226.282 15.4407 226.217 16.094H230.347C230.319 15.4033 230.137 14.8667 229.801 14.484C229.474 14.1013 229.008 13.91 228.401 13.91ZM236.412 20.126C235.871 20.126 235.395 20.0047 234.984 19.762C234.583 19.5193 234.28 19.188 234.074 18.768V20H232.968V10.13H234.102V14.372C234.298 13.9707 234.602 13.6533 235.012 13.42C235.423 13.1867 235.89 13.07 236.412 13.07C237.019 13.07 237.546 13.2147 237.994 13.504C238.452 13.784 238.802 14.19 239.044 14.722C239.296 15.2447 239.422 15.87 239.422 16.598C239.422 17.3167 239.296 17.942 239.044 18.474C238.802 18.9967 238.452 19.4027 237.994 19.692C237.546 19.9813 237.019 20.126 236.412 20.126ZM236.174 19.216C236.809 19.216 237.318 18.992 237.7 18.544C238.083 18.0867 238.274 17.438 238.274 16.598C238.274 15.7487 238.083 15.1 237.7 14.652C237.318 14.204 236.809 13.98 236.174 13.98C235.54 13.98 235.031 14.204 234.648 14.652C234.266 15.1 234.074 15.7487 234.074 16.598C234.074 17.438 234.266 18.0867 234.648 18.544C235.031 18.992 235.54 19.216 236.174 19.216ZM243.538 20.126C241.905 20.126 241.088 19.2253 241.088 17.424V13.196H242.222V17.41C242.222 18.0167 242.344 18.4647 242.586 18.754C242.838 19.0433 243.23 19.188 243.762 19.188C244.341 19.188 244.812 18.9967 245.176 18.614C245.54 18.222 245.722 17.704 245.722 17.06V13.196H246.856V20H245.75V18.852C245.536 19.2627 245.232 19.58 244.84 19.804C244.458 20.0187 244.024 20.126 243.538 20.126ZM251.568 20.126C250.961 20.126 250.429 19.9813 249.972 19.692C249.524 19.4027 249.174 18.9967 248.922 18.474C248.679 17.942 248.558 17.3167 248.558 16.598C248.558 15.87 248.679 15.2447 248.922 14.722C249.174 14.19 249.524 13.784 249.972 13.504C250.429 13.2147 250.961 13.07 251.568 13.07C252.1 13.07 252.567 13.1867 252.968 13.42C253.379 13.6533 253.682 13.9753 253.878 14.386V10.13H255.012V20H253.906V18.754C253.71 19.1833 253.407 19.5193 252.996 19.762C252.585 20.0047 252.109 20.126 251.568 20.126ZM251.806 19.216C252.441 19.216 252.949 18.992 253.332 18.544C253.715 18.0867 253.906 17.438 253.906 16.598C253.906 15.7487 253.715 15.1 253.332 14.652C252.949 14.204 252.441 13.98 251.806 13.98C251.162 13.98 250.649 14.204 250.266 14.652C249.893 15.1 249.706 15.7487 249.706 16.598C249.706 17.438 249.893 18.0867 250.266 18.544C250.649 18.992 251.162 19.216 251.806 19.216ZM259.282 20.126C258.816 20.126 258.396 20.0373 258.022 19.86C257.658 19.6733 257.369 19.4213 257.154 19.104C256.94 18.7867 256.832 18.432 256.832 18.04C256.832 17.5453 256.958 17.1533 257.21 16.864C257.472 16.5747 257.896 16.3693 258.484 16.248C259.082 16.1173 259.894 16.052 260.92 16.052H261.368V15.618C261.368 15.0393 261.247 14.624 261.004 14.372C260.771 14.1107 260.393 13.98 259.87 13.98C259.46 13.98 259.063 14.0407 258.68 14.162C258.298 14.274 257.906 14.4607 257.504 14.722L257.112 13.896C257.467 13.644 257.896 13.4433 258.4 13.294C258.914 13.1447 259.404 13.07 259.87 13.07C260.748 13.07 261.396 13.2847 261.816 13.714C262.246 14.1433 262.46 14.8107 262.46 15.716V20H261.396V18.824C261.219 19.2253 260.944 19.5427 260.57 19.776C260.206 20.0093 259.777 20.126 259.282 20.126ZM259.464 19.272C260.024 19.272 260.482 19.0807 260.836 18.698C261.191 18.306 261.368 17.8113 261.368 17.214V16.794H260.934C260.178 16.794 259.581 16.8313 259.142 16.906C258.713 16.9713 258.41 17.0927 258.232 17.27C258.064 17.438 257.98 17.6713 257.98 17.97C257.98 18.3527 258.111 18.6653 258.372 18.908C258.643 19.1507 259.007 19.272 259.464 19.272ZM265.28 22.52L266.442 19.888L263.572 13.196H264.804L267.058 18.712L269.326 13.196H270.516L266.47 22.52H265.28ZM273.692 20.126C273.226 20.126 272.806 20.0373 272.432 19.86C272.068 19.6733 271.779 19.4213 271.564 19.104C271.35 18.7867 271.242 18.432 271.242 18.04C271.242 17.5453 271.368 17.1533 271.62 16.864C271.882 16.5747 272.306 16.3693 272.894 16.248C273.492 16.1173 274.304 16.052 275.33 16.052H275.778V15.618C275.778 15.0393 275.657 14.624 275.414 14.372C275.181 14.1107 274.803 13.98 274.28 13.98C273.87 13.98 273.473 14.0407 273.09 14.162C272.708 14.274 272.316 14.4607 271.914 14.722L271.522 13.896C271.877 13.644 272.306 13.4433 272.81 13.294C273.324 13.1447 273.814 13.07 274.28 13.07C275.158 13.07 275.806 13.2847 276.226 13.714C276.656 14.1433 276.87 14.8107 276.87 15.716V20H275.806V18.824C275.629 19.2253 275.354 19.5427 274.98 19.776C274.616 20.0093 274.187 20.126 273.692 20.126ZM273.874 19.272C274.434 19.272 274.892 19.0807 275.246 18.698C275.601 18.306 275.778 17.8113 275.778 17.214V16.794H275.344C274.588 16.794 273.991 16.8313 273.552 16.906C273.123 16.9713 272.82 17.0927 272.642 17.27C272.474 17.438 272.39 17.6713 272.39 17.97C272.39 18.3527 272.521 18.6653 272.782 18.908C273.053 19.1507 273.417 19.272 273.874 19.272ZM281.116 20.126C280.649 20.126 280.229 20.0373 279.856 19.86C279.492 19.6733 279.203 19.4213 278.988 19.104C278.773 18.7867 278.666 18.432 278.666 18.04C278.666 17.5453 278.792 17.1533 279.044 16.864C279.305 16.5747 279.73 16.3693 280.318 16.248C280.915 16.1173 281.727 16.052 282.754 16.052H283.202V15.618C283.202 15.0393 283.081 14.624 282.838 14.372C282.605 14.1107 282.227 13.98 281.704 13.98C281.293 13.98 280.897 14.0407 280.514 14.162C280.131 14.274 279.739 14.4607 279.338 14.722L278.946 13.896C279.301 13.644 279.73 13.4433 280.234 13.294C280.747 13.1447 281.237 13.07 281.704 13.07C282.581 13.07 283.23 13.2847 283.65 13.714C284.079 14.1433 284.294 14.8107 284.294 15.716V20H283.23V18.824C283.053 19.2253 282.777 19.5427 282.404 19.776C282.04 20.0093 281.611 20.126 281.116 20.126ZM281.298 19.272C281.858 19.272 282.315 19.0807 282.67 18.698C283.025 18.306 283.202 17.8113 283.202 17.214V16.794H282.768C282.012 16.794 281.415 16.8313 280.976 16.906C280.547 16.9713 280.243 17.0927 280.066 17.27C279.898 17.438 279.814 17.6713 279.814 17.97C279.814 18.3527 279.945 18.6653 280.206 18.908C280.477 19.1507 280.841 19.272 281.298 19.272ZM286.398 20V13.196H287.504V14.358C287.728 13.9287 288.045 13.6067 288.456 13.392C288.867 13.1773 289.329 13.07 289.842 13.07C291.457 13.07 292.264 13.966 292.264 15.758V20H291.13V15.828C291.13 15.1933 291.004 14.7313 290.752 14.442C290.509 14.1433 290.117 13.994 289.576 13.994C288.951 13.994 288.451 14.19 288.078 14.582C287.714 14.9647 287.532 15.478 287.532 16.122V20H286.398ZM294.761 21.596L294.229 21.19C294.434 20.9753 294.579 20.77 294.663 20.574C294.756 20.3873 294.817 20.196 294.845 20H294.173V18.572H295.601V19.58C295.601 19.9627 295.54 20.3173 295.419 20.644C295.298 20.9707 295.078 21.288 294.761 21.596ZM58.218 40V30.13H62.124C63.188 30.13 64 30.3773 64.56 30.872C65.1293 31.3667 65.414 32.0713 65.414 32.986C65.414 33.714 65.2133 34.3113 64.812 34.778C64.42 35.2447 63.86 35.548 63.132 35.688C63.5613 35.8373 63.93 36.2013 64.238 36.78L65.974 40H64.714L63.006 36.836C62.7913 36.444 62.544 36.178 62.264 36.038C61.984 35.898 61.6153 35.828 61.158 35.828H59.366V40H58.218ZM59.366 34.918H61.956C63.5053 34.918 64.28 34.274 64.28 32.986C64.28 31.7167 63.5053 31.082 61.956 31.082H59.366V34.918ZM67.2892 31.502V30.228H68.6892V31.502H67.2892ZM67.4292 40V33.196H68.5632V40H67.4292ZM72.9791 40.126C72.4471 40.126 71.9431 40.0513 71.4671 39.902C70.9911 39.7527 70.5991 39.5427 70.2911 39.272L70.6551 38.474C70.9911 38.7447 71.3598 38.9453 71.7611 39.076C72.1718 39.1973 72.5871 39.258 73.0071 39.258C73.5391 39.258 73.9405 39.16 74.2111 38.964C74.4818 38.768 74.6171 38.502 74.6171 38.166C74.6171 37.9047 74.5285 37.6993 74.3511 37.55C74.1738 37.3913 73.8938 37.27 73.5111 37.186L72.2371 36.906C71.0798 36.654 70.5011 36.0567 70.5011 35.114C70.5011 34.498 70.7438 34.0033 71.2291 33.63C71.7238 33.2567 72.3678 33.07 73.1611 33.07C73.6278 33.07 74.0711 33.1447 74.4911 33.294C74.9205 33.434 75.2751 33.644 75.5551 33.924L75.1771 34.722C74.9065 34.47 74.5891 34.2787 74.2251 34.148C73.8705 34.008 73.5158 33.938 73.1611 33.938C72.6385 33.938 72.2418 34.0407 71.9711 34.246C71.7005 34.4513 71.5651 34.722 71.5651 35.058C71.5651 35.5807 71.9105 35.9167 72.6011 36.066L73.8751 36.332C74.4725 36.4627 74.9251 36.6727 75.2331 36.962C75.5411 37.242 75.6951 37.6247 75.6951 38.11C75.6951 38.7353 75.4478 39.23 74.9531 39.594C74.4585 39.9487 73.8005 40.126 72.9791 40.126ZM80.4894 40.126C79.416 40.126 78.5667 39.8133 77.9414 39.188C77.316 38.5533 77.0034 37.6947 77.0034 36.612C77.0034 35.912 77.1434 35.296 77.4234 34.764C77.7034 34.2227 78.086 33.8073 78.5714 33.518C79.066 33.2193 79.6354 33.07 80.2794 33.07C81.2034 33.07 81.9267 33.3687 82.4494 33.966C82.972 34.554 83.2334 35.366 83.2334 36.402V36.836H78.1094C78.1467 37.6107 78.3707 38.2033 78.7814 38.614C79.192 39.0153 79.7614 39.216 80.4894 39.216C80.9 39.216 81.292 39.1553 81.6654 39.034C82.0387 38.9033 82.3934 38.6933 82.7294 38.404L83.1214 39.202C82.8134 39.4913 82.4214 39.72 81.9454 39.888C81.4694 40.0467 80.984 40.126 80.4894 40.126ZM80.3074 33.91C79.6634 33.91 79.1547 34.1107 78.7814 34.512C78.408 34.9133 78.1887 35.4407 78.1234 36.094H82.2534C82.2254 35.4033 82.0434 34.8667 81.7074 34.484C81.3807 34.1013 80.914 33.91 80.3074 33.91ZM87.6045 40.126C86.8019 40.126 86.1999 39.916 85.7985 39.496C85.3972 39.0667 85.1965 38.4507 85.1965 37.648V34.078H83.8665V33.196H85.1965V31.11H86.3305V33.196H88.4865V34.078H86.3305V37.536C86.3305 38.068 86.4425 38.474 86.6665 38.754C86.8905 39.0247 87.2545 39.16 87.7585 39.16C87.9079 39.16 88.0572 39.1413 88.2065 39.104C88.3559 39.0667 88.4912 39.0293 88.6125 38.992L88.8085 39.86C88.6872 39.9253 88.5099 39.986 88.2765 40.042C88.0432 40.098 87.8192 40.126 87.6045 40.126ZM90.3665 41.596L89.8345 41.19C90.0398 40.9753 90.1845 40.77 90.2685 40.574C90.3618 40.3873 90.4225 40.196 90.4505 40H89.7785V38.572H91.2065V39.58C91.2065 39.9627 91.1458 40.3173 91.0245 40.644C90.9032 40.9707 90.6838 41.288 90.3665 41.596ZM99.3317 40.126C98.7251 40.126 98.1931 39.9813 97.7357 39.692C97.2877 39.4027 96.9377 38.9967 96.6857 38.474C96.4431 37.942 96.3217 37.3167 96.3217 36.598C96.3217 35.87 96.4431 35.2447 96.6857 34.722C96.9377 34.19 97.2877 33.784 97.7357 33.504C98.1931 33.2147 98.7251 33.07 99.3317 33.07C99.8637 33.07 100.33 33.1867 100.732 33.42C101.142 33.6533 101.446 33.9753 101.642 34.386V30.13H102.776V40H101.67V38.754C101.474 39.1833 101.17 39.5193 100.76 39.762C100.349 40.0047 99.8731 40.126 99.3317 40.126ZM99.5697 39.216C100.204 39.216 100.713 38.992 101.096 38.544C101.478 38.0867 101.67 37.438 101.67 36.598C101.67 35.7487 101.478 35.1 101.096 34.652C100.713 34.204 100.204 33.98 99.5697 33.98C98.9257 33.98 98.4124 34.204 98.0297 34.652C97.6564 35.1 97.4697 35.7487 97.4697 36.598C97.4697 37.438 97.6564 38.0867 98.0297 38.544C98.4124 38.992 98.9257 39.216 99.5697 39.216ZM107.046 40.126C106.579 40.126 106.159 40.0373 105.786 39.86C105.422 39.6733 105.133 39.4213 104.918 39.104C104.703 38.7867 104.596 38.432 104.596 38.04C104.596 37.5453 104.722 37.1533 104.974 36.864C105.235 36.5747 105.66 36.3693 106.248 36.248C106.845 36.1173 107.657 36.052 108.684 36.052H109.132V35.618C109.132 35.0393 109.011 34.624 108.768 34.372C108.535 34.1107 108.157 33.98 107.634 33.98C107.223 33.98 106.827 34.0407 106.444 34.162C106.061 34.274 105.669 34.4607 105.268 34.722L104.876 33.896C105.231 33.644 105.66 33.4433 106.164 33.294C106.677 33.1447 107.167 33.07 107.634 33.07C108.511 33.07 109.16 33.2847 109.58 33.714C110.009 34.1433 110.224 34.8107 110.224 35.716V40H109.16V38.824C108.983 39.2253 108.707 39.5427 108.334 39.776C107.97 40.0093 107.541 40.126 107.046 40.126ZM107.228 39.272C107.788 39.272 108.245 39.0807 108.6 38.698C108.955 38.306 109.132 37.8113 109.132 37.214V36.794H108.698C107.942 36.794 107.345 36.8313 106.906 36.906C106.477 36.9713 106.173 37.0927 105.996 37.27C105.828 37.438 105.744 37.6713 105.744 37.97C105.744 38.3527 105.875 38.6653 106.136 38.908C106.407 39.1507 106.771 39.272 107.228 39.272ZM112.328 40V33.196H113.434V34.358C113.658 33.9287 113.975 33.6067 114.386 33.392C114.796 33.1773 115.258 33.07 115.772 33.07C117.386 33.07 118.194 33.966 118.194 35.758V40H117.06V35.828C117.06 35.1933 116.934 34.7313 116.682 34.442C116.439 34.1433 116.047 33.994 115.506 33.994C114.88 33.994 114.381 34.19 114.008 34.582C113.644 34.9647 113.462 35.478 113.462 36.122V40H112.328ZM126.456 40V31.124H122.872V30.13H131.202V31.124H127.618V40H126.456ZM134.302 40.126C133.229 40.126 132.379 39.8133 131.754 39.188C131.129 38.5533 130.816 37.6947 130.816 36.612C130.816 35.912 130.956 35.296 131.236 34.764C131.516 34.2227 131.899 33.8073 132.384 33.518C132.879 33.2193 133.448 33.07 134.092 33.07C135.016 33.07 135.739 33.3687 136.262 33.966C136.785 34.554 137.046 35.366 137.046 36.402V36.836H131.922C131.959 37.6107 132.183 38.2033 132.594 38.614C133.005 39.0153 133.574 39.216 134.302 39.216C134.713 39.216 135.105 39.1553 135.478 39.034C135.851 38.9033 136.206 38.6933 136.542 38.404L136.934 39.202C136.626 39.4913 136.234 39.72 135.758 39.888C135.282 40.0467 134.797 40.126 134.302 40.126ZM134.12 33.91C133.476 33.91 132.967 34.1107 132.594 34.512C132.221 34.9133 132.001 35.4407 131.936 36.094H136.066C136.038 35.4033 135.856 34.8667 135.52 34.484C135.193 34.1013 134.727 33.91 134.12 33.91ZM138.687 40V30.13H139.821V36.22H139.849L142.999 33.196H144.441L141.025 36.472L144.735 40H143.293L139.849 36.808H139.821V40H138.687ZM145.687 40V33.196H146.793V34.358C147.017 33.9287 147.334 33.6067 147.745 33.392C148.156 33.1773 148.618 33.07 149.131 33.07C150.746 33.07 151.553 33.966 151.553 35.758V40H150.419V35.828C150.419 35.1933 150.293 34.7313 150.041 34.442C149.798 34.1433 149.406 33.994 148.865 33.994C148.24 33.994 147.74 34.19 147.367 34.582C147.003 34.9647 146.821 35.478 146.821 36.122V40H145.687ZM156.472 40.126C155.809 40.126 155.235 39.9813 154.75 39.692C154.265 39.4027 153.887 38.9967 153.616 38.474C153.355 37.942 153.224 37.3167 153.224 36.598C153.224 35.8793 153.355 35.2587 153.616 34.736C153.887 34.204 154.265 33.7933 154.75 33.504C155.235 33.2147 155.809 33.07 156.472 33.07C157.125 33.07 157.695 33.2147 158.18 33.504C158.675 33.7933 159.053 34.204 159.314 34.736C159.585 35.2587 159.72 35.8793 159.72 36.598C159.72 37.3167 159.585 37.942 159.314 38.474C159.053 38.9967 158.675 39.4027 158.18 39.692C157.695 39.9813 157.125 40.126 156.472 40.126ZM156.472 39.216C157.107 39.216 157.615 38.992 157.998 38.544C158.381 38.0867 158.572 37.438 158.572 36.598C158.572 35.7487 158.381 35.1 157.998 34.652C157.615 34.204 157.107 33.98 156.472 33.98C155.828 33.98 155.315 34.204 154.932 34.652C154.559 35.1 154.372 35.7487 154.372 36.598C154.372 37.438 154.559 38.0867 154.932 38.544C155.315 38.992 155.828 39.216 156.472 39.216ZM163.509 40.126C162.819 40.126 162.296 39.9253 161.941 39.524C161.596 39.1133 161.423 38.5207 161.423 37.746V30.13H162.557V37.662C162.557 38.6607 162.954 39.16 163.747 39.16C163.981 39.16 164.191 39.132 164.377 39.076L164.349 40.028C164.06 40.0933 163.78 40.126 163.509 40.126ZM168.326 40.126C167.663 40.126 167.089 39.9813 166.604 39.692C166.118 39.4027 165.74 38.9967 165.47 38.474C165.208 37.942 165.078 37.3167 165.078 36.598C165.078 35.8793 165.208 35.2587 165.47 34.736C165.74 34.204 166.118 33.7933 166.604 33.504C167.089 33.2147 167.663 33.07 168.326 33.07C168.979 33.07 169.548 33.2147 170.034 33.504C170.528 33.7933 170.906 34.204 171.168 34.736C171.438 35.2587 171.574 35.8793 171.574 36.598C171.574 37.3167 171.438 37.942 171.168 38.474C170.906 38.9967 170.528 39.4027 170.034 39.692C169.548 39.9813 168.979 40.126 168.326 40.126ZM168.326 39.216C168.96 39.216 169.469 38.992 169.852 38.544C170.234 38.0867 170.426 37.438 170.426 36.598C170.426 35.7487 170.234 35.1 169.852 34.652C169.469 34.204 168.96 33.98 168.326 33.98C167.682 33.98 167.168 34.204 166.786 34.652C166.412 35.1 166.226 35.7487 166.226 36.598C166.226 37.438 166.412 38.0867 166.786 38.544C167.168 38.992 167.682 39.216 168.326 39.216ZM176.287 42.646C175.699 42.646 175.144 42.5667 174.621 42.408C174.108 42.2587 173.65 42.03 173.249 41.722L173.627 40.896C174.047 41.1947 174.462 41.4093 174.873 41.54C175.293 41.6707 175.746 41.736 176.231 41.736C177.575 41.736 178.247 41.0453 178.247 39.664V38.46C178.051 38.8893 177.743 39.23 177.323 39.482C176.912 39.7247 176.441 39.846 175.909 39.846C175.284 39.846 174.742 39.7013 174.285 39.412C173.828 39.1227 173.473 38.726 173.221 38.222C172.978 37.7087 172.857 37.116 172.857 36.444C172.857 35.772 172.978 35.184 173.221 34.68C173.473 34.1667 173.828 33.77 174.285 33.49C174.742 33.21 175.284 33.07 175.909 33.07C176.441 33.07 176.912 33.1913 177.323 33.434C177.743 33.6767 178.051 34.008 178.247 34.428V33.196H179.353V39.51C179.353 40.5553 179.092 41.3393 178.569 41.862C178.056 42.3847 177.295 42.646 176.287 42.646ZM176.119 38.922C176.772 38.922 177.29 38.698 177.673 38.25C178.056 37.802 178.247 37.2 178.247 36.444C178.247 35.688 178.056 35.0907 177.673 34.652C177.29 34.204 176.772 33.98 176.119 33.98C175.475 33.98 174.962 34.204 174.579 34.652C174.196 35.0907 174.005 35.688 174.005 36.444C174.005 37.2 174.196 37.802 174.579 38.25C174.962 38.698 175.475 38.922 176.119 38.922ZM181.34 31.502V30.228H182.74V31.502H181.34ZM181.48 40V33.196H182.614V40H181.48Z" fill="#414548"/>
</svg>
