<svg width="32" height="32" viewBox="0 0 32 32" fill="none" xmlns="http://www.w3.org/2000/svg">
<path fill-rule="evenodd" clip-rule="evenodd" d="M27 9.72812C27 9.4625 26.8937 9.20938 26.7062 9.02188L19.9813 2.29375C19.7938 2.10625 19.5375 2 19.2719 2H6C5.44688 2 5 2.44687 5 3V29C5 29.5531 5.44688 30 6 30H26C26.5531 30 27 29.5531 27 29V9.72812ZM18.8125 4.30625L24.6938 10.1875H18.8125V4.30625ZM12.9756 24.4357C13.4667 24.9268 14.057 25.1724 14.7466 25.1724C15.4363 25.1724 16.0266 24.9268 16.5177 24.4357C17.0088 23.9446 17.2544 23.3543 17.2544 22.6646V16.3954H19.7621V13.8876H16.0005V20.5017C15.8124 20.3868 15.6164 20.3005 15.4124 20.2428C15.2089 20.1856 14.987 20.1569 14.7466 20.1569C14.057 20.1569 13.4667 20.4025 12.9756 20.8936C12.4845 21.3847 12.2389 21.975 12.2389 22.6646C12.2389 23.3543 12.4845 23.9446 12.9756 24.4357Z" fill="#3884BC"/>
</svg>
