<svg width="32" height="32" viewBox="0 0 32 32" fill="none" xmlns="http://www.w3.org/2000/svg">
<path fill-rule="evenodd" clip-rule="evenodd" d="M27 9.72812C27 9.4625 26.8937 9.20938 26.7062 9.02188L19.9813 2.29375C19.7938 2.10625 19.5375 2 19.2719 2H6C5.44688 2 5 2.44687 5 3V29C5 29.5531 5.44688 30 6 30H26C26.5531 30 27 29.5531 27 29V9.72812ZM18.8125 4.30625L24.6938 10.1875H18.8125V4.30625ZM10.4545 19.4636C10.4545 16.4007 12.938 13.9172 16.0009 13.9172C19.0638 13.9172 21.5472 16.4007 21.5472 19.4636C21.5472 22.5265 19.0638 25.0099 16.0009 25.0099C12.938 25.0099 10.4545 22.5265 10.4545 19.4636ZM15.081 21.5162L17.7849 19.549C17.7977 19.54 17.8081 19.528 17.8153 19.5141C17.8225 19.5002 17.8262 19.4848 17.8262 19.4692C17.8262 19.4535 17.8225 19.4381 17.8153 19.4242C17.8081 19.4103 17.7977 19.3983 17.7849 19.3893L15.081 17.4233C15.0662 17.4126 15.0487 17.4061 15.0305 17.4047C15.0123 17.4033 14.994 17.407 14.9777 17.4153C14.9614 17.4236 14.9478 17.4363 14.9383 17.4519C14.9287 17.4676 14.9237 17.4855 14.9238 17.5038V21.4358C14.9238 21.454 14.9289 21.4719 14.9384 21.4875C14.948 21.503 14.9616 21.5157 14.9779 21.524C14.9941 21.5323 15.0123 21.536 15.0305 21.5346C15.0487 21.5333 15.0662 21.5269 15.081 21.5162Z" fill="#D93C3C"/>
</svg>
