<svg width="379" height="229" viewBox="0 0 379 229" fill="none" xmlns="http://www.w3.org/2000/svg">
<rect width="378.667" height="229" fill="#C0E2FD"/>
<g clip-path="url(#clip0_1004_4945)">
<path d="M270.031 302.141H106.636C97.4923 302.141 90.0815 294.731 90.0815 285.587V53.1352C90.0815 43.9913 97.4923 36.5806 106.636 36.5806H270.031C279.174 36.5806 286.585 43.9913 286.585 53.1352V285.587C286.585 294.701 279.174 302.141 270.031 302.141Z" fill="#E3E9EE"/>
<path d="M263.397 72.1102C263.308 72.1401 263.218 72.14 263.128 72.14H215.317C214.481 72.14 213.823 71.4826 213.823 70.646C213.823 69.8093 214.481 69.1519 215.317 69.1519H263.128C263.965 69.1519 264.622 69.8093 264.622 70.646C264.652 71.3631 264.114 71.9907 263.397 72.1102Z" fill="white"/>
<path d="M263.397 87.3792C263.308 87.4091 263.218 87.4091 263.128 87.4091H215.317C214.481 87.4091 213.823 86.7517 213.823 85.915C213.823 85.0783 214.481 84.4209 215.317 84.4209H263.128C263.965 84.4209 264.622 85.0783 264.622 85.915C264.652 86.6322 264.114 87.2597 263.397 87.3792Z" fill="white"/>
<path d="M263.397 103.964C263.308 103.994 263.218 103.994 263.128 103.994H215.317C214.481 103.994 213.823 103.336 213.823 102.499C213.823 101.663 214.481 101.005 215.317 101.005H263.128C263.965 101.005 264.622 101.663 264.622 102.499C264.652 103.247 264.114 103.844 263.397 103.964Z" fill="white"/>
<path d="M193.593 125.958H109.476V36.5508H193.593V125.958Z" fill="#F6A41F"/>
<path d="M139.628 83.7938C139.06 83.9133 138.462 83.9432 137.865 83.9432H136.699C130.514 83.9432 125.493 78.923 125.493 72.7375V56.8104C125.493 55.5553 126.509 54.5692 127.735 54.5692C128.99 54.5692 129.976 55.5852 129.976 56.8104V72.7375C129.976 76.4428 132.994 79.4609 136.699 79.4609H137.865C140.733 79.4609 143.094 77.1301 143.094 74.2316V33.8909C143.094 30.9326 140.673 28.5122 137.715 28.5122H135.713C132.546 28.5122 130.006 31.082 130.006 34.2196V35.2057C130.006 36.4608 128.99 37.4469 127.764 37.4469C126.509 37.4469 125.523 36.4309 125.523 35.2057V34.2196C125.523 28.5719 130.125 24 135.743 24H137.745C143.184 24 147.636 28.4225 147.636 33.8909V74.2316C147.576 78.9828 144.14 82.9571 139.628 83.7938Z" fill="#3E479B"/>
<path d="M259.66 185.541C259.57 185.571 259.48 185.571 259.391 185.571H113.328C112.491 185.571 111.833 184.914 111.833 184.077C111.833 183.24 112.491 182.583 113.328 182.583H259.391C260.227 182.583 260.885 183.24 260.885 184.077C260.885 184.824 260.347 185.422 259.66 185.541Z" fill="white"/>
<path d="M182.625 213.869C182.535 213.899 182.445 213.899 182.356 213.899H113.298C112.462 213.899 111.804 213.242 111.804 212.405C111.804 211.569 112.462 210.911 113.298 210.911H182.356C183.192 210.911 183.85 211.569 183.85 212.405C183.85 213.122 183.312 213.75 182.625 213.869Z" fill="white"/>
<path d="M182.625 162.263C182.535 162.293 182.445 162.293 182.356 162.293H113.298C112.462 162.293 111.804 161.636 111.804 160.799C111.804 159.963 112.462 159.305 113.298 159.305H182.356C183.192 159.305 183.85 159.963 183.85 160.799C183.85 161.516 183.312 162.144 182.625 162.263Z" fill="white"/>
<path d="M259.66 213.66C259.571 213.69 259.481 213.69 259.391 213.69H193.592C192.755 213.69 192.097 213.033 192.097 212.196C192.097 211.36 192.755 210.702 193.592 210.702H259.391C260.228 210.702 260.886 211.36 260.886 212.196C260.886 212.913 260.348 213.541 259.66 213.66Z" fill="white"/>
</g>
<defs>
<clipPath id="clip0_1004_4945">
<rect width="314.667" height="205" fill="white" transform="translate(32 24)"/>
</clipPath>
</defs>
</svg>
