<svg width="34" height="34" viewBox="0 0 34 34" fill="none" xmlns="http://www.w3.org/2000/svg">
<rect width="34" height="34" rx="17" fill="#EFF2F6"/>
<path d="M18.054 10.7444C18.2163 10.7491 18.3704 10.8168 18.4837 10.9332L24.317 16.7665C24.4342 16.8837 24.5 17.0427 24.5 17.2084C24.5 17.3742 24.4342 17.5331 24.317 17.6503L18.4837 23.4837C18.4261 23.5436 18.3571 23.5915 18.2808 23.6245C18.2044 23.6575 18.1223 23.6749 18.0392 23.6758C17.956 23.6766 17.8735 23.6609 17.7965 23.6294C17.7196 23.598 17.6496 23.5515 17.5908 23.4927C17.532 23.4339 17.4855 23.364 17.4541 23.287C17.4227 23.21 17.4069 23.1275 17.4078 23.0444C17.4086 22.9612 17.426 22.8791 17.459 22.8028C17.492 22.7264 17.5399 22.6575 17.5999 22.5999L22.3663 17.8334H10.1251C10.0423 17.8346 9.96007 17.8193 9.88322 17.7884C9.80636 17.7575 9.73641 17.7117 9.67743 17.6535C9.61845 17.5954 9.57162 17.5261 9.53965 17.4497C9.50768 17.3733 9.49122 17.2913 9.49122 17.2084C9.49122 17.1256 9.50768 17.0436 9.53965 16.9672C9.57162 16.8908 9.61845 16.8215 9.67743 16.7633C9.73641 16.7052 9.80636 16.6593 9.88322 16.6284C9.96007 16.5976 10.0423 16.5823 10.1251 16.5834H22.3663L17.5999 11.817C17.5097 11.7292 17.4482 11.6162 17.4233 11.4928C17.3984 11.3694 17.4113 11.2414 17.4604 11.1255C17.5095 11.0096 17.5924 10.9112 17.6983 10.8432C17.8042 10.7752 17.9282 10.7408 18.054 10.7444Z" fill="#8D959B"/>
</svg>
