<svg width="34" height="34" viewBox="0 0 34 34" fill="none" xmlns="http://www.w3.org/2000/svg">
<rect width="34" height="34" rx="17" fill="#EFF2F6"/>
<path d="M15.946 10.7444C15.7837 10.7491 15.6296 10.8168 15.5163 10.9332L9.68299 16.7665C9.56582 16.8837 9.5 17.0427 9.5 17.2084C9.5 17.3742 9.56582 17.5331 9.68299 17.6503L15.5163 23.4837C15.5739 23.5436 15.6429 23.5915 15.7192 23.6245C15.7956 23.6575 15.8777 23.6749 15.9608 23.6758C16.044 23.6766 16.1265 23.6609 16.2035 23.6294C16.2804 23.598 16.3504 23.5515 16.4092 23.4927C16.468 23.4339 16.5145 23.364 16.5459 23.287C16.5773 23.21 16.5931 23.1275 16.5922 23.0444C16.5914 22.9612 16.574 22.8791 16.541 22.8028C16.508 22.7264 16.4601 22.6575 16.4001 22.5999L11.6337 17.8334H23.8749C23.9577 17.8346 24.0399 17.8193 24.1168 17.7884C24.1936 17.7575 24.2636 17.7117 24.3226 17.6535C24.3815 17.5954 24.4284 17.5261 24.4604 17.4497C24.4923 17.3733 24.5088 17.2913 24.5088 17.2084C24.5088 17.1256 24.4923 17.0436 24.4604 16.9672C24.4284 16.8908 24.3815 16.8215 24.3226 16.7633C24.2636 16.7052 24.1936 16.6593 24.1168 16.6284C24.0399 16.5976 23.9577 16.5823 23.8749 16.5834H11.6337L16.4001 11.817C16.4903 11.7292 16.5518 11.6162 16.5767 11.4928C16.6016 11.3694 16.5887 11.2414 16.5396 11.1255C16.4905 11.0096 16.4076 10.9112 16.3017 10.8432C16.1958 10.7752 16.0718 10.7408 15.946 10.7444Z" fill="#8D959B"/>
</svg>
