<svg width="64" height="65" viewBox="0 0 64 65" fill="none" xmlns="http://www.w3.org/2000/svg">
<path opacity="0.35" d="M57.1466 35.5006L52.5333 29.9006C51.2266 18.1406 45.3333 6.14062 29.3333 6.14062C14.24 6.16729 5.33331 17.1806 5.33331 31.394C5.33331 41.6073 10.4 46.274 12.4533 53.394C13.4933 56.9673 16.5866 59.474 20.16 59.474C25.5493 59.474 37.6853 59.474 43.1733 59.474C46.9866 59.474 50.2693 56.7806 51.0133 53.042L52.4 46.0873L55.3866 44.434C58.6666 42.674 59.4933 38.3806 57.1466 35.5006Z" fill="#069ADE"/>
<path d="M39.2987 29.3753L32.3573 20.3433C31.504 19.2313 29.8293 19.2313 28.9733 20.3433L22.032 29.3753C20.9547 30.7779 21.9573 32.8073 23.7253 32.8073H26.6667V42.1406C26.6667 44.3486 28.4587 46.1406 30.6667 46.1406C32.8747 46.1406 34.6667 44.3486 34.6667 42.1406V32.8073H37.608C39.376 32.8073 40.3787 30.7779 39.2987 29.3753Z" fill="#069ADE"/>
</svg>
