<svg width="64" height="65" viewBox="0 0 64 65" fill="none" xmlns="http://www.w3.org/2000/svg">
<path d="M17.3333 22.1407C21.0152 22.1407 24 19.1559 24 15.474C24 11.7921 21.0152 8.80737 17.3333 8.80737C13.6514 8.80737 10.6667 11.7921 10.6667 15.474C10.6667 19.1559 13.6514 22.1407 17.3333 22.1407Z" fill="#069ADE"/>
<path d="M24 24.8074C23.24 24.8074 11.4267 24.8074 10.6667 24.8074C7.72 24.8074 5.33333 27.194 5.33333 30.1407C5.33333 33.0874 7.72 35.474 10.6667 35.474C11.4267 35.474 23.24 35.474 24 35.474C26.9467 35.474 29.3333 33.0874 29.3333 30.1407C29.3333 27.194 26.9467 24.8074 24 24.8074Z" fill="#069ADE"/>
<path opacity="0.35" d="M46.6667 22.1407C50.3486 22.1407 53.3333 19.1559 53.3333 15.474C53.3333 11.7921 50.3486 8.80737 46.6667 8.80737C42.9848 8.80737 40 11.7921 40 15.474C40 19.1559 42.9848 22.1407 46.6667 22.1407Z" fill="#069ADE"/>
<path opacity="0.35" d="M53.3333 24.8074C52.5733 24.8074 40.76 24.8074 40 24.8074C37.0533 24.8074 34.6667 27.194 34.6667 30.1407C34.6667 33.0874 37.0533 35.474 40 35.474C40.76 35.474 52.5733 35.474 53.3333 35.474C56.28 35.474 58.6667 33.0874 58.6667 30.1407C58.6667 27.194 56.28 24.8074 53.3333 24.8074Z" fill="#069ADE"/>
<path d="M58.4187 47.5381L52.4587 41.5781C50.8133 39.9328 48 41.0981 48 43.4234V46.1406H38.6667C36.4587 46.1406 34.6667 47.9326 34.6667 50.1406C34.6667 52.3486 36.4587 54.1406 38.6667 54.1406H48V56.8581C48 59.1834 50.8133 60.3488 52.4587 58.7061L58.4187 52.7461C59.856 51.3088 59.856 48.9754 58.4187 47.5381Z" fill="#069ADE"/>
<path opacity="0.35" d="M25.3333 46.1408H16V43.4234C16 41.0981 13.1867 39.9328 11.5413 41.5781L5.58133 47.5381C4.14399 48.9754 4.14399 51.3088 5.58133 52.7461L11.5413 58.7061C13.1867 60.3488 16 59.1834 16 56.8581V54.1408H25.3333C27.5413 54.1408 29.3333 52.3488 29.3333 50.1408C29.3333 47.9328 27.5413 46.1408 25.3333 46.1408Z" fill="#069ADE"/>
</svg>
