<svg width="64" height="65" viewBox="0 0 64 65" fill="none" xmlns="http://www.w3.org/2000/svg">
<g clip-path="url(#clip0_2200_8115)">
<path d="M53.3333 24.8075C57.0152 24.8075 60 21.8227 60 18.1408C60 14.4589 57.0152 11.4741 53.3333 11.4741C49.6514 11.4741 46.6667 14.4589 46.6667 18.1408C46.6667 21.8227 49.6514 24.8075 53.3333 24.8075Z" fill="#069ADE"/>
<path d="M56 27.4741H50.6667C46.248 27.4741 42.6667 31.0555 42.6667 35.4741V47.4741C42.6667 49.2128 43.784 50.6768 45.3333 51.2288C45.3333 52.6875 45.3333 53.9408 45.3333 54.1408C45.3333 55.6128 46.528 56.8075 48 56.8075C49.472 56.8075 50.6667 55.6128 50.6667 54.1408C50.6667 53.9515 50.6667 52.8261 50.6667 51.4741C50.6667 50.0021 51.8613 48.8075 53.3333 48.8075C54.8053 48.8075 56 50.0021 56 51.4741C56 52.8261 56 53.9515 56 54.1408C56 55.6128 57.1947 56.8075 58.6667 56.8075C60.1387 56.8075 61.3333 55.6128 61.3333 54.1408C61.3333 53.9408 61.3333 52.6875 61.3333 51.2288C62.8827 50.6768 64 49.2128 64 47.4741V35.4741C64 31.0555 60.4187 27.4741 56 27.4741Z" fill="#069ADE"/>
<path opacity="0.35" d="M33.3333 27.4741C31.1253 27.4741 29.3333 29.2661 29.3333 31.4741V52.8075C29.3333 55.0155 31.1253 56.8075 33.3333 56.8075C35.5413 56.8075 37.3333 55.0155 37.3333 52.8075V31.4741C37.3333 29.2661 35.5413 27.4741 33.3333 27.4741Z" fill="#069ADE"/>
<path d="M20 38.1406C17.792 38.1406 16 39.9326 16 42.1406V52.8073C16 55.0153 17.792 56.8073 20 56.8073C22.208 56.8073 24 55.0153 24 52.8073V42.1406C24 39.9326 22.208 38.1406 20 38.1406Z" fill="#069ADE"/>
<path opacity="0.35" d="M6.66667 48.8074C4.45867 48.8074 2.66667 50.5994 2.66667 52.8074C2.66667 55.0154 4.45867 56.8074 6.66667 56.8074C8.87467 56.8074 10.6667 55.0154 10.6667 52.8074C10.6667 50.5994 8.87467 48.8074 6.66667 48.8074Z" fill="#069ADE"/>
<path opacity="0.35" d="M37.128 10.4554C36.8587 9.80204 36.3387 9.28204 35.6853 9.01271C35.36 8.87937 35.0133 8.80737 34.6667 8.80737H27.7707C25.3947 8.80737 24.2053 11.6794 25.8853 13.3594L27.4453 14.9194L3.56267 36.1487C2.46133 37.1247 2.36267 38.8127 3.34133 39.9114C3.86667 40.506 4.6 40.8074 5.33333 40.8074C5.96267 40.8074 6.59467 40.586 7.104 40.1327L31.104 18.7994C31.1467 18.762 31.1627 18.7114 31.2 18.674L31.2187 18.6927L32.7813 20.2554C34.4613 21.9354 37.3333 20.746 37.3333 18.37V11.474C37.3333 11.1274 37.2613 10.7807 37.128 10.4554Z" fill="#069ADE"/>
</g>
<defs>
<clipPath id="clip0_2200_8115">
<rect width="64" height="64" fill="white" transform="translate(0 0.807373)"/>
</clipPath>
</defs>
</svg>
