<svg width="32" height="32" viewBox="0 0 32 32" fill="none" xmlns="http://www.w3.org/2000/svg">
<path d="M26.7062 9.02188C26.8937 9.20938 27 9.4625 27 9.72812V29C27 29.5531 26.5531 30 26 30H6C5.44687 30 5 29.5531 5 29V3C5 2.44687 5.44687 2 6 2H19.2719C19.5375 2 19.7938 2.10625 19.9813 2.29375L26.7062 9.02188V9.02188ZM24.6938 10.1875L18.8125 4.30625V10.1875H24.6938ZM14.6416 23.75V20.8894H16.4937C18.3866 20.8894 19.625 19.6503 19.625 17.8231C19.625 16.0038 18.3881 14.75 16.5006 14.75H13.25C13.1505 14.75 13.0552 14.7895 12.9848 14.8598C12.9145 14.9302 12.875 15.0255 12.875 15.125V23.75C12.875 23.8495 12.9145 23.9448 12.9848 24.0152C13.0552 24.0855 13.1505 24.125 13.25 24.125H14.2666C14.366 24.125 14.4614 24.0855 14.5317 24.0152C14.6021 23.9448 14.6416 23.8495 14.6416 23.75ZM14.6416 19.3959H15.7322C17.2266 19.3959 17.8319 18.9919 17.8319 17.8231C17.8319 16.8216 17.2656 16.2569 16.2734 16.2569H14.6416V19.3959V19.3959Z" fill="#C43E1C"/>
</svg>
