<svg width="562" height="331" viewBox="0 0 562 331" fill="none" xmlns="http://www.w3.org/2000/svg">
<path d="M27.668 151.356C27.668 149.159 27.7565 146.961 27.9482 144.793" stroke="#ADDBED" stroke-width="2.54183" stroke-miterlimit="10" stroke-linecap="round"/>
<path d="M30.1016 132.095C47.2536 65.0946 152.555 13.5204 279.92 13.5204C391.474 13.5204 486.113 53.0896 519.414 107.923" stroke="#ADDBED" stroke-width="2.54183" stroke-miterlimit="10" stroke-linecap="round" stroke-dasharray="13.43 13.43"/>
<path d="M522.586 113.557C523.604 115.518 524.547 117.495 525.418 119.486" stroke="#ADDBED" stroke-width="2.54183" stroke-miterlimit="10" stroke-linecap="round"/>
<g opacity="0.7">
<path d="M389.883 1.23529H388.866H362.334V60.5669H407.891V20.2751V19.2427V1.23529H389.883Z" fill="#ECECEC"/>
<path d="M407.891 1.23529H362.334V12.6061H407.891V1.23529Z" fill="#5A8CC4"/>
<path d="M398.793 21.3812H371.435C371.229 21.3812 371.066 21.219 371.066 21.0125C371.066 20.806 371.229 20.6438 371.435 20.6438H398.808C399.014 20.6438 399.176 20.806 399.176 21.0125C399.162 21.219 398.999 21.3812 398.793 21.3812Z" fill="#E2E2E2"/>
<path d="M398.793 28.6225H371.435C371.229 28.6225 371.066 28.4603 371.066 28.2538C371.066 28.0474 371.229 27.8851 371.435 27.8851H398.808C399.014 27.8851 399.176 28.0474 399.176 28.2538C399.176 28.4603 398.999 28.6225 398.793 28.6225Z" fill="#E2E2E2"/>
<path d="M398.793 35.849H371.435C371.229 35.849 371.066 35.6868 371.066 35.4803C371.066 35.2739 371.229 35.1116 371.435 35.1116H398.808C399.014 35.1116 399.176 35.2739 399.176 35.4803C399.176 35.6868 398.999 35.849 398.793 35.849Z" fill="#E2E2E2"/>
<path d="M398.793 43.0904H371.435C371.229 43.0904 371.066 42.9282 371.066 42.7217C371.066 42.5153 371.229 42.353 371.435 42.353H398.808C399.014 42.353 399.176 42.5153 399.176 42.7217C399.176 42.9282 398.999 43.0904 398.793 43.0904Z" fill="#E2E2E2"/>
<path d="M398.793 50.3317H371.435C371.229 50.3317 371.066 50.1695 371.066 49.963C371.066 49.7565 371.229 49.5943 371.435 49.5943H398.808C399.014 49.5943 399.176 49.7565 399.176 49.963C399.176 50.1695 398.999 50.3317 398.793 50.3317Z" fill="#E2E2E2"/>
</g>
<g opacity="0.3">
<path d="M389.883 1.23529H388.866H362.334V60.5669H407.891V20.2751V19.2427V1.23529H389.883Z" fill="#606161"/>
<path d="M407.891 1.23529H362.334V12.6061H407.891V1.23529Z" fill="#606161"/>
<path d="M398.793 21.3812H371.435C371.229 21.3812 371.066 21.219 371.066 21.0125C371.066 20.806 371.229 20.6438 371.435 20.6438H398.808C399.014 20.6438 399.176 20.806 399.176 21.0125C399.162 21.219 398.999 21.3812 398.793 21.3812Z" fill="#606161"/>
<path d="M398.793 28.6225H371.435C371.229 28.6225 371.066 28.4603 371.066 28.2538C371.066 28.0474 371.229 27.8851 371.435 27.8851H398.808C399.014 27.8851 399.176 28.0474 399.176 28.2538C399.176 28.4603 398.999 28.6225 398.793 28.6225Z" fill="#606161"/>
<path d="M398.793 35.849H371.435C371.229 35.849 371.066 35.6868 371.066 35.4803C371.066 35.2739 371.229 35.1116 371.435 35.1116H398.808C399.014 35.1116 399.176 35.2739 399.176 35.4803C399.176 35.6868 398.999 35.849 398.793 35.849Z" fill="#606161"/>
<path d="M398.793 43.0904H371.435C371.229 43.0904 371.066 42.9282 371.066 42.7217C371.066 42.5153 371.229 42.353 371.435 42.353H398.808C399.014 42.353 399.176 42.5153 399.176 42.7217C399.176 42.9282 398.999 43.0904 398.793 43.0904Z" fill="#606161"/>
<path d="M398.793 50.3317H371.435C371.229 50.3317 371.066 50.1695 371.066 49.963C371.066 49.7565 371.229 49.5943 371.435 49.5943H398.808C399.014 49.5943 399.176 49.7565 399.176 49.963C399.176 50.1695 398.999 50.3317 398.793 50.3317Z" fill="#606161"/>
</g>
<path d="M191.505 0.778015H190.311H159.207V70.3596H212.639V23.0919V21.8973V0.778015H191.505Z" fill="#ECECEC"/>
<path d="M212.639 0.778015H159.207V14.1251H212.639V0.778015Z" fill="#F3B41B"/>
<path d="M201.962 24.4045H169.855C169.619 24.4045 169.428 24.2128 169.428 23.9768C169.428 23.7409 169.619 23.5491 169.855 23.5491H201.962C202.198 23.5491 202.39 23.7409 202.39 23.9768C202.404 24.2128 202.213 24.4045 201.962 24.4045Z" fill="#E2E2E2"/>
<path d="M201.962 32.8846H169.855C169.619 32.8846 169.428 32.6929 169.428 32.4569C169.428 32.221 169.619 32.0292 169.855 32.0292H201.962C202.198 32.0292 202.39 32.221 202.39 32.4569C202.39 32.6929 202.213 32.8846 201.962 32.8846Z" fill="#E2E2E2"/>
<path d="M201.962 41.3796H169.855C169.619 41.3796 169.428 41.1878 169.428 40.9519C169.428 40.7159 169.619 40.5242 169.855 40.5242H201.962C202.198 40.5242 202.39 40.7159 202.39 40.9519C202.39 41.1878 202.213 41.3796 201.962 41.3796Z" fill="#E2E2E2"/>
<path d="M201.962 49.8745H169.855C169.619 49.8745 169.428 49.6828 169.428 49.4468C169.428 49.2108 169.619 49.0191 169.855 49.0191H201.962C202.198 49.0191 202.39 49.2108 202.39 49.4468C202.39 49.6828 202.213 49.8745 201.962 49.8745Z" fill="#E2E2E2"/>
<path d="M201.962 58.3546H169.855C169.619 58.3546 169.428 58.1629 169.428 57.9269C169.428 57.6909 169.619 57.4992 169.855 57.4992H201.962C202.198 57.4992 202.39 57.6909 202.39 57.9269C202.39 58.1629 202.213 58.3546 201.962 58.3546Z" fill="#E2E2E2"/>
<path d="M534.354 148.466C534.737 148.082 535.268 147.846 535.858 147.846C537.023 147.846 537.982 148.79 537.982 149.97V157.639C537.982 158.804 537.038 159.763 535.858 159.763C534.693 159.763 533.734 158.819 533.734 157.639V149.97C533.734 149.38 533.97 148.849 534.354 148.466Z" fill="#F3B41B"/>
<path d="M544.059 142.581C544.885 141.755 546.227 141.755 547.053 142.581L552.48 148.008C553.306 148.834 553.306 150.176 552.48 151.002C551.654 151.828 550.312 151.828 549.486 151.002L544.059 145.575C543.233 144.764 543.233 143.422 544.059 142.581Z" fill="#F3B41B"/>
<path d="M549.942 132.877C550.325 132.493 550.856 132.258 551.446 132.258H559.115C560.28 132.258 561.239 133.201 561.239 134.381C561.239 135.546 560.295 136.505 559.115 136.505H551.446C550.281 136.505 549.322 135.561 549.322 134.381C549.322 133.791 549.558 133.26 549.942 132.877Z" fill="#F3B41B"/>
<path d="M544.059 126.152C543.233 125.326 543.233 123.984 544.059 123.158L549.486 117.731C550.312 116.905 551.654 116.905 552.48 117.731C553.306 118.556 553.306 119.899 552.48 120.724L547.053 126.152C546.227 126.978 544.885 126.978 544.059 126.152Z" fill="#F3B41B"/>
<path d="M534.354 120.282C533.97 119.899 533.734 119.368 533.734 118.778V111.109C533.734 109.944 534.678 108.985 535.858 108.985C537.023 108.985 537.982 109.929 537.982 111.109V118.778C537.982 119.943 537.038 120.901 535.858 120.901C535.268 120.901 534.737 120.665 534.354 120.282Z" fill="#F3B41B"/>
<path d="M525.402 119.485C526.272 121.506 527.069 123.556 527.792 125.606" stroke="#ADDBED" stroke-width="2.54183" stroke-miterlimit="10" stroke-linecap="round"/>
<path d="M531.079 138.363C531.817 142.64 532.185 146.976 532.185 151.356C532.185 227.471 419.244 289.177 279.919 289.177C148.676 289.177 40.8521 234.417 28.7734 164.438" stroke="#ADDBED" stroke-width="2.54183" stroke-miterlimit="10" stroke-linecap="round" stroke-dasharray="13.73 13.73"/>
<path d="M27.9482 157.919C27.7565 155.751 27.668 153.554 27.668 151.356" stroke="#ADDBED" stroke-width="2.54183" stroke-miterlimit="10" stroke-linecap="round"/>
<path d="M507.971 80.4473H506.378H465.068V172.859H536.021V110.091V108.498V80.4473H507.971Z" fill="#ECECEC"/>
<path d="M536.021 80.4473H465.068V98.1745H536.021V80.4473Z" fill="#AF3948"/>
<path d="M521.865 111.816H479.243C478.933 111.816 478.668 111.566 478.668 111.241C478.668 110.917 478.919 110.666 479.243 110.666H521.865C522.175 110.666 522.44 110.917 522.44 111.241C522.44 111.566 522.175 111.816 521.865 111.816Z" fill="#E2E2E2"/>
<path d="M521.865 123.099H479.243C478.933 123.099 478.668 122.848 478.668 122.524C478.668 122.199 478.919 121.948 479.243 121.948H521.865C522.175 121.948 522.44 122.199 522.44 122.524C522.44 122.848 522.175 123.099 521.865 123.099Z" fill="#E2E2E2"/>
<path d="M521.865 134.366H479.243C478.933 134.366 478.668 134.116 478.668 133.791C478.668 133.481 478.919 133.216 479.243 133.216H521.865C522.175 133.216 522.44 133.467 522.44 133.791C522.44 134.116 522.175 134.366 521.865 134.366Z" fill="#E2E2E2"/>
<path d="M521.865 145.649H479.243C478.933 145.649 478.668 145.398 478.668 145.073C478.668 144.749 478.919 144.498 479.243 144.498H521.865C522.175 144.498 522.44 144.749 522.44 145.073C522.44 145.398 522.175 145.649 521.865 145.649Z" fill="#E2E2E2"/>
<path d="M521.865 156.916H479.243C478.933 156.916 478.668 156.666 478.668 156.341C478.668 156.017 478.919 155.766 479.243 155.766H521.865C522.175 155.766 522.44 156.017 522.44 156.341C522.44 156.666 522.175 156.916 521.865 156.916Z" fill="#E2E2E2"/>
<mask id="mask0_3360_10042" style="mask-type:luminance" maskUnits="userSpaceOnUse" x="27" y="13" width="506" height="277">
<path d="M525.403 119.486C499.077 58.7381 399.159 13.5352 279.921 13.5352C140.595 13.5352 27.6543 75.2412 27.6543 151.356C27.6543 227.471 140.595 289.177 279.921 289.177C419.246 289.177 532.187 227.471 532.187 151.356C532.187 140.384 529.842 129.706 525.403 119.486Z" fill="white"/>
</mask>
<g mask="url(#mask0_3360_10042)">
<path d="M367.242 119.618L372.286 134.175L368.746 145.442L333.439 125.105L331.758 100.696L367.242 119.618Z" fill="#6F453A"/>
<path d="M419.463 288.351C418.755 281.066 417.959 273.072 417.089 264.71C412.148 217.31 404.744 157.668 397.695 144.38C396.043 141.269 388.389 135.989 384.879 135.325C380.041 134.411 372.269 134.189 372.269 134.189L366.93 140.295L352.005 130.222L324.249 135.296C324.249 135.296 316.536 140.944 313.1 142.434C300.667 147.817 294.37 213.726 291.302 266.775C290.904 273.633 290.564 280.269 290.27 286.537" fill="#B69468"/>
<path d="M419.461 288.351C417.956 273.883 416.496 259.416 414.815 244.962C413.149 230.509 411.408 216.071 409.403 201.677C408.385 194.48 407.338 187.283 406.129 180.115C404.949 172.947 403.636 165.795 401.984 158.716C401.601 156.946 401.129 155.191 400.642 153.436C400.215 151.666 399.61 149.97 399.035 148.244C398.784 147.374 398.356 146.578 398.017 145.737L397.471 144.498C397.25 144.13 397.014 143.761 396.734 143.422C395.598 142.05 394.197 140.885 392.767 139.808C391.321 138.732 389.788 137.758 388.21 136.918C387.413 136.505 386.602 136.107 385.761 135.841C384.935 135.561 384.036 135.458 383.136 135.31C379.552 134.824 375.924 134.602 372.296 134.47L372.532 134.366L367.193 140.487L367.017 140.693L366.795 140.546L351.87 130.488L352.106 130.532L324.336 135.561L324.453 135.517C321.725 137.478 318.967 139.395 316.091 141.151C315.369 141.593 314.631 142.006 313.879 142.389C313.481 142.566 313.112 142.758 312.773 142.965C312.434 143.156 312.08 143.348 311.8 143.658C310.546 144.69 309.661 146.15 308.835 147.566C305.738 153.465 304.131 160.058 302.597 166.561C299.736 179.658 297.936 192.975 296.417 206.293C294.913 219.625 293.792 232.987 292.775 246.364C292.273 253.059 291.831 259.74 291.418 266.436L290.297 286.523L291.285 266.421C291.654 259.725 292.052 253.03 292.509 246.334C293.409 232.943 294.559 219.581 296.019 206.234C297.509 192.902 299.264 179.569 302.11 166.444C303.629 159.925 305.222 153.318 308.363 147.3C309.204 145.84 310.104 144.351 311.431 143.23C311.726 142.906 312.109 142.699 312.493 142.478C312.876 142.242 313.245 142.05 313.614 141.888C314.351 141.519 315.074 141.106 315.782 140.679C318.628 138.938 321.386 137.021 324.1 135.06L324.159 135.015L324.218 135.001L351.959 129.898L352.091 129.868L352.195 129.942L367.12 140.015L366.707 140.074L372.06 133.968L372.149 133.865H372.296C375.939 134.012 379.582 134.234 383.195 134.735C384.095 134.868 385.009 134.986 385.909 135.296C386.794 135.59 387.62 135.989 388.446 136.416C390.068 137.287 391.602 138.275 393.076 139.366C394.536 140.472 395.952 141.652 397.132 143.083C397.427 143.436 397.693 143.835 397.929 144.248L398.474 145.516C398.828 146.357 399.256 147.182 399.507 148.067C400.082 149.808 400.672 151.533 401.114 153.303C401.601 155.058 402.058 156.828 402.441 158.598C404.079 165.691 405.376 172.859 406.556 180.041C407.751 187.224 408.783 194.421 409.786 201.618C411.748 216.027 413.503 230.48 415.081 244.933C416.688 259.386 418.06 273.869 419.461 288.351Z" fill="#1B2E35"/>
<path d="M290.27 286.523C304.796 291.301 329.721 294.472 358.037 294.472C382.593 294.472 404.582 292.097 419.463 288.351" fill="#B69468"/>
<path d="M366.947 140.28L368.466 158.45L369.749 176.634C370.561 188.757 371.313 200.895 371.962 213.033C372.507 225.17 373.023 237.323 373.304 249.475C373.451 255.552 373.584 261.628 373.628 267.704C373.672 273.78 373.569 279.856 373.481 285.933C373.466 279.856 373.436 273.78 373.274 267.704C373.186 261.628 373.023 255.552 372.832 249.475C372.463 237.323 371.873 225.185 371.239 213.048C370.679 200.91 370 188.772 369.277 176.634L366.947 140.28Z" fill="#1B2E35"/>
<path d="M378.477 64.6521L383.358 105.342C383.358 105.342 385.571 133.644 350.5 120.267C350.5 120.267 334.439 114.707 331.401 104.354C331.401 104.354 322.331 106.419 320.856 98.2336C319.381 90.0484 326.814 88.0131 329.424 89.2815L324.071 55.8328L378.049 56.3932L378.477 64.6521Z" fill="#AF7462"/>
<path d="M366.945 140.28L354.085 133.157L348.422 146.504L328.969 132.965L332.862 120.592L355.161 129.514L366.945 140.28Z" fill="#E1E2E1"/>
<path d="M366.945 140.28L370.913 130.207L378.847 135.428L376.62 139.189L372.284 134.175L366.945 140.28Z" fill="#E1E2E1"/>
<path d="M354.161 79.1791C352.214 78.6776 350.371 78.6039 348.571 78.9136C347.672 79.0906 346.787 79.3265 345.902 79.6658C345.017 79.9902 344.147 80.4032 343.203 80.7866C343.808 79.9755 344.575 79.2823 345.46 78.7514C346.33 78.1909 347.333 77.8517 348.35 77.6305C350.4 77.3061 352.686 77.7337 354.161 79.1791Z" fill="#1B2E35"/>
<path d="M377.05 76.4507C375.354 76.2295 373.85 76.2885 372.331 76.5392C371.579 76.672 370.827 76.8489 370.075 77.0849C369.308 77.3061 368.555 77.6011 367.715 77.8223C368.762 76.4507 370.384 75.5806 372.11 75.2562C372.98 75.1234 373.88 75.1234 374.735 75.3151C375.576 75.4921 376.416 75.8461 377.05 76.4507Z" fill="#1B2E35"/>
<path d="M371.521 104.384C371.83 105.106 371.816 105.976 371.609 106.773C371.373 107.569 370.946 108.307 370.385 108.926L370.311 109.015L370.149 109.059C368.969 109.383 367.804 109.575 366.595 109.693C365.4 109.811 364.191 109.826 362.982 109.708C361.772 109.575 360.563 109.369 359.427 108.897C358.292 108.439 357.23 107.761 356.463 106.847C357.495 107.451 358.572 107.835 359.678 108.085C360.784 108.351 361.92 108.425 363.055 108.484C365.327 108.572 367.642 108.395 369.913 108.085L369.677 108.218C370.754 107.274 371.58 105.962 371.521 104.384Z" fill="#1B2E35"/>
<path d="M364.146 85.0342C366.742 86.9514 369.072 89.1784 371.078 91.7593C371.55 92.423 372.037 93.1014 372.391 93.8978C372.553 94.3108 372.745 94.7237 372.656 95.3579C372.641 95.5053 372.553 95.6823 372.464 95.8298C372.376 95.933 372.302 96.0068 372.228 96.0953C372.066 96.2722 371.874 96.3902 371.698 96.523C370.208 97.4816 368.527 97.6438 366.919 97.6143C368.468 97.2309 370.031 96.7147 371.181 95.8298C371.299 95.7118 371.447 95.5938 371.55 95.4611L371.698 95.2694C371.698 95.2399 371.712 95.2399 371.712 95.1809C371.742 95.0039 371.609 94.6499 371.447 94.3402C371.137 93.6913 370.68 93.0424 370.208 92.423C368.291 89.9306 366.137 87.5709 364.146 85.0342Z" fill="#1B2E35"/>
<path d="M373.318 86.2139C374.646 86.2139 375.722 85.1377 375.722 83.81C375.722 82.4823 374.646 81.4061 373.318 81.4061C371.99 81.4061 370.914 82.4823 370.914 83.81C370.914 85.1377 371.99 86.2139 373.318 86.2139Z" fill="#1B2E35"/>
<path d="M351.402 89.2963C352.73 89.2963 353.806 88.2201 353.806 86.8924C353.806 85.5648 352.73 84.4885 351.402 84.4885C350.074 84.4885 348.998 85.5648 348.998 86.8924C348.998 88.2201 350.074 89.2963 351.402 89.2963Z" fill="#1B2E35"/>
<path d="M343.601 63.0594C343.601 63.0594 347.671 68.3245 356.21 67.8821L353.983 65.0947C353.983 65.0947 358.01 68.59 368.333 68.295C378.657 68 379.38 72.336 379.38 72.336C379.38 72.336 385.131 61.5551 380.22 51.5854C375.309 41.6157 367.699 39.8312 367.699 39.8312C367.699 39.8312 368.997 39.0348 369.97 36.6013C369.97 36.6013 362.832 38.3416 353.924 37.324C345.002 36.3064 321.67 36.7046 319.34 47.5002C319.34 47.5002 312.099 49.4764 312.379 55.3462C312.659 61.2012 323.647 90.3434 323.647 90.3434C323.647 90.3434 324.723 88.6031 329.266 89.2668C329.266 89.2668 331.271 95.0481 331.979 95.1218C332.702 95.1956 335.799 93.1898 335.416 91.0808C335.032 88.9718 332.731 80.7129 333.97 76.7752C333.97 76.7752 334.472 79.5626 337.48 74.445C340.504 69.3569 344.176 68.8112 343.601 63.0594Z" fill="#1B2E35"/>
<path d="M468.354 182.858C471.57 177.416 467.72 175.425 467.72 175.425C469.151 174.57 467.72 171.989 467.72 171.989C467.72 171.989 464.004 167.977 461.998 167.977C459.992 167.977 444.831 173.98 443.401 175.13C441.97 176.281 426.809 197.739 426.809 197.739L367.005 224.064L358.142 193.728C346.122 152.816 323.233 175.41 323.233 175.41L318.086 200.88C318.086 200.88 337.258 238.931 340.975 244.653C344.692 250.375 350.989 258.383 356.711 260.389C362.433 262.395 376.459 252.381 376.459 252.381L436.159 211.322C445.583 212.487 456.246 197.503 456.246 197.503L462.942 193.388C460.744 195.394 462.942 198.506 462.942 198.506L466.703 196.382L469.637 188.271C470.685 185.719 468.354 182.858 468.354 182.858Z" fill="#AF7462"/>
<path d="M324.263 135.281C324.263 135.281 341.975 134.779 346.783 151.43C351.591 168.081 363.803 209.641 363.803 209.641L325.974 227.383C325.974 227.383 302.347 180.971 303.188 170.75C304.014 160.53 303.144 153.082 308.011 147.463C314.116 140.384 324.263 135.281 324.263 135.281Z" fill="#B69468"/>
<path d="M324.264 135.281C328.04 135.296 331.786 136.166 335.222 137.714C338.673 139.263 341.682 141.77 343.82 144.897C346.018 148.009 347.021 151.755 348.068 155.338L351.254 166.193L364.011 209.582L364.07 209.774L363.893 209.862L326.078 227.634L325.857 227.737L325.754 227.516C321.787 219.611 317.982 211.647 314.354 203.594C310.77 195.527 307.216 187.415 304.561 178.965C303.927 176.841 303.337 174.703 303.086 172.49C302.939 171.37 303.071 170.249 303.145 169.157L303.337 165.854C303.455 163.656 303.543 161.444 303.75 159.232C303.942 157.034 304.266 154.822 304.974 152.713C305.652 150.604 306.788 148.628 308.307 147.006C309.797 145.369 311.434 143.864 313.159 142.478C316.61 139.705 320.356 137.316 324.264 135.281ZM324.264 135.281C320.371 137.36 316.654 139.779 313.233 142.567C311.522 143.968 309.9 145.472 308.44 147.109C306.935 148.716 305.844 150.678 305.195 152.772C303.868 156.975 303.897 161.459 303.647 165.854L303.455 169.157C303.381 170.263 303.248 171.355 303.396 172.431C303.632 174.599 304.237 176.738 304.871 178.847C307.54 187.253 311.109 195.35 314.722 203.402C318.38 211.44 322.214 219.389 326.196 227.265L325.857 227.147L363.701 209.42L363.583 209.685L350.959 166.252L347.802 155.397C346.755 151.784 345.811 148.097 343.658 144.985C341.564 141.873 338.6 139.351 335.193 137.788C331.771 136.225 328.025 135.325 324.264 135.281Z" fill="#1B2E35"/>
<path d="M324.255 135.237C331.747 135.237 339.623 138.393 343.929 144.823C346.141 147.964 347.144 151.725 348.206 155.309L351.421 166.149L363.942 209.611L363.972 209.729L363.868 209.773L344.976 218.681L326.098 227.648L325.863 227.766L325.745 227.53C321.718 219.669 317.884 211.705 314.241 203.653C310.628 195.586 307.073 187.489 304.389 179.024C303.755 176.9 303.136 174.747 302.929 172.505L302.855 170.794L302.988 169.142L303.209 165.839C303.519 161.459 303.504 156.946 304.905 152.684C306.218 148.289 309.802 145.221 313.15 142.434C316.586 139.661 320.317 137.287 324.255 135.237Z" fill="#B69468"/>
<path d="M324.254 135.237C328.03 135.222 331.835 135.989 335.286 137.552C338.737 139.115 341.849 141.534 343.987 144.705C346.229 147.817 347.276 151.563 348.338 155.176L351.597 166.045L364.236 209.641L364.295 209.862L364.089 209.965L325.995 228.032L325.729 228.164L325.596 227.899L318.915 213.977L315.582 207.016C314.447 204.7 313.37 202.37 312.353 200.01C310.273 195.306 308.267 190.557 306.483 185.734C305.583 183.315 304.743 180.882 304.005 178.419C303.282 175.956 302.634 173.39 302.663 170.809V170.794L303.43 159.6C303.592 157.727 303.858 155.869 304.344 154.04C304.816 152.226 305.509 150.427 306.601 148.893C307.677 147.345 308.975 145.973 310.376 144.72C311.777 143.466 313.208 142.257 314.727 141.165C317.721 138.894 320.936 136.947 324.254 135.237ZM324.254 135.237C320.951 136.977 317.765 138.968 314.771 141.21C311.836 143.496 308.902 145.914 306.778 148.982C305.731 150.516 305.052 152.271 304.61 154.07C304.153 155.869 303.902 157.727 303.74 159.586L303.017 170.78V170.75C303.002 173.331 303.636 175.809 304.359 178.272C305.111 180.72 305.952 183.153 306.852 185.557C308.651 190.365 310.671 195.099 312.766 199.789C313.798 202.149 314.874 204.479 316.01 206.78L319.373 213.726L326.098 227.604L325.7 227.471L344.739 218.416L363.823 209.464L363.676 209.788L351.199 166.149L347.984 155.265C346.922 151.651 345.934 147.935 343.766 144.838C341.687 141.696 338.634 139.248 335.212 137.67C331.82 136.062 328.03 135.266 324.254 135.237Z" fill="#1B2E35"/>
<path d="M112.689 165.382C111.686 162.373 105.374 144.484 104.164 142.257C102.955 140.03 84.682 126.771 84.7263 128.453C84.7705 130.134 83.3547 130.96 88.1036 134.706C92.8525 138.452 96.7312 143.289 96.7312 143.289C96.7312 143.289 91.7611 139.484 89.4899 138.526C87.2187 137.567 83.7529 135.355 83.3547 135.959C82.9565 136.579 82.4846 138.835 87.2482 141.637C92.0118 144.44 94.519 148.554 94.519 148.554C94.519 148.554 91.6284 145.885 89.7554 145.28C87.8824 144.675 84.0921 142.729 83.6349 143.083C83.1777 143.437 82.4403 146.711 87.2777 148.333L91.7759 152.138C91.7759 152.138 87.6022 149.38 84.4756 148.554C84.4756 148.554 83.6202 150 86.5698 151.961C89.5194 153.923 92.882 157.02 92.882 157.02C92.882 157.02 90.8762 172.431 101.657 175.499L108.146 194.509L124.281 185.351C124.295 185.38 113.706 168.39 112.689 165.382Z" fill="#FBBF9D"/>
<path d="M107.587 156.164C105.419 154.911 103.236 153.701 101.098 152.404L101.142 152.418C98.8706 151.622 96.5994 150.855 94.3577 150.029L94.7116 149.941C94.0922 150.766 93.8857 151.976 94.4167 152.905C94.9033 153.849 95.862 154.542 96.8353 155.088C97.322 155.338 97.853 155.663 98.3986 155.987C98.8706 156.385 99.3573 156.784 99.7112 157.3C100.449 158.288 100.935 159.409 101.289 160.544C102.071 162.771 102.528 165.087 103.664 167.107C104.755 169.128 106.392 170.898 108.457 172.033C106.348 171.016 104.49 169.379 103.295 167.299C102.056 165.249 101.451 162.919 100.685 160.736C100.316 159.63 99.8439 158.583 99.1655 157.698C98.8411 157.241 98.4134 156.887 97.9857 156.548C97.5138 156.268 97.0418 155.987 96.4814 155.707C95.4343 155.117 94.3871 154.365 93.7972 153.2C93.1778 152.02 93.4138 150.545 94.2102 149.528L94.3429 149.351L94.5641 149.424C96.8206 150.25 99.0476 151.135 101.289 152.005L101.319 152.02L101.334 152.035C103.428 153.377 105.492 154.793 107.587 156.164Z" fill="#F89E71"/>
<path d="M249.212 131.668C249.212 131.668 260.096 139.455 258.355 148.023C256.615 156.592 249.212 162.137 237.561 161.356C225.91 160.574 224.848 145.147 224.848 145.147L249.212 131.668Z" fill="#263238"/>
<path d="M196.34 92.7917C196.34 92.7917 203.67 76.1115 228.034 80.0935C252.397 84.0755 259.535 96.11 258.208 117.613C256.881 139.115 244.168 151.165 235.437 151.356C226.706 151.548 199.068 130.901 196.34 92.7917Z" fill="#263238"/>
<path d="M222.163 179.156L227.841 184.82C227.841 184.82 225.91 190.38 213.816 198.019C201.723 205.659 149.323 240.037 139.648 236.35C129.973 232.663 98.7366 193.506 96.9668 186.648L115.372 167.859L147.302 198.55C147.302 198.55 178.863 173.198 190.794 170.396C202.725 167.594 201.944 173.891 222.163 179.156Z" fill="#B69468"/>
<path d="M222.164 179.156L227.872 184.79L227.886 184.805L227.872 184.82C227.164 186.457 226.028 187.858 224.863 189.185C223.683 190.512 222.385 191.722 221.043 192.872C218.344 195.173 215.395 197.149 212.401 199.037C206.457 202.871 200.514 206.706 194.497 210.437C182.462 217.87 170.339 225.215 157.582 231.424C154.382 232.943 151.137 234.403 147.775 235.538C146.093 236.099 144.368 236.6 142.569 236.807C141.669 236.895 140.74 236.939 139.825 236.674C138.926 236.379 138.159 235.922 137.392 235.45C134.413 233.459 131.832 230.996 129.281 228.533C126.759 226.041 124.325 223.46 121.951 220.82C117.217 215.555 112.689 210.098 108.338 204.508C106.17 201.706 104.047 198.86 102.026 195.955C101.008 194.494 100.02 193.02 99.0912 191.515C98.1768 189.982 97.2182 188.492 96.643 186.707L96.584 186.53L96.7315 186.383L115.167 167.653L115.373 167.446L115.58 167.653L147.48 198.373L147.155 198.358C152.73 193.949 158.408 189.672 164.204 185.542C170 181.442 175.885 177.416 182.123 173.965C185.25 172.313 188.465 170.617 192.019 169.998C193.774 169.659 195.573 169.482 197.358 169.659C199.142 169.821 200.853 170.44 202.461 171.207C205.661 172.77 208.758 174.496 212.062 175.809C215.336 177.165 218.728 178.242 222.164 179.156ZM222.164 179.156C218.728 178.272 215.321 177.21 212.017 175.882C208.699 174.599 205.573 172.888 202.372 171.355C200.765 170.617 199.083 170.013 197.314 169.865C195.559 169.688 193.789 169.895 192.048 170.234C188.553 170.868 185.382 172.579 182.27 174.245C176.076 177.711 170.207 181.723 164.425 185.852C158.659 189.996 152.995 194.288 147.435 198.712L147.273 198.845L147.126 198.698L115.167 168.051H115.58L97.2182 186.87L97.3066 186.545C97.8228 188.138 98.7815 189.672 99.6958 191.161C100.625 192.651 101.613 194.111 102.631 195.556C104.651 198.447 106.775 201.279 108.928 204.081C113.249 209.67 117.748 215.127 122.467 220.392C124.827 223.017 127.231 225.613 129.738 228.091C132.26 230.554 134.826 233.002 137.731 234.963L138.852 235.627C139.236 235.789 139.619 236.025 140.017 236.128C140.799 236.364 141.684 236.35 142.539 236.246C144.265 236.055 145.961 235.568 147.627 235.022C150.96 233.901 154.205 232.471 157.39 230.966C170.118 224.817 182.256 217.501 194.32 210.113L212.298 198.83C215.306 196.957 218.256 195.011 220.97 192.754C222.312 191.619 223.624 190.424 224.804 189.111C225.969 187.799 227.119 186.412 227.827 184.805L227.842 184.834L222.164 179.156Z" fill="#1B2E35"/>
<path d="M274.326 301.3C271.922 291.183 269.709 281.744 268.235 275.329C267.246 271.037 266.598 268.073 266.465 267.217C265.654 262.041 274.783 177.106 272.335 174.658C269.886 172.21 261.627 170.16 255.625 169.423C239.491 167.446 191.087 168.936 191.087 168.936C191.087 168.936 183.92 170.013 183.315 173.257C176.133 211.853 181.707 264.946 182.253 272.836C182.327 274.001 181.958 276.405 181.265 279.635C180.321 284.015 178.817 289.915 177.018 296.419" fill="#B69468"/>
<path d="M274.325 301.3L268.219 275.757L266.788 269.341C266.582 268.279 266.199 267.203 266.257 266.082C266.257 264.976 266.302 263.884 266.361 262.793C266.582 258.413 266.936 254.047 267.275 249.682C268.676 232.22 270.284 214.788 271.537 197.326C271.847 192.961 272.127 188.595 272.319 184.23C272.407 182.047 272.481 179.864 272.437 177.682C272.422 177.136 272.407 176.605 272.363 176.059C272.289 175.573 272.289 174.909 271.98 174.732C271.213 174.054 270.239 173.552 269.251 173.11C265.269 171.428 260.948 170.529 256.642 169.88C252.321 169.334 247.955 169.142 243.575 168.98C226.084 168.538 208.563 168.789 191.072 169.231H191.101C189.759 169.452 188.417 169.791 187.149 170.293C185.91 170.78 184.612 171.428 183.919 172.49C183.727 172.756 183.653 173.036 183.565 173.346L183.403 174.378L183.063 176.428L182.385 180.528L181.382 188.787C181.146 191.56 180.866 194.318 180.674 197.09C179.907 208.166 179.76 219.286 179.981 230.391C180.188 241.497 180.807 252.602 181.618 263.678L182.267 271.996C182.459 273.382 182.223 274.798 182.002 276.169C181.751 277.541 181.5 278.913 181.161 280.255L177.002 296.404L181.028 280.225C181.367 278.883 181.603 277.512 181.839 276.14C182.046 274.768 182.267 273.397 182.075 272.011L181.367 263.707C180.438 252.632 179.819 241.526 179.568 230.406C179.317 219.286 179.435 208.151 180.173 197.061C180.35 194.288 180.63 191.515 180.851 188.743L181.839 180.454L182.503 176.325L182.842 174.26L183.004 173.228C183.108 172.859 183.211 172.476 183.432 172.166C184.288 170.883 185.659 170.234 186.942 169.718C188.27 169.201 189.626 168.862 191.027 168.612H191.042H191.057C208.563 168.14 226.084 167.756 243.604 168.287C247.985 168.464 252.365 168.671 256.73 169.231C261.066 169.909 265.402 170.809 269.487 172.549C270.49 173.006 271.508 173.523 272.378 174.29L272.54 174.437C272.599 174.526 272.658 174.614 272.702 174.703C272.747 174.85 272.806 175.012 272.82 175.145C272.879 175.44 272.909 175.705 272.938 175.986C272.983 176.546 273.012 177.092 273.012 177.652C273.042 179.85 272.968 182.047 272.865 184.23C272.658 188.61 272.363 192.975 272.054 197.341C270.756 214.803 269.104 232.235 267.644 249.682C267.29 254.047 266.936 258.413 266.656 262.778C266.597 263.87 266.538 264.961 266.523 266.052C266.449 267.144 266.818 268.176 267.01 269.267L268.396 275.683L274.325 301.3Z" fill="#1B2E35"/>
<path d="M207.444 176.163C206.809 181.398 206.264 186.648 205.777 191.914C205.276 197.164 204.833 202.429 204.568 207.694C204.302 212.959 204.14 218.239 204.494 223.489C205.084 228.725 205.512 234.005 205.984 239.255C206.397 244.52 206.765 249.785 207.09 255.065C207.37 260.345 207.724 265.61 207.576 270.919C207.193 276.184 207.458 281.449 207.768 286.729C208.048 291.994 208.446 297.259 208.918 302.524C208.329 297.274 207.812 292.024 207.414 286.759C207.06 281.494 206.765 276.199 207.104 270.904C207.208 265.654 206.824 260.374 206.5 255.109C206.146 249.844 205.718 244.579 205.276 239.329C204.848 234.064 204.465 228.813 203.919 223.548C203.609 218.254 203.816 212.959 204.125 207.679C204.73 197.105 205.939 186.604 207.444 176.163Z" fill="#1B2E35"/>
<path d="M204.6 160.397L204.217 175.809L207.919 181.442L235.439 161.09L229.2 131.461L204.6 160.397Z" fill="#F89E71"/>
<path d="M192.652 103.513L192.121 144.528C192.121 144.528 192.932 172.933 226.41 155.884C226.41 155.884 241.793 148.628 243.739 138.009C243.739 138.009 252.987 139.101 253.576 130.797C254.181 122.494 246.556 121.255 244.093 122.804L245.48 104.03L192.195 95.2397L192.652 103.513Z" fill="#FBBF9D"/>
<path d="M207.445 176.163L220.335 169.025L225.998 182.386L245.481 168.848L241.572 156.444L219.259 165.382L207.445 176.163Z" fill="#E1E2E1"/>
<path d="M207.445 176.163L203.477 166.075L195.543 171.296L197.77 175.071L202.106 170.042L207.445 176.163Z" fill="#E1E2E1"/>
<path d="M297.511 298.941C298.189 292.673 298.351 285.682 300.254 273.382C301.832 263.162 286.096 205.585 281.745 191.973C277.394 178.36 272.483 175.086 272.483 175.086L265.581 179.171C255.405 197.415 255.611 209.39 255.331 221.646C255.066 233.902 265.581 256.496 265.581 256.496L265.198 307.229" fill="#B69468"/>
<path d="M297.512 298.941C298.028 293.602 298.294 288.234 298.898 282.895C299.178 280.225 299.518 277.556 299.901 274.901C300.152 273.574 300.167 272.247 300.211 270.919C300.078 269.592 300.034 268.25 299.842 266.923C299.178 261.598 298.087 256.348 296.981 251.098C295.86 245.847 294.621 240.627 293.338 235.421C290.772 224.994 287.985 214.626 285.079 204.302C283.575 199.155 282.174 193.964 280.345 188.935C279.416 186.427 278.354 183.979 277.056 181.649C275.759 179.363 274.269 177.033 272.293 175.425L272.661 175.44L265.759 179.525L265.892 179.393C262.633 185.262 259.89 191.427 258.149 197.901C256.365 204.376 255.834 211.116 255.701 217.826C255.686 219.507 255.568 221.203 255.642 222.855L255.686 224.109L255.819 225.348C255.893 226.173 256.011 227.014 256.173 227.825C256.733 231.129 257.574 234.388 258.577 237.589C260.583 244.004 263.031 250.287 265.774 256.422L265.789 256.466V256.51L265.184 307.244L265.361 256.51L265.376 256.599C262.588 250.449 260.111 244.181 258.076 237.736C257.058 234.521 256.203 231.247 255.613 227.914C255.45 227.088 255.332 226.247 255.244 225.407L255.096 224.138L255.052 222.87C254.964 221.159 255.082 219.493 255.096 217.811C255.214 211.086 255.716 204.273 257.5 197.724C259.226 191.176 261.969 184.938 265.228 179.024L265.273 178.935L265.361 178.891L272.263 174.806L272.47 174.688L272.632 174.821C274.829 176.635 276.26 178.95 277.587 181.31C278.9 183.684 279.962 186.177 280.891 188.699C282.705 193.787 284.091 198.963 285.581 204.125C288.457 214.478 291.215 224.861 293.736 235.303C294.99 240.523 296.229 245.759 297.32 251.009C298.397 256.274 299.503 261.539 300.122 266.878C300.285 268.206 300.329 269.562 300.447 270.905C300.403 272.261 300.358 273.618 300.093 274.931C299.68 277.585 299.326 280.24 299.002 282.909C298.412 288.248 298.087 293.602 297.512 298.941Z" fill="#1B2E35"/>
<path d="M199.055 128.143C200.269 128.143 201.252 127.159 201.252 125.945C201.252 124.732 200.269 123.748 199.055 123.748C197.841 123.748 196.857 124.732 196.857 125.945C196.857 127.159 197.841 128.143 199.055 128.143Z" fill="#263238"/>
<path d="M219.938 127.066C221.151 127.066 222.135 126.082 222.135 124.869C222.135 123.655 221.151 122.671 219.938 122.671C218.724 122.671 217.74 123.655 217.74 124.869C217.74 126.082 218.724 127.066 219.938 127.066Z" fill="#263238"/>
<path d="M206.192 119.692C205.13 119.441 204.319 119.235 203.552 119.264C203.168 119.264 202.785 119.309 202.372 119.427C201.944 119.53 201.531 119.707 200.971 119.854C201.133 119.323 201.443 118.852 201.9 118.527C202.342 118.158 202.947 117.981 203.522 117.967C204.717 117.952 205.793 118.66 206.192 119.692Z" fill="#263238"/>
<path d="M224.701 118.689C223.639 118.439 222.828 118.232 222.061 118.262C221.678 118.262 221.294 118.306 220.882 118.424C220.454 118.527 220.041 118.704 219.48 118.851C219.643 118.321 219.952 117.849 220.41 117.524C220.852 117.155 221.457 116.978 222.032 116.964C223.226 116.949 224.303 117.657 224.701 118.689Z" fill="#263238"/>
<path d="M208.403 124.869C208.256 128.025 207.799 131.122 207.253 134.19L206.796 136.49C206.589 137.419 206.501 137.626 207.15 137.906C207.754 138.127 208.551 138.127 209.303 138.098C210.07 138.083 210.852 137.965 211.633 137.862C210.911 138.201 210.158 138.422 209.377 138.629C208.595 138.791 207.784 138.939 206.884 138.717C206.663 138.673 206.427 138.54 206.191 138.408C205.97 138.216 205.793 137.98 205.719 137.685C205.616 137.405 205.675 137.154 205.675 136.903L205.763 136.328L206.162 134.013C206.766 130.93 207.43 127.863 208.403 124.869Z" fill="#263238"/>
<path d="M213.474 148.931C216.015 148.641 217.936 147.192 217.765 145.695C217.594 144.198 215.396 143.22 212.855 143.51C210.314 143.8 208.393 145.249 208.564 146.746C208.735 148.243 210.933 149.222 213.474 148.931Z" fill="#AF3948"/>
<path d="M207.285 146.268C208.347 146.342 209.394 146.386 210.427 146.386C211.474 146.371 212.506 146.342 213.524 146.165C215.574 145.9 217.55 145.162 219.039 143.628C218.494 144.543 217.638 145.265 216.694 145.782C215.736 146.298 214.674 146.548 213.612 146.74C211.488 147.006 209.32 146.873 207.285 146.268Z" fill="#263238"/>
<path d="M204.216 102.85C215.13 107.879 225.114 99.4136 232.002 104.708C238.889 110.003 234.907 117.17 237.562 124.574C240.202 131.977 244.095 122.819 244.095 122.819L249.213 112.952C249.213 112.952 254.729 102.289 245.482 95.9625C236.249 89.6208 212.475 84.8572 211.649 85.3881C210.823 85.9191 199.718 82.2173 190.973 92.01C182.242 101.803 186.209 121.049 192.418 122.17C192.418 122.155 192.329 97.3636 204.216 102.85Z" fill="#263238"/>
<path d="M454.963 170.175L475.994 161.179C475.994 161.179 477.985 163.907 475.419 166.296C472.852 168.685 459.004 174.997 459.004 174.997L454.963 170.175Z" fill="#AF7462"/>
<path d="M384.895 135.31C388.301 139.115 390.971 143.525 393.404 148.008C395.838 152.507 397.858 157.211 399.731 161.96C401.589 166.724 403.138 171.591 404.569 176.487C405.247 178.95 405.866 181.413 406.515 183.891L408.138 191.368L406.176 183.979L404.038 176.649C402.504 171.797 400.955 166.945 399.053 162.226C397.239 157.477 395.218 152.802 392.918 148.274L391.148 144.897C390.499 143.805 389.909 142.684 389.23 141.608C387.918 139.41 386.517 137.272 384.895 135.31Z" fill="#1B2E35"/>
</g>
<path d="M63.5242 84.0016H61.9314H20.6367V176.413H91.5751V113.645V112.052V84.0016H63.5242Z" fill="#ECECEC"/>
<path d="M91.5899 84.0016H20.6367V101.729H91.5899V84.0016Z" fill="#F37C4B"/>
<path d="M77.4179 115.371H34.7959C34.4862 115.371 34.2207 115.12 34.2207 114.796C34.2207 114.471 34.4714 114.22 34.7959 114.22H77.4179C77.7276 114.22 77.9931 114.471 77.9931 114.796C77.9931 115.12 77.7276 115.371 77.4179 115.371Z" fill="#E2E2E2"/>
<path d="M77.4179 126.653H34.7959C34.4862 126.653 34.2207 126.402 34.2207 126.078C34.2207 125.768 34.4714 125.503 34.7959 125.503H77.4179C77.7276 125.503 77.9931 125.753 77.9931 126.078C77.9931 126.402 77.7276 126.653 77.4179 126.653Z" fill="#E2E2E2"/>
<path d="M77.4179 137.921H34.7959C34.4862 137.921 34.2207 137.67 34.2207 137.345C34.2207 137.021 34.4714 136.77 34.7959 136.77H77.4179C77.7276 136.77 77.9931 137.021 77.9931 137.345C77.9931 137.67 77.7276 137.921 77.4179 137.921Z" fill="#E2E2E2"/>
<path d="M77.4179 149.203H34.7959C34.4862 149.203 34.2207 148.952 34.2207 148.628C34.2207 148.303 34.4714 148.053 34.7959 148.053H77.4179C77.7276 148.053 77.9931 148.303 77.9931 148.628C77.9931 148.952 77.7276 149.203 77.4179 149.203Z" fill="#E2E2E2"/>
<path d="M77.4179 160.471H34.7959C34.4862 160.471 34.2207 160.22 34.2207 159.895C34.2207 159.571 34.4714 159.32 34.7959 159.32H77.4179C77.7276 159.32 77.9931 159.571 77.9931 159.895C77.9931 160.22 77.7276 160.471 77.4179 160.471Z" fill="#E2E2E2"/>
<g opacity="0.7">
<path d="M169.137 246.924H167.692H130.35V330.472H194.489V273.721V272.291V246.924H169.137Z" fill="#ECECEC"/>
<path d="M194.489 246.924H130.35V262.94H194.489V246.924Z" fill="#285891"/>
<path d="M181.686 275.285H143.149C142.869 275.285 142.633 275.049 142.633 274.768C142.633 274.488 142.869 274.252 143.149 274.252H181.686C181.966 274.252 182.202 274.488 182.202 274.768C182.202 275.049 181.966 275.285 181.686 275.285Z" fill="#E2E2E2"/>
<path d="M181.686 285.475H143.149C142.869 285.475 142.633 285.239 142.633 284.959C142.633 284.679 142.869 284.443 143.149 284.443H181.686C181.966 284.443 182.202 284.679 182.202 284.959C182.202 285.254 181.966 285.475 181.686 285.475Z" fill="#E2E2E2"/>
<path d="M181.686 295.681H143.149C142.869 295.681 142.633 295.445 142.633 295.165C142.633 294.885 142.869 294.649 143.149 294.649H181.686C181.966 294.649 182.202 294.885 182.202 295.165C182.202 295.445 181.966 295.681 181.686 295.681Z" fill="#E2E2E2"/>
<path d="M181.686 305.872H143.149C142.869 305.872 142.633 305.636 142.633 305.356C142.633 305.076 142.869 304.84 143.149 304.84H181.686C181.966 304.84 182.202 305.076 182.202 305.356C182.202 305.636 181.966 305.872 181.686 305.872Z" fill="#E2E2E2"/>
<path d="M181.686 316.063H143.149C142.869 316.063 142.633 315.827 142.633 315.547C142.633 315.266 142.869 315.031 143.149 315.031H181.686C181.966 315.031 182.202 315.266 182.202 315.547C182.202 315.827 181.966 316.063 181.686 316.063Z" fill="#E2E2E2"/>
</g>
<g opacity="0.3">
<path d="M169.137 246.924H167.692H130.35V330.472H194.489V273.721V272.291V246.924H169.137Z" fill="#606161"/>
<path d="M194.489 246.924H130.35V262.94H194.489V246.924Z" fill="#606161"/>
<path d="M181.686 275.285H143.149C142.869 275.285 142.633 275.049 142.633 274.768C142.633 274.488 142.869 274.252 143.149 274.252H181.686C181.966 274.252 182.202 274.488 182.202 274.768C182.202 275.049 181.966 275.285 181.686 275.285Z" fill="#606161"/>
<path d="M181.686 285.475H143.149C142.869 285.475 142.633 285.239 142.633 284.959C142.633 284.679 142.869 284.443 143.149 284.443H181.686C181.966 284.443 182.202 284.679 182.202 284.959C182.202 285.254 181.966 285.475 181.686 285.475Z" fill="#606161"/>
<path d="M181.686 295.681H143.149C142.869 295.681 142.633 295.445 142.633 295.165C142.633 294.885 142.869 294.649 143.149 294.649H181.686C181.966 294.649 182.202 294.885 182.202 295.165C182.202 295.445 181.966 295.681 181.686 295.681Z" fill="#606161"/>
<path d="M181.686 305.872H143.149C142.869 305.872 142.633 305.636 142.633 305.356C142.633 305.076 142.869 304.84 143.149 304.84H181.686C181.966 304.84 182.202 305.076 182.202 305.356C182.202 305.636 181.966 305.872 181.686 305.872Z" fill="#606161"/>
<path d="M181.686 316.063H143.149C142.869 316.063 142.633 315.827 142.633 315.547C142.633 315.266 142.869 315.031 143.149 315.031H181.686C181.966 315.031 182.202 315.266 182.202 315.547C182.202 315.827 181.966 316.063 181.686 316.063Z" fill="#606161"/>
</g>
<g opacity="0.7">
<path d="M424.32 246.57H423.052H390.223V320.001H446.605V270.137V268.869V246.57H424.32Z" fill="#ECECEC"/>
<path d="M446.605 246.57H390.223V260.654H446.605V246.57Z" fill="#1B926B"/>
<path d="M435.351 271.509H401.475C401.224 271.509 401.018 271.303 401.018 271.052C401.018 270.801 401.224 270.595 401.475 270.595H435.351C435.602 270.595 435.808 270.801 435.808 271.052C435.808 271.303 435.602 271.509 435.351 271.509Z" fill="#E2E2E2"/>
<path d="M435.351 280.461H401.475C401.224 280.461 401.018 280.255 401.018 280.004C401.018 279.753 401.224 279.547 401.475 279.547H435.351C435.602 279.547 435.808 279.753 435.808 280.004C435.808 280.255 435.602 280.461 435.351 280.461Z" fill="#E2E2E2"/>
<path d="M435.351 289.428H401.475C401.224 289.428 401.018 289.222 401.018 288.971C401.018 288.72 401.224 288.514 401.475 288.514H435.351C435.602 288.514 435.808 288.72 435.808 288.971C435.808 289.222 435.602 289.428 435.351 289.428Z" fill="#E2E2E2"/>
<path d="M435.351 298.38H401.475C401.224 298.38 401.018 298.174 401.018 297.923C401.018 297.672 401.224 297.466 401.475 297.466H435.351C435.602 297.466 435.808 297.672 435.808 297.923C435.808 298.174 435.602 298.38 435.351 298.38Z" fill="#E2E2E2"/>
<path d="M435.351 307.347H401.475C401.224 307.347 401.018 307.141 401.018 306.89C401.018 306.639 401.224 306.433 401.475 306.433H435.351C435.602 306.433 435.808 306.639 435.808 306.89C435.808 307.141 435.602 307.347 435.351 307.347Z" fill="#E2E2E2"/>
</g>
<g opacity="0.3">
<path d="M424.32 246.57H423.052H390.223V320.001H446.605V270.137V268.869V246.57H424.32Z" fill="#606161"/>
<path d="M446.605 246.57H390.223V260.654H446.605V246.57Z" fill="#606161"/>
<path d="M435.351 271.509H401.475C401.224 271.509 401.018 271.303 401.018 271.052C401.018 270.801 401.224 270.595 401.475 270.595H435.351C435.602 270.595 435.808 270.801 435.808 271.052C435.808 271.303 435.602 271.509 435.351 271.509Z" fill="#606161"/>
<path d="M435.351 280.461H401.475C401.224 280.461 401.018 280.255 401.018 280.004C401.018 279.753 401.224 279.547 401.475 279.547H435.351C435.602 279.547 435.808 279.753 435.808 280.004C435.808 280.255 435.602 280.461 435.351 280.461Z" fill="#606161"/>
<path d="M435.351 289.428H401.475C401.224 289.428 401.018 289.222 401.018 288.971C401.018 288.72 401.224 288.514 401.475 288.514H435.351C435.602 288.514 435.808 288.72 435.808 288.971C435.808 289.222 435.602 289.428 435.351 289.428Z" fill="#606161"/>
<path d="M435.351 298.38H401.475C401.224 298.38 401.018 298.174 401.018 297.923C401.018 297.672 401.224 297.466 401.475 297.466H435.351C435.602 297.466 435.808 297.672 435.808 297.923C435.808 298.174 435.602 298.38 435.351 298.38Z" fill="#606161"/>
<path d="M435.351 307.347H401.475C401.224 307.347 401.018 307.141 401.018 306.89C401.018 306.639 401.224 306.433 401.475 306.433H435.351C435.602 306.433 435.808 306.639 435.808 306.89C435.808 307.141 435.602 307.347 435.351 307.347Z" fill="#606161"/>
</g>
<path d="M82.4743 40.1407C81.3829 40.1407 80.498 39.2558 80.498 38.1644V22.6199C80.498 21.5286 81.3829 20.6437 82.4743 20.6437C83.5656 20.6437 84.4505 21.5286 84.4505 22.6199V38.1644C84.4505 39.2558 83.5656 40.1407 82.4743 40.1407Z" fill="#ADDBED"/>
<path d="M90.2473 32.3684H74.7028C73.6114 32.3684 72.7266 31.4836 72.7266 30.3922C72.7266 29.3008 73.6114 28.416 74.7028 28.416H90.2473C91.3387 28.416 92.2236 29.3008 92.2236 30.3922C92.2236 31.4836 91.3387 32.3684 90.2473 32.3684Z" fill="#ADDBED"/>
<path d="M510.3 256.318C509.209 256.318 508.324 255.433 508.324 254.342V238.798C508.324 237.706 509.209 236.821 510.3 236.821C511.392 236.821 512.277 237.706 512.277 238.798V254.342C512.277 255.433 511.392 256.318 510.3 256.318Z" fill="#ADDBED"/>
<path d="M518.073 248.546H502.529C501.438 248.546 500.553 247.661 500.553 246.57C500.553 245.479 501.438 244.594 502.529 244.594H518.073C519.165 244.594 520.05 245.479 520.05 246.57C520.05 247.661 519.165 248.546 518.073 248.546Z" fill="#ADDBED"/>
<path d="M261.399 70.5366C261.399 65.0356 256.931 60.5669 251.43 60.5669C256.931 60.5669 261.399 56.0982 261.399 50.5972C261.399 56.0982 265.868 60.5669 271.369 60.5669C265.853 60.5669 261.399 65.0208 261.399 70.5366Z" fill="#F3B41B"/>
<path d="M293.684 49.6237C293.684 42.0285 287.519 35.8637 279.924 35.8637C287.519 35.8637 293.684 29.699 293.684 22.1038C293.684 29.699 299.849 35.8637 307.444 35.8637C299.849 35.849 293.684 42.0137 293.684 49.6237Z" fill="#F3B41B"/>
<path d="M34.5573 77.5861C34.0116 77.5861 33.466 77.3797 33.053 76.9667C32.2271 76.1408 32.2271 74.7988 33.053 73.9729L38.4803 68.5456C39.3062 67.7197 40.6483 67.7197 41.4742 68.5456C42.3001 69.3715 42.3001 70.7135 41.4742 71.5394L36.0469 76.9667C35.6487 77.3797 35.103 77.5861 34.5573 77.5861Z" fill="#F3B41B"/>
<path d="M23.5358 74.8725C22.3707 74.8725 21.4121 73.9286 21.4121 72.7488V65.0798C21.4121 63.9147 22.356 62.9561 23.5358 62.9561C24.7157 62.9561 25.6596 63.8999 25.6596 65.0798V72.7488C25.6448 73.9139 24.7009 74.8725 23.5358 74.8725Z" fill="#F3B41B"/>
<path d="M12.5042 77.5861C11.9585 77.5861 11.4275 77.3797 10.9998 76.9667L5.57255 71.5394C4.74665 70.7135 4.74665 69.3715 5.57255 68.5456C6.39844 67.7197 7.74052 67.7197 8.56641 68.5456L13.9937 73.9729C14.8196 74.7988 14.8196 76.1408 13.9937 76.9667C13.5955 77.3797 13.0498 77.5861 12.5042 77.5861Z" fill="#F3B41B"/>
<path d="M11.9165 86.494C11.9165 87.6591 10.9726 88.6178 9.79274 88.6178H2.12373C0.958626 88.6178 0 87.6739 0 86.494C0 85.3289 0.943878 84.3703 2.12373 84.3703H9.79274C10.9578 84.3703 11.9165 85.3142 11.9165 86.494Z" fill="#F3B41B"/>
<path d="M14.6327 97.5108C14.6327 98.0565 14.4262 98.5874 14.0132 99.0151L8.58594 104.442C7.76005 105.268 6.41797 105.268 5.59208 104.442C4.76618 103.616 4.76618 102.274 5.59208 101.449L11.0194 96.0212C11.8453 95.1953 13.1874 95.1953 14.0132 96.0212C14.4262 96.4342 14.6327 96.9651 14.6327 97.5108Z" fill="#F3B41B"/>
</svg>
