<svg width="586" height="333" viewBox="0 0 586 333" fill="none" xmlns="http://www.w3.org/2000/svg">
<path d="M503.657 18.4238H468.029V65.9274H503.657V18.4238Z" fill="white"/>
<path d="M500.096 21.9866H471.594V62.3646H500.096V21.9866Z" fill="#E1E2E1"/>
<path d="M461.047 36.2377V0.609985L413.543 0.609985V36.2377H461.047Z" fill="white"/>
<path d="M457.484 32.6749V4.17273L417.106 4.17273V32.6749H457.484Z" fill="#E1E2E1"/>
<path d="M216.035 65.9274V30.2997L168.532 30.2997V65.9274H216.035Z" fill="white"/>
<path d="M212.473 62.3646V33.8624H172.095V62.3646H212.473Z" fill="#E1E2E1"/>
<path d="M223.814 243.888C223.814 243.888 214.978 238.496 216.32 232.653C217.662 226.81 226.367 222.309 226.367 222.309C226.367 222.309 224.265 235.194 226.367 235.503C228.469 235.812 228.743 224.708 228.161 221.11C228.161 221.11 238.053 215.718 244.787 215.872C244.787 215.872 237.744 227.748 240.037 228.152C242.329 228.556 250.82 214.827 250.82 214.827C250.82 214.827 259.964 213.64 263.111 216.917C266.258 220.195 266.401 230.1 261.924 231.169C257.447 232.237 245.298 231.465 249.929 234.316C254.561 237.166 261.472 235.955 261.472 235.955C261.472 235.955 256.081 246.643 251.426 247.047C246.77 247.45 240.642 241.501 235.547 242.106C230.453 242.712 232.852 244.481 235.096 244.481C238.91 244.791 242.603 245.969 245.891 247.925C248.587 249.873 249.632 252.118 245.143 252.415C240.654 252.711 230.892 253.471 225.655 248.674C224.646 247.26 224.012 245.613 223.814 243.888Z" fill="#ADDBED"/>
<path d="M211.571 220.753C211.571 220.753 221.926 220.753 223.827 215.088C225.727 209.424 220.679 201.027 220.679 201.027C220.679 201.027 215.727 213.105 213.791 212.262C211.856 211.419 217.354 201.811 219.729 199.068C219.729 199.068 214.124 189.294 208.305 185.898C208.305 185.898 208.115 199.674 205.93 198.878C203.744 198.082 203.721 181.872 203.721 181.872C203.721 181.872 196.595 176.064 192.154 177.228C187.712 178.392 182.439 186.729 185.729 189.983C189.018 193.237 199.742 198.937 194.291 198.937C188.84 198.937 183.603 194.306 183.603 194.306C183.603 194.306 182.629 206.182 186.358 209.008C190.087 211.834 198.448 209.922 202.474 213.105C206.5 216.288 203.519 216.561 201.607 215.385C198.217 213.667 194.481 212.741 190.681 212.678C187.368 212.927 185.289 214.293 188.971 216.894C192.652 219.494 200.55 225.207 207.521 223.889C209.116 223.206 210.51 222.126 211.571 220.753Z" fill="#ADDBED"/>
<path d="M214.088 257.521C214.088 257.521 216.522 267.58 211.439 270.763C206.356 273.945 197.034 270.976 197.034 270.976C197.034 270.976 207.627 263.34 206.356 261.654C205.086 259.967 197.034 267.592 194.908 270.549C194.908 270.549 184.101 267.366 179.469 262.497C179.469 262.497 192.818 259.101 191.547 257.2C190.276 255.3 174.458 258.994 174.458 258.994C174.458 258.994 167.154 253.376 167.261 248.816C167.368 244.256 174.256 237.166 178.175 239.6C182.094 242.035 190.146 251.144 188.863 245.847C187.581 240.55 181.868 236.524 181.868 236.524C181.868 236.524 193.21 232.819 196.808 235.788C200.407 238.757 200.513 247.332 204.539 250.514C208.565 253.697 208.102 250.728 206.558 249.137C204.08 246.22 202.301 242.775 201.357 239.066C200.834 235.788 201.677 233.46 205.074 236.418C208.47 239.375 215.881 245.74 216.19 252.842C215.9 254.556 215.177 256.167 214.088 257.521Z" fill="#ADDBED"/>
<path d="M212.259 217.856C212.259 217.856 219.004 239.695 219.384 292.614H216.225C216.225 292.614 218.6 242.641 209.693 214.614L212.259 217.856Z" fill="#ADDBED"/>
<path d="M226.889 241.097C226.889 241.097 216.427 237.261 216.201 287.674L219.313 287.864C219.313 287.864 217.127 248.555 226.889 241.097Z" fill="#ADDBED"/>
<path d="M207.662 255.431C207.662 255.431 222.78 250.574 224.288 286.154H221.569C221.569 286.154 221.581 256.987 207.662 255.431Z" fill="#ADDBED"/>
<path d="M241.022 284.586H197.699V292.626H241.022V284.586Z" fill="#E2E2E2"/>
<path d="M234.015 314.704H204.705L201.143 288.6H237.578L234.015 314.704Z" fill="#E2E2E2"/>
<path d="M359.282 17.5865H234.467V188.243H359.282V17.5865Z" fill="white" stroke="#1B2E35" stroke-width="1.18759" stroke-miterlimit="10"/>
<path d="M367.309 185.909H226.426V191.93H367.309V185.909Z" fill="#1B2E35"/>
<path d="M311.661 13.8279H282.102V20.4309H311.661V13.8279Z" fill="#1B2E35"/>
<path d="M300.568 10.5264H293.182V17.1294H300.568V10.5264Z" fill="#1B2E35"/>
<path d="M264.264 189.567L229.705 312.601L231.427 313.456L270 189.567H264.264Z" fill="#1B2E35"/>
<path d="M293.715 191.942L296.054 312.376H297.349L299.843 191.942H293.715Z" fill="#1B2E35"/>
<path d="M230.454 314.656C231.327 314.656 232.034 313.949 232.034 313.077C232.034 312.204 231.327 311.497 230.454 311.497C229.582 311.497 228.875 312.204 228.875 313.077C228.875 313.949 229.582 314.656 230.454 314.656Z" fill="#1B2E35"/>
<path d="M329.486 189.567L364.045 312.601L362.323 313.456L323.75 189.567H329.486Z" fill="#1B2E35"/>
<path d="M363.296 314.656C364.169 314.656 364.876 313.949 364.876 313.077C364.876 312.204 364.169 311.497 363.296 311.497C362.424 311.497 361.717 312.204 361.717 313.077C361.717 313.949 362.424 314.656 363.296 314.656Z" fill="#1B2E35"/>
<path d="M296.781 313.955C297.653 313.955 298.36 313.248 298.36 312.376C298.36 311.504 297.653 310.796 296.781 310.796C295.908 310.796 295.201 311.504 295.201 312.376C295.201 313.248 295.908 313.955 296.781 313.955Z" fill="#1B2E35"/>
<path d="M477.555 314.169H92.1113V329.56H477.555V314.169Z" fill="#E1E2E1"/>
<path d="M189.732 115.747C192.119 120.499 193.895 125.535 195.016 130.734C196.406 138.157 197.451 163.191 197.451 163.191C197.451 163.191 201.358 173.119 200.824 174.865C200.289 176.611 199.399 181.219 198.104 182.299C196.81 183.38 191.549 184.924 191.549 183.487C191.549 182.05 190.919 175.863 190.147 174.366C189.375 172.87 189.387 177.537 189.387 177.537C189.387 177.537 189.886 179.782 188.2 179.473C186.513 179.164 186.537 172.787 186.525 170.376C186.513 167.965 189.031 163.939 189.031 163.939C189.031 163.939 183.283 138.691 182.855 135.033C182.428 131.376 173.996 118.098 173.996 118.098L189.732 115.747Z" fill="#AF7462"/>
<path d="M168.949 47.7929L171.657 55.5953L169.756 61.6402L150.826 50.7262L149.936 37.6509L168.949 47.7929Z" fill="#6F453A"/>
<path d="M174.743 292.709L194.849 293.291L194.612 300.417C194.612 300.417 214.183 303.778 218.126 311.913L173.77 310.642L174.743 292.709Z" fill="#6F453A"/>
<path d="M218.125 311.96C218.465 312.638 218.686 313.369 218.778 314.122H173.578L173.768 310.642L218.125 311.96Z" fill="#263238"/>
<path d="M130.732 291.712L150.779 293.434L150.15 300.559C150.15 300.559 169.507 305.013 172.987 313.362L128.809 309.609L130.732 291.712Z" fill="#6F453A"/>
<path d="M172.987 313.35C173.288 314.042 173.469 314.781 173.521 315.535L128.393 313.065L128.773 309.609L172.987 313.35Z" fill="#263238"/>
<path d="M157.619 149.165C157.619 149.165 168.189 214.257 169.258 223.33C170.326 232.404 170.196 299.336 170.196 299.336L194.66 298.22C194.66 298.22 198.437 223.995 197.463 216.763C196.489 209.531 196.05 160.673 196.05 160.673L194.969 139.831C194.969 139.831 159.531 136.993 157.619 149.165Z" fill="#1B2E35"/>
<path d="M132.37 145.686C132.37 145.686 134.496 211.621 134.377 220.753C134.259 229.886 128.285 296.652 128.285 296.652L153.462 298.434C153.462 298.434 164.222 225.373 164.15 218.069C164.079 210.766 170.207 162.253 170.207 162.253L171.882 141.458C171.882 141.458 136.004 133.881 132.37 145.686Z" fill="#1B2E35"/>
<path d="M144.484 55.5716C144.484 55.5716 132.608 58.7306 131.219 60.1557C129.829 61.5808 126.801 162.799 126.801 162.799C126.801 162.799 140.375 168.001 164.21 166.587L172.749 146.98L174.482 166.801C174.482 166.801 194.671 164.83 198.804 158.488C198.804 158.488 196.429 73.2548 189.992 61.0345C189.102 59.36 183.9 57.7092 182.012 57.353C179.423 56.8661 171.668 55.5716 171.668 55.5716L168.806 58.8375L160.801 53.4458L144.484 55.5716Z" fill="#5A8CC4"/>
<path d="M144.485 55.5716C142.11 56.2129 139.794 56.8898 137.479 57.6261C136.291 57.9943 135.103 58.3743 134.023 58.8137C133.453 59.0275 132.835 59.2531 132.336 59.5144C132.064 59.6426 131.798 59.7853 131.541 59.9419C131.422 60.0488 131.268 60.1082 131.196 60.2388C131.144 60.3775 131.104 60.5206 131.078 60.6663C130.721 63.0415 130.614 65.5117 130.436 67.9344L129.997 75.2143C129.51 84.9407 129.13 94.667 128.809 104.393C128.097 123.862 127.463 143.323 126.909 162.775L126.826 162.656C129.812 163.651 132.869 164.418 135.97 164.949C139.07 165.519 142.193 165.91 145.329 166.196C148.464 166.481 151.611 166.611 154.758 166.635C156.326 166.635 157.905 166.635 159.508 166.635L164.259 166.433L164.116 166.528L172.619 146.945L172.904 146.28L172.976 147.004L174.71 166.825L174.508 166.659C178.847 166.183 183.146 165.389 187.369 164.283C189.48 163.742 191.545 163.035 193.545 162.17C195.569 161.4 197.353 160.104 198.711 158.417V158.5C198.426 148.714 198.03 138.928 197.523 129.143C197.048 119.357 196.49 109.583 195.742 99.8212C194.994 90.0592 194.127 80.2972 192.5 70.6421C192.106 68.2355 191.562 65.8557 190.873 63.5166C190.7 62.9334 190.49 62.3622 190.243 61.8064C190.134 61.5235 190.003 61.2495 189.851 60.987C189.683 60.7362 189.475 60.5155 189.234 60.3338C188.238 59.6282 187.152 59.0609 186.004 58.6474C184.861 58.2066 183.691 57.8416 182.5 57.5549C181.313 57.2936 180.125 57.1155 178.937 56.9017L171.705 55.6428L168.843 58.9206L160.791 53.5408L144.485 55.5716ZM144.485 55.5716L160.791 53.4458L168.795 58.8256L171.657 55.5478L178.89 56.7354C180.077 56.9611 181.265 57.1273 182.453 57.3767C183.664 57.6633 184.854 58.0323 186.015 58.4812C187.176 58.892 188.274 59.4593 189.281 60.1676C189.53 60.3571 189.747 60.5857 189.923 60.8445C190.079 61.1107 190.214 61.3886 190.326 61.6758C190.58 62.234 190.795 62.8095 190.968 63.3978C191.659 65.7371 192.207 68.1168 192.606 70.5233C194.269 80.1903 195.1 89.9642 195.896 99.7261C196.692 109.488 197.238 119.262 197.737 129.048C198.236 138.833 198.639 148.619 198.924 158.405V158.464C197.541 160.212 195.711 161.554 193.628 162.348C191.616 163.223 189.539 163.941 187.417 164.497C183.173 165.603 178.855 166.397 174.496 166.872H174.306V166.682L172.572 146.85L172.916 146.909L164.378 166.481V166.576H164.282L159.532 166.777C157.953 166.777 156.373 166.837 154.782 166.777C151.635 166.777 148.476 166.587 145.34 166.314C142.205 166.041 139.058 165.625 135.959 165.044C132.842 164.489 129.773 163.695 126.778 162.668H126.695V162.799C127.313 143.346 127.99 123.89 128.726 104.429C129.106 94.7026 129.498 84.9763 129.997 75.2499L130.424 67.9581C130.591 65.583 130.709 63.1009 131.078 60.6901C131.1 60.5357 131.14 60.3844 131.196 60.2388C131.268 60.1082 131.434 60.0488 131.541 59.9419C131.648 59.835 132.075 59.645 132.348 59.5144C132.895 59.2531 133.465 59.0275 134.035 58.8137C135.222 58.3862 136.339 58.018 137.49 57.6261C139.794 56.8779 142.134 56.2129 144.485 55.5716Z" fill="#1B2E35"/>
<path d="M168.795 58.8612C169.405 66.1926 169.931 73.524 170.374 80.8554C170.818 88.1867 171.253 95.526 171.681 102.873C172.037 110.213 172.326 117.56 172.548 124.915C172.761 132.266 172.892 139.617 172.726 146.968C172.726 139.617 172.524 132.266 172.286 124.927C172.049 117.587 171.681 110.236 171.289 102.885C170.897 95.534 170.553 88.2065 170.101 80.8672L168.795 58.8612Z" fill="#1B2E35"/>
<path d="M180.503 132.527C179.181 133.555 177.742 134.424 176.216 135.116C175.646 135.116 168.01 135.377 167.06 134.986C166.11 134.594 154.519 131.162 151.217 130.556C150.113 130.354 146.99 129.736 143.344 129.012L145.612 117.053C150.149 119.523 154.151 121.993 154.151 121.993C154.151 121.993 160.896 121.376 165.041 122.658C169.186 123.941 170.041 124.155 170.041 124.155C170.041 124.155 177.903 123.751 178.354 124.642C178.805 125.532 175.421 126.269 175.421 126.269L171.644 126.827L175.801 127.599C175.801 127.599 183.045 126.411 182.76 128.252C182.712 128.252 181.442 131.815 180.503 132.527Z" fill="#AF7462"/>
<path d="M135.221 62.519L131.219 60.1438C131.219 60.1438 128.38 62.0321 125.851 69.9295C123.321 77.827 111.6 112.243 115.162 117.136C118.725 122.029 145.161 133.869 149.258 133.869L151.004 115.865L135.268 107.35C135.268 107.35 141.373 94.287 141.206 87.1614C141.04 80.0359 141.123 73.1004 135.221 62.519Z" fill="#5A8CC4"/>
<path d="M135.22 62.519L131.218 60.1438C129.731 61.5622 128.548 63.267 127.738 65.1554C126.883 67.0181 126.161 68.9389 125.577 70.9034C124.306 74.8105 123.047 78.7177 121.836 82.6367C119.335 90.4436 117.226 98.3708 115.518 106.389C115.114 108.397 114.829 110.427 114.663 112.469C114.55 113.479 114.55 114.499 114.663 115.509C114.685 115.756 114.736 115.999 114.817 116.234C114.875 116.473 114.971 116.702 115.102 116.911C115.402 117.329 115.732 117.726 116.088 118.098C119.32 120.607 122.807 122.768 126.491 124.547C130.133 126.423 133.842 128.161 137.619 129.76C139.507 130.556 141.396 131.34 143.319 132.052C144.281 132.42 145.243 132.753 146.217 133.062C147.169 133.388 148.152 133.615 149.15 133.739L148.972 133.905L150.742 115.901L150.813 116.055L135.101 107.505H134.994V107.398C136.618 103.852 138.025 100.211 139.21 96.4959C139.828 94.6106 140.32 92.6865 140.683 90.7361C140.997 88.8134 141.093 86.8612 140.968 84.9169C140.994 81.0124 140.539 77.1195 139.614 73.326C138.598 69.5572 137.122 65.9276 135.22 62.519ZM135.22 62.519C137.168 65.9142 138.691 69.5357 139.757 73.3023C140.719 77.0949 141.205 80.9924 141.206 84.905C141.34 86.8606 141.249 88.8253 140.932 90.7598C140.592 92.6888 140.123 94.5931 139.531 96.4603C138.356 100.192 136.956 103.848 135.339 107.41L135.279 107.244L151.027 115.747H151.122V115.854L149.412 133.846V134.024H149.245C148.211 133.904 147.193 133.677 146.205 133.347C145.22 133.038 144.246 132.705 143.284 132.337C141.348 131.637 139.448 130.853 137.56 130.045C133.767 128.446 130.058 126.696 126.432 124.796C122.73 122.995 119.231 120.806 115.993 118.264C115.624 117.891 115.279 117.494 114.96 117.077C114.823 116.847 114.719 116.599 114.651 116.341C114.571 116.09 114.519 115.831 114.497 115.569C114.384 114.538 114.384 113.499 114.497 112.469C114.67 110.419 114.964 108.381 115.375 106.365C117.118 98.3449 119.262 90.4177 121.8 82.613C122.988 78.6939 124.306 74.7986 125.589 70.8915C126.185 68.9263 126.919 67.0055 127.786 65.1435C128.622 63.2523 129.834 61.5512 131.349 60.1438L135.22 62.519Z" fill="#1B2E35"/>
<path d="M189.98 61.0582L188.626 78.8721C190.134 92.4937 191.654 106.115 192.949 119.761C193.59 126.589 194.231 133.406 194.802 140.235C195.372 147.063 195.906 153.904 196.048 160.756C195.799 153.904 195.134 147.087 194.564 140.259C193.994 133.43 193.281 126.613 192.604 119.796L188.4 78.8364L189.98 61.0582Z" fill="#1B2E35"/>
<path d="M175.125 81.0334C175.363 82.9098 175.588 84.7862 175.79 86.6744L175.636 86.5438C179.903 86.045 184.174 85.6175 188.45 85.2612L188.331 85.4393C187.82 83.6461 187.333 81.8766 186.858 80.0239C187.452 81.8053 188.046 83.5867 188.604 85.3562V85.5225H188.438C184.163 86.0054 179.887 86.4329 175.612 86.8051H175.469V86.6625C175.398 84.8099 175.279 82.9216 175.125 81.0334Z" fill="#1B2E35"/>
<path d="M161.668 81.2236C161.774 83.1119 161.893 85.0002 161.976 86.9003V87.0309H161.846C156.882 87.3516 151.929 87.601 146.953 87.7791H146.787V87.601C147.179 85.7484 147.607 83.8957 148.034 82.055C147.713 83.9195 147.405 85.7959 147.048 87.6604L146.906 87.4941C151.87 87.1774 156.834 86.928 161.798 86.7459L161.668 86.8884C161.668 85.012 161.668 83.1119 161.668 81.2236Z" fill="#1B2E35"/>
<path d="M174.969 18.3288L177.582 40.1329C177.582 40.1329 178.769 55.3103 159.981 48.1373C159.981 48.1373 151.371 45.1564 149.733 39.6104C149.733 39.6104 144.875 40.7148 144.092 36.3208C143.308 31.9267 147.286 30.846 148.688 31.5704L145.814 13.6378L174.743 13.9466L174.969 18.3288Z" fill="#AF7462"/>
<path d="M168.793 58.8612L161.893 55.0491L158.865 62.1983L148.438 54.9422L150.528 48.3154L162.475 53.1014L168.793 58.8612Z" fill="#E1E2E1"/>
<path d="M168.795 58.8613L170.921 53.4696L175.172 56.2604L173.985 58.2793L171.657 55.5954L168.795 58.8613Z" fill="#E1E2E1"/>
<path d="M170.93 29.4684C171.678 29.4684 172.284 28.8623 172.284 28.1146C172.284 27.3669 171.678 26.7607 170.93 26.7607C170.182 26.7607 169.576 27.3669 169.576 28.1146C169.576 28.8623 170.182 29.4684 170.93 29.4684Z" fill="#1B2E35"/>
<path d="M158.592 30.0622C159.34 30.0622 159.946 29.4561 159.946 28.7083C159.946 27.9606 159.34 27.3545 158.592 27.3545C157.844 27.3545 157.238 27.9606 157.238 28.7083C157.238 29.4561 157.844 30.0622 158.592 30.0622Z" fill="#1B2E35"/>
<path d="M160.587 24.623C159.61 24.2393 158.56 24.0731 157.512 24.1361C156.995 24.1827 156.483 24.27 155.98 24.3974C155.481 24.528 154.97 24.6943 154.424 24.8605C154.813 24.4455 155.276 24.1072 155.79 23.8629C156.316 23.6151 156.884 23.4662 157.464 23.4235C158.042 23.3692 158.624 23.4492 159.166 23.6572C159.708 23.8653 160.194 24.1958 160.587 24.623Z" fill="#1B2E35"/>
<path d="M173.425 24.4687C172.567 24.2577 171.682 24.1776 170.8 24.2312C169.917 24.3207 169.04 24.4675 168.176 24.6706C168.515 24.3265 168.919 24.0522 169.363 23.863C169.809 23.6724 170.282 23.5522 170.765 23.5068C171.252 23.4625 171.742 23.5257 172.202 23.6919C172.661 23.8581 173.079 24.1233 173.425 24.4687Z" fill="#1B2E35"/>
<path d="M165.908 28.3164C167.128 29.5692 168.074 31.0614 168.687 32.6986C169.033 33.5482 169.144 34.4754 169.008 35.3826C168.92 35.8537 168.662 36.2762 168.283 36.5702C167.912 36.8324 167.468 36.9734 167.013 36.9739C167.399 36.8745 167.744 36.6578 168.001 36.3536C168.259 36.0494 168.415 35.6727 168.45 35.2757C168.464 34.4614 168.31 33.6529 167.998 32.9005C167.44 31.3804 166.645 29.884 165.908 28.3164Z" fill="#1B2E35"/>
<path d="M169.59 41.4037C168.338 41.8983 166.989 42.0974 165.647 41.9856C164.966 41.9374 164.296 41.7811 163.664 41.5224C163.031 41.2738 162.475 40.8644 162.049 40.3348C163.189 40.9031 164.434 41.2267 165.707 41.2849C166.977 41.3799 168.248 41.3562 169.59 41.4037Z" fill="#1B2E35"/>
<path d="M167.273 37.3302C166.697 36.9439 166.048 36.6793 165.366 36.5527C164.684 36.4261 163.983 36.4401 163.307 36.5939C161.145 37.164 159.257 38.6009 158.497 38.5416C157.737 38.4822 159.685 39.5035 162.63 38.9929C165.575 38.4822 170.943 40.0379 173.496 39.1947C173.496 39.1947 172.713 38.4941 171.572 37.639C170.432 36.7839 167.273 37.3302 167.273 37.3302Z" fill="#1B2E35"/>
<path d="M175.682 24.2668C175.682 24.2668 174.494 17.3194 173.496 16.7612C172.499 16.2031 170.135 17.6282 167.345 17.5332C164.554 17.4382 155.873 15.8349 153.711 16.6306C151.55 17.4263 153.141 24.1599 152.013 26.1313C150.885 28.1027 150.315 33.5537 150.41 34.2188C150.505 34.8838 149.222 34.2188 149.222 34.2188L148.723 31.5348C148.046 31.3202 147.32 31.3129 146.639 31.5139C145.957 31.715 145.352 32.1151 144.899 32.663C144.899 32.663 141.028 13.4003 141.218 11.5121C141.546 9.85535 142.461 8.37234 143.793 7.33432C145.125 6.2963 146.787 5.77265 148.474 5.85916C153.224 6.04917 173.413 4.54093 174.66 6.79735C175.907 9.05377 175.682 24.2668 175.682 24.2668Z" fill="#1B2E35"/>
<path d="M157 30.0503C157.411 30.2887 157.869 30.4346 158.342 30.4778C158.811 30.4716 159.267 30.3224 159.648 30.0503C159.532 30.2922 159.351 30.4975 159.126 30.6441C158.886 30.7903 158.611 30.8683 158.33 30.8697C158.058 30.8515 157.795 30.7674 157.564 30.6246C157.332 30.4818 157.138 30.2847 157 30.0503Z" fill="#1B2E35"/>
<path d="M169.637 29.6346C170.047 29.8745 170.505 30.0205 170.979 30.0622C171.447 30.0515 171.901 29.9028 172.285 29.6346C172.161 29.8717 171.982 30.0754 171.762 30.2284C171.524 30.3758 171.247 30.4501 170.967 30.4422C170.696 30.4284 170.432 30.3473 170.2 30.2064C169.968 30.0654 169.774 29.8689 169.637 29.6346Z" fill="#1B2E35"/>
<path d="M401.953 294.455C401.953 294.455 395.814 306.64 392.025 308.813C390.268 309.834 385.398 309.336 384.152 310.951C383.296 312.079 384.152 314.229 384.152 314.229H401.478L409.067 308.053V314.502H417.38L419.755 288.802L401.953 294.455Z" fill="#263238"/>
<path d="M445.253 288.98C445.253 288.98 448.056 302.329 446.441 306.39C445.693 308.29 441.584 310.939 441.619 312.97C441.619 314.383 443.662 315.535 443.662 315.535L457.248 304.704L459.326 295.144L463.34 300.179L469.813 295.025L455.633 273.458L445.253 288.98Z" fill="#263238"/>
<path d="M405.301 74.205L402.356 72.7324C402.356 72.7324 397.356 73.92 396.323 83.6107C395.29 93.3015 395.136 110.391 395.136 110.391C395.136 110.391 392.487 111.353 390.73 121.756C388.972 132.159 402.344 126.708 402.344 126.708L405.301 74.205Z" fill="#B69468"/>
<path d="M405.303 74.2049L402.357 72.7442C400.809 73.3716 399.519 74.5063 398.7 75.9625C397.865 77.3955 397.26 78.9503 396.906 80.5704C396.349 83.8417 396.012 87.1466 395.897 90.463C395.529 97.1016 395.362 103.74 395.291 110.391V110.474H395.196C394.292 111.215 393.599 112.182 393.189 113.277C392.721 114.378 392.324 115.509 392.002 116.661C391.693 117.849 391.42 119.036 391.194 120.224C390.916 121.391 390.772 122.587 390.766 123.787C390.785 124.369 390.889 124.945 391.075 125.497C391.289 126.029 391.622 126.504 392.049 126.886C392.986 127.592 394.13 127.967 395.303 127.955C397.696 127.927 400.064 127.456 402.286 126.566L402.167 126.72L405.303 74.2049ZM405.303 74.2049L402.535 126.72V126.839H402.429C400.165 127.764 397.748 128.255 395.303 128.288C394.038 128.299 392.807 127.88 391.812 127.1C391.33 126.679 390.963 126.144 390.743 125.544C390.533 124.957 390.42 124.339 390.41 123.715C390.418 122.495 390.565 121.28 390.85 120.093C391.087 118.906 391.36 117.718 391.693 116.531C392.005 115.363 392.402 114.22 392.88 113.11C393.314 111.931 394.077 110.901 395.077 110.141L394.97 110.284C395.066 103.645 395.256 96.9947 395.659 90.3561C395.782 87.0291 396.143 83.7151 396.74 80.4397C397.118 78.8126 397.747 77.2541 398.605 75.82C399.446 74.3572 400.761 73.2259 402.334 72.6135L405.303 74.2049Z" fill="#1B2E35"/>
<path d="M456.439 160.733L461.213 224.613L483.54 280.679L423.697 303.362L388.26 297.733L401.026 141.612L446.654 140.092L456.439 160.733Z" fill="#B69468" stroke="#1B2E35" stroke-width="0.391904" stroke-miterlimit="10"/>
<path d="M411.775 31.6892L409.15 32.568C409.15 32.568 400.445 56.106 400.837 59.4907C401.229 62.8753 405.291 71.6991 409.15 71.996C413.01 72.2929 406.324 50.5244 406.324 50.5244C406.324 50.5244 407.808 35.2163 411.775 31.6892Z" fill="#E1E2E1"/>
<path d="M444.279 69.9297C444.279 69.9297 455.311 72.8749 456.642 74.205C457.972 75.5351 449.457 120.83 449.872 123.609C450.288 126.388 460.751 169.806 460.751 169.806C460.751 169.806 448.103 174.651 425.895 173.369L417.95 147.242L416.335 173.654C416.335 173.654 397.512 171.813 393.688 165.923C393.688 165.923 401.039 132.527 400.742 128.264C400.445 124.001 395.113 92.7314 402.357 72.7324L409.15 70.5235L444.279 69.9297Z" fill="#B69468"/>
<path d="M444.278 69.9297C446.499 70.5354 448.72 71.1173 450.917 71.8655C452.009 72.2099 453.102 72.578 454.182 72.9818C454.717 73.1837 455.251 73.3974 455.774 73.6468C456.036 73.7743 456.287 73.9254 456.522 74.0981C456.807 74.2406 456.76 74.6207 456.783 74.8819C456.706 77.1847 456.492 79.4808 456.142 81.7581C455.845 84.0382 455.501 86.3184 455.156 88.5986L450.845 115.913C450.513 118.181 450.145 120.462 449.955 122.754C449.931 123.034 449.931 123.316 449.955 123.597L450.121 124.44L450.489 126.126L451.261 129.499L454.444 142.943L460.892 169.806V169.913H460.797C458.005 170.848 455.147 171.575 452.247 172.086C449.349 172.621 446.439 172.989 443.506 173.274C440.573 173.559 437.639 173.677 434.706 173.701C433.233 173.701 431.761 173.701 430.288 173.701L425.882 173.523H425.775V173.416L417.807 147.289H418.175L416.548 173.701V173.879H416.358C412.296 173.391 408.276 172.609 404.327 171.54C402.353 171.02 400.419 170.353 398.544 169.545C396.604 168.799 394.899 167.548 393.604 165.923V165.851C395.29 158.179 396.929 150.496 398.437 142.788C399.173 138.929 399.91 135.069 400.468 131.186C400.605 130.221 400.685 129.25 400.705 128.276C400.622 127.302 400.503 126.328 400.385 125.354C400.147 123.407 399.91 121.447 399.708 119.5C398.822 111.687 398.469 103.823 398.651 95.9616C398.708 88.081 399.969 80.2555 402.392 72.7561L409.185 70.5591L444.278 69.9297ZM444.278 69.9297L409.149 70.5591L402.356 72.768C399.952 80.2579 398.711 88.0719 398.675 95.9379C398.512 103.792 398.885 111.649 399.791 119.452C399.993 121.4 400.23 123.347 400.468 125.307C400.587 126.281 400.717 127.255 400.8 128.24C400.787 129.23 400.707 130.218 400.563 131.197C400.028 135.093 399.292 138.952 398.556 142.812C397.059 150.531 395.444 158.251 393.805 165.899V165.78C395.067 167.356 396.728 168.565 398.615 169.283C400.471 170.067 402.38 170.718 404.327 171.231C408.264 172.241 412.269 172.963 416.31 173.392L416.12 173.559L417.723 147.147L417.795 146.102L418.092 147.111L426.013 173.297L425.87 173.179L430.264 173.369C431.725 173.369 433.198 173.44 434.658 173.369C437.592 173.369 440.525 173.202 443.447 172.965C446.368 172.727 449.278 172.324 452.164 171.777C455.052 171.281 457.898 170.566 460.679 169.64L460.607 169.782L454.206 142.955L451.095 129.547L450.335 126.174L449.966 124.488L449.8 123.632C449.782 123.34 449.782 123.046 449.8 122.754C450.002 120.45 450.37 118.181 450.715 115.901L455.085 88.5867C455.441 86.3065 455.774 84.0264 456.083 81.7462C456.435 79.4726 456.657 77.1808 456.748 74.8819C456.748 74.6088 456.748 74.2644 456.486 74.11C456.254 73.9428 456.008 73.7958 455.75 73.6706C455.227 73.4212 454.705 73.2074 454.159 72.9937C453.09 72.5899 451.997 72.2336 450.893 71.8773C448.72 71.1767 446.499 70.5354 444.278 69.9297Z" fill="#1B2E35"/>
<path d="M420.882 86.532C420.882 86.532 418.613 95.8071 418.281 98.4079C417.948 101.009 419.765 114.868 419.765 114.868" fill="#B69468"/>
<path d="M420.883 86.532L419.399 93.5506L418.686 97.1134C418.568 97.6933 418.488 98.2805 418.449 98.871C418.419 99.4605 418.419 100.051 418.449 100.641C418.555 103.016 418.805 105.391 419.03 107.766L419.719 114.892C419.347 112.516 419.015 110.141 418.722 107.766C418.449 105.391 418.199 103.016 418.057 100.641C418.057 100.035 418.057 99.4529 418.057 98.8235C418.105 98.2201 418.196 97.6208 418.33 97.0303C418.555 95.8427 418.805 94.6551 419.09 93.4675C419.648 91.1517 420.254 88.8359 420.883 86.532Z" fill="#1B2E35"/>
<path d="M409.149 32.5679C409.149 32.5679 404.565 47.1397 404.861 57.7211C405.158 68.3025 408.531 93.3488 427.948 88.1709C447.365 82.993 446.486 70.2264 446.486 70.2264L452.08 72.1384C452.08 72.1384 454.574 66.5449 450.892 62.0677C448.528 59.1321 446.411 56.006 444.563 52.7213C444.563 52.7213 444.563 28.7439 432.794 22.4259C421.025 16.108 410.871 26.2262 409.149 32.5679Z" fill="#ECECEC"/>
<path d="M400.873 156.386H439.553L420.884 104.975L383.166 107.588L400.873 156.386Z" fill="#5A8CC4"/>
<path d="M434.72 40.8098C434.72 40.8098 431.05 28.7439 418.094 30.9528C405.137 33.1617 409.994 54.8827 410.149 56.3791C410.303 57.8755 413.082 68.0887 425.148 66.3667C437.214 64.6447 436.929 47.2822 434.72 40.8098Z" fill="#FBBF9D"/>
<path d="M441.63 128.133L438.4 127.694C438.4 127.694 431.191 122.516 430.597 122.302C429.472 122.187 428.338 122.187 427.213 122.302L428.543 125.865C428.543 125.865 417.854 125.057 416.109 125.497C414.363 125.936 413.318 127.243 416.774 128.098C419.369 128.668 421.999 129.064 424.647 129.285C424.647 129.285 412 128.703 411.109 129.285C410.218 129.867 409.791 131.423 413.175 131.66L423.103 135.698C423.103 135.698 423.389 137.86 428.685 140.021L441.63 137.1V128.133Z" fill="#FBBF9D"/>
<path d="M452.913 76.4019L456.642 74.2048C456.642 74.2048 459.29 75.9625 461.642 83.3255C463.993 90.6886 474.883 122.742 471.641 127.266C468.399 131.791 443.697 142.859 439.873 142.859L438.246 126.091L452.913 118.146C452.913 118.146 447.224 105.937 447.367 99.3223C447.509 92.7075 447.414 86.2589 452.913 76.4019Z" fill="#B69468"/>
<path d="M452.913 76.4019L456.583 74.1812C457.981 75.501 459.099 77.0881 459.872 78.8484C460.683 80.5829 461.369 82.3728 461.927 84.2044C463.114 87.8266 464.302 91.4606 465.49 95.1065C467.746 102.41 469.955 109.749 471.428 117.255C471.808 119.134 472.081 121.033 472.247 122.944C472.354 123.907 472.354 124.878 472.247 125.841C472.224 126.084 472.172 126.323 472.093 126.554C472.033 126.8 471.937 127.036 471.808 127.255C471.516 127.647 471.194 128.016 470.846 128.359C467.826 130.731 464.561 132.773 461.107 134.451C457.711 136.221 454.243 137.848 450.728 139.368C448.97 140.116 447.165 140.841 445.396 141.506C444.505 141.838 443.602 142.159 442.676 142.444C441.755 142.752 440.803 142.963 439.838 143.073H439.671V142.895L438.08 126.126V125.984H438.175L452.842 118.063V118.241C451.334 114.923 450.029 111.516 448.935 108.039C448.381 106.297 447.944 104.52 447.628 102.719C447.334 100.918 447.246 99.0889 447.367 97.2679C447.369 93.6187 447.828 89.9841 448.733 86.4489C449.707 82.9405 451.111 79.5659 452.913 76.4019ZM452.913 76.4019C451.129 79.5771 449.741 82.9593 448.78 86.4727C447.913 90.0049 447.486 93.6308 447.51 97.2679C447.398 99.0776 447.489 100.894 447.783 102.683C448.108 104.471 448.549 106.237 449.101 107.968C450.203 111.43 451.516 114.821 453.032 118.122V118.241H452.925L438.282 126.198L438.365 126.055L440.004 142.812L439.826 142.646C440.755 142.531 441.669 142.324 442.557 142.028C443.46 141.743 444.362 141.422 445.253 141.09C447.046 140.425 448.816 139.689 450.562 138.952C454.077 137.44 457.533 135.817 460.929 134.083C464.361 132.425 467.609 130.411 470.62 128.074C470.947 127.745 471.252 127.396 471.534 127.029C471.649 126.837 471.733 126.629 471.784 126.411C471.859 126.192 471.911 125.965 471.938 125.734C472.039 124.795 472.039 123.847 471.938 122.908C471.788 121.009 471.518 119.12 471.131 117.255C469.526 109.781 467.544 102.392 465.193 95.1184L461.737 84.1807C461.194 82.3507 460.523 80.561 459.73 78.8246C458.999 77.0939 457.929 75.5271 456.583 74.2168L452.913 76.4019Z" fill="#1B2E35"/>
<path d="M414.578 48.4935C415.319 48.4935 415.92 47.8927 415.92 47.1515C415.92 46.4104 415.319 45.8096 414.578 45.8096C413.837 45.8096 413.236 46.4104 413.236 47.1515C413.236 47.8927 413.837 48.4935 414.578 48.4935Z" fill="#1B2E35"/>
<path d="M426.858 48.7429C427.599 48.7429 428.2 48.1421 428.2 47.4009C428.2 46.6598 427.599 46.059 426.858 46.059C426.116 46.059 425.516 46.6598 425.516 47.4009C425.516 48.1421 426.116 48.7429 426.858 48.7429Z" fill="#1B2E35"/>
<path d="M424.768 43.3988C425.145 42.9635 425.618 42.6213 426.149 42.3988C426.681 42.1763 427.257 42.0796 427.832 42.1162C428.41 42.1476 428.977 42.2845 429.506 42.52C430.025 42.7455 430.497 43.0679 430.896 43.47C430.349 43.3157 429.839 43.1613 429.328 43.0544C428.829 42.9375 428.32 42.866 427.808 42.8406C426.766 42.802 425.728 42.9925 424.768 43.3988Z" fill="#1B2E35"/>
<path d="M412.012 43.6007C412.348 43.2479 412.757 42.9727 413.21 42.7943C413.663 42.6158 414.15 42.5384 414.636 42.5675C415.119 42.5907 415.593 42.6993 416.038 42.8881C416.483 43.0598 416.888 43.3227 417.225 43.6601C416.36 43.4791 415.483 43.3561 414.601 43.2919C413.727 43.2637 412.854 43.3678 412.012 43.6007Z" fill="#1B2E35"/>
<path d="M419.256 60.0607C419.256 60.0607 423.757 60.4645 425.539 58.3862L418.294 58.1962C418.274 58.5645 418.352 58.9317 418.521 59.2596C418.69 59.5875 418.944 59.8641 419.256 60.0607Z" fill="#AF3948"/>
<path d="M419.256 60.0607C420.368 60.0464 421.475 59.911 422.558 59.6569C423.6 59.4513 424.558 58.9432 425.313 58.1961L425.527 58.683C423.152 58.683 420.737 58.5722 418.282 58.3505L418.449 58.2199C418.4 58.5565 418.454 58.8999 418.603 59.2056C418.761 59.5316 418.983 59.8224 419.256 60.0607ZM419.256 60.0607C418.936 59.8669 418.664 59.603 418.461 59.2887C418.238 58.9602 418.125 58.5691 418.14 58.1724V58.0417H418.294C420.67 58.0417 423.128 58.0417 425.55 58.0417H426.18L425.764 58.5168C425.351 58.9522 424.854 59.2996 424.304 59.5381C423.771 59.7611 423.212 59.9167 422.641 60.0013C421.523 60.1991 420.381 60.2192 419.256 60.0607Z" fill="#1B2E35"/>
<path d="M419.768 47.9829C419.031 49.2655 418.165 50.465 417.476 51.7357C417.291 52.0364 417.135 52.3547 417.013 52.6858C416.962 52.8139 416.941 52.9522 416.953 53.0895C416.953 53.0895 417.131 53.2677 417.238 53.3508C417.878 53.6724 418.578 53.8584 419.293 53.8971C418.541 54.0553 417.759 53.985 417.048 53.6952C416.858 53.5646 416.68 53.5646 416.538 53.2202C416.472 52.9993 416.472 52.7641 416.538 52.5433C416.649 52.1755 416.8 51.821 416.989 51.4863C417.755 50.1998 418.689 49.0216 419.768 47.9829Z" fill="#1B2E35"/>
<path d="M419.564 74.2048C420.541 74.4811 421.544 74.6523 422.557 74.7155C423.056 74.7155 423.555 74.7155 424.065 74.7155C424.576 74.7155 425.063 74.7155 425.562 74.6205C427.562 74.4226 429.476 73.7107 431.12 72.5541C432.74 71.3652 434.081 69.8373 435.051 68.0769C435.573 67.2218 435.906 66.2599 436.345 65.3573L437.295 62.4596L436.535 65.4167C436.188 66.3708 435.792 67.3063 435.348 68.2194C434.399 70.0544 433.042 71.6471 431.381 72.8747C429.68 74.053 427.696 74.758 425.633 74.9174C423.583 75.104 421.516 74.8613 419.564 74.2048Z" fill="#1B2E35"/>
<path d="M476.582 103.313C476.582 103.313 470.644 126.198 471.214 130.152C471.784 134.107 486.463 144.985 486.463 144.985C486.463 144.985 498.956 105.45 476.582 103.313Z" fill="#AF7462"/>
<path d="M488.836 72.9937L468.029 106.484L486.461 110.878L488.836 72.9937Z" fill="#B69468"/>
<path d="M507.72 59.5737L504.988 67.4593L506.912 73.5754L526.044 62.5427L526.959 49.3248L507.72 59.5737Z" fill="#6F453A"/>
<path d="M503.384 309.965L484.929 310.499L485.143 317.079C485.143 317.079 467.175 320.166 463.553 327.636L504.287 326.449L503.384 309.965Z" fill="#1B2E35"/>
<path d="M463.553 327.636C463.245 328.259 463.044 328.93 462.959 329.62H504.453L504.287 326.425L463.553 327.636Z" fill="#385B66" stroke="#1B2E35" stroke-width="0.296897" stroke-miterlimit="10"/>
<path d="M545.201 309.051L526.805 310.606L527.387 317.162C527.387 317.162 509.573 321.247 506.414 328.907L547.018 325.499L545.201 309.051Z" fill="#1B2E35"/>
<path d="M506.462 328.907C506.182 329.546 506.017 330.23 505.975 330.926L547.41 328.658L547.065 325.475L506.462 328.907Z" fill="#385B66" stroke="#1B2E35" stroke-width="0.296897" stroke-miterlimit="10"/>
<path d="M519.179 162.087C519.179 162.087 508.491 227.903 507.422 237.071C506.353 246.239 506.472 313.955 506.472 313.955L481.723 312.827C481.723 312.827 477.958 237.783 478.896 230.492C479.834 223.2 480.321 173.784 480.321 173.784L481.426 152.705C481.426 152.705 517.243 149.736 519.179 162.087Z" fill="#B69468" stroke="#1B2E35" stroke-width="0.391904" stroke-miterlimit="10"/>
<path d="M544.678 158.559C544.678 158.559 542.516 225.243 542.635 234.47C542.754 243.698 548.799 311.248 548.799 311.248L523.337 313.053C523.337 313.053 512.459 239.185 512.482 231.798C512.506 224.411 506.354 175.399 506.354 175.399L504.668 154.355C504.668 154.355 541.044 146.624 544.678 158.559Z" fill="#B69468" stroke="#1B2E35" stroke-width="0.391904" stroke-miterlimit="10"/>
<path d="M532.468 67.4474C532.468 67.4474 544.439 70.6421 545.876 72.079C547.313 73.516 550.401 175.862 550.401 175.862C550.401 175.862 536.672 181.135 512.564 179.698L503.942 159.901L502.185 179.948C502.185 179.948 481.746 177.941 477.602 171.551C477.602 171.551 482.352 85.3682 488.884 72.9816C489.774 71.2834 495.047 69.6089 496.947 69.2526C499.572 68.7538 505.035 67.4474 505.035 67.4474L507.933 70.7608L515.961 65.3217L532.468 67.4474Z" fill="#B69468" stroke="#1B2E35" stroke-width="0.356277" stroke-miterlimit="10"/>
<path d="M507.887 70.7727L506.533 93.04C506.089 100.451 505.694 107.873 505.345 115.307C504.953 122.73 504.597 130.152 504.348 137.586C504.098 145.021 503.885 152.443 503.896 159.877C503.73 152.443 503.896 145.009 504.086 137.575C504.276 130.14 504.597 122.706 504.953 115.284C505.31 107.861 505.785 100.439 506.272 93.0162C506.758 85.5938 507.269 78.1833 507.887 70.7727Z" fill="#1B2E35"/>
<path d="M501.64 29.7891L498.991 51.8426C498.991 51.8426 497.804 67.1744 516.805 59.9301C516.805 59.9301 525.51 56.9136 527.161 51.2963C527.161 51.2963 532.077 52.4126 532.885 47.9829C533.693 43.5532 529.643 42.4488 528.23 43.1376L531.127 25.0387L501.865 25.3356L501.64 29.7891Z" fill="#AF7462"/>
<path d="M507.885 70.7727L514.856 66.913L517.92 74.1455L528.466 66.8062L526.352 60.1082L514.274 64.9416L507.885 70.7727Z" fill="#E1E2E1"/>
<path d="M507.886 70.7727L505.737 65.3217L501.438 68.1481L502.637 70.1789L504.988 67.4593L507.886 70.7727Z" fill="#E1E2E1"/>
<path d="M544.096 112.172L548.953 132.848L549.499 148.904C549.499 148.904 565.544 140.425 563.845 135.223C562.147 130.022 557.017 104.239 557.017 104.239L544.096 112.172Z" fill="#AF7462"/>
<path d="M545.878 72.0791C543.509 72.9676 541.441 74.5091 539.913 76.5247C538.385 78.5404 537.46 80.9479 537.244 83.4681C536.211 92.4938 540.462 113.027 540.462 113.027L562.136 107.956L545.878 72.0791Z" fill="#B69468"/>
<path d="M545.876 72.0911C544.142 72.7722 542.568 73.8072 541.255 75.1301C539.942 76.453 538.92 78.0348 538.252 79.7748C536.922 83.3376 537.195 87.126 537.397 90.8194C537.599 94.5128 538.074 98.2537 538.585 101.959C539.095 105.664 539.772 109.346 540.485 113.015H540.413L562.063 107.849L561.956 108.075L553.857 90.19L545.876 72.0911ZM545.876 72.0911L554.118 89.9049L562.277 107.885L562.36 108.063H562.17L540.473 113.039H540.413V112.98C538.876 105.652 537.77 98.2408 537.1 90.7838C536.898 87.0785 536.673 83.1951 538.062 79.6442C538.734 77.876 539.783 76.2757 541.137 74.9548C542.49 73.6339 544.116 72.6242 545.9 71.9961L545.876 72.0911Z" fill="#1B2E35"/>
<path d="M514.775 37.6627C515.182 37.2765 515.688 37.0095 516.236 36.8908C516.791 36.7661 517.367 36.7661 517.922 36.8908C518.479 36.9922 519.01 37.1977 519.49 37.4964C519.728 37.6389 519.941 37.829 520.155 37.9833C520.354 38.1778 520.54 38.384 520.713 38.6009C520.191 38.3871 519.739 38.1496 519.253 37.9833C518.781 37.8104 518.297 37.6754 517.804 37.5796C516.8 37.3899 515.767 37.4182 514.775 37.6627Z" fill="#1B2E35"/>
<path d="M502.412 36.1783C502.771 35.8664 503.205 35.6535 503.671 35.5607C504.138 35.4718 504.617 35.4718 505.084 35.5607C505.553 35.6422 506.004 35.8071 506.414 36.0476C506.613 36.1645 506.804 36.2954 506.984 36.4395C507.162 36.5949 507.325 36.7658 507.471 36.9502C506.653 36.6585 505.816 36.4244 504.965 36.2495C504.123 36.0944 503.262 36.0703 502.412 36.1783Z" fill="#1B2E35"/>
<path d="M505.403 51.3201C505.396 51.7185 505.483 52.1128 505.656 52.4716C505.83 52.8305 506.084 53.1438 506.4 53.3865L506.27 53.3152C507.512 53.4932 508.767 53.5687 510.022 53.5409C510.636 53.5219 511.248 53.4544 511.851 53.339C512.463 53.1979 513.051 52.9699 513.597 52.662C512.654 53.6183 511.377 54.1717 510.034 54.2059C509.383 54.2653 508.727 54.2653 508.075 54.2059C507.423 54.1528 506.778 54.0334 506.151 53.8496H506.056C505.753 53.5049 505.527 53.1002 505.391 52.662C505.241 52.2266 505.245 51.7528 505.403 51.3201Z" fill="#1B2E35"/>
<path d="M509.406 40.8336C508.326 42.2112 507.15 43.4819 506.129 44.8358C505.876 45.1656 505.649 45.5151 505.452 45.8809C505.374 46.0191 505.329 46.1736 505.321 46.3322L505.404 46.439C505.465 46.5122 505.533 46.5797 505.606 46.6409C506.298 47.1196 507.083 47.4474 507.91 47.6029C507.007 47.6684 506.105 47.4616 505.321 47.0091C505.221 46.9405 505.126 46.8651 505.036 46.7834L504.906 46.6409C504.855 46.5608 504.819 46.4724 504.799 46.3797C504.771 46.1102 504.82 45.8383 504.941 45.5959C505.132 45.1736 505.371 44.775 505.654 44.4083C506.182 43.7097 506.77 43.058 507.411 42.4606C508.037 41.8717 508.704 41.328 509.406 40.8336Z" fill="#1B2E35"/>
<path d="M504.429 41.4749C505.151 41.4749 505.736 40.89 505.736 40.1685C505.736 39.4471 505.151 38.8622 504.429 38.8622C503.708 38.8622 503.123 39.4471 503.123 40.1685C503.123 40.89 503.708 41.4749 504.429 41.4749Z" fill="#1B2E35"/>
<path d="M516.316 43.1494C517.038 43.1494 517.622 42.5646 517.622 41.8431C517.622 41.1216 517.038 40.5367 516.316 40.5367C515.595 40.5367 515.01 41.1216 515.01 41.8431C515.01 42.5646 515.595 43.1494 516.316 43.1494Z" fill="#1B2E35"/>
<path d="M520.534 28.9221C519.676 29.8558 518.612 30.5776 517.427 31.031C516.242 31.4843 514.969 31.6567 513.706 31.5348L514.893 30.0265C514.893 30.0265 512.72 31.9267 507.115 31.7723C501.509 31.6179 501.177 33.9575 501.177 33.9575C501.177 33.9575 498.053 28.1145 500.725 22.711C503.398 17.3075 507.507 16.3455 507.507 16.3455C506.95 15.8856 506.538 15.2755 506.319 14.5879C509.181 15.1835 512.12 15.3158 515.024 14.9798C519.857 14.4335 532.505 14.6473 533.764 20.5021C533.764 20.5021 537.683 21.5828 537.541 24.7536C537.398 27.9245 531.425 43.7551 531.425 43.7551C531.425 43.7551 530.843 42.8169 528.384 43.1732C528.384 43.1732 527.292 46.3084 526.912 46.344C526.532 46.3796 524.833 45.2989 525.047 44.1589C525.261 43.0188 526.508 38.5416 525.831 36.4039C525.831 36.4039 525.558 37.9121 523.931 35.1451C522.304 32.378 520.226 32.0336 520.534 28.9221Z" fill="#1B2E35"/>
<path d="M65.509 230.171C65.509 230.171 76.708 224.684 82.6934 234.553C88.6789 244.422 63.2645 303.884 63.2645 303.884L52.5762 302.614C52.5762 302.614 60.3549 230.491 65.509 230.171Z" fill="#FBBF9D"/>
<path d="M99.9254 232.036C99.9254 232.036 90.6147 223.722 82.1947 231.656C73.7747 239.589 86.1731 311.83 86.1731 311.83L97.2177 311.937C97.2177 311.937 104.806 233.769 99.9254 232.036Z" fill="#FBBF9D"/>
<path d="M100.542 83.8244L104.283 81.6155C104.283 81.6155 106.943 83.385 109.307 90.7599C111.67 98.1348 122.584 130.307 119.33 134.879C116.076 139.451 91.3028 150.531 87.4668 150.531L85.8398 133.703L100.542 125.734C100.542 125.734 94.8418 113.49 94.9843 106.852C95.1268 100.213 95.0318 93.717 100.542 83.8244Z" fill="#B69468"/>
<path d="M100.542 83.8243L104.271 81.5916C105.673 82.9153 106.796 84.5063 107.573 86.2707C108.378 88.013 109.068 89.8061 109.639 91.6386C110.827 95.2845 112.014 98.9304 113.202 102.588C115.555 109.89 117.537 117.306 119.14 124.808C119.53 126.69 119.808 128.593 119.971 130.508C120.072 131.476 120.072 132.451 119.971 133.418C119.941 133.664 119.89 133.906 119.817 134.142C119.755 134.386 119.655 134.619 119.52 134.831C119.225 135.225 118.903 135.598 118.558 135.948C115.52 138.319 112.245 140.369 108.784 142.064C105.376 143.833 101.908 145.46 98.3807 146.992C96.6112 147.74 94.818 148.477 93.0366 149.13C92.134 149.474 91.2196 149.783 90.3051 150.068C89.3812 150.385 88.4255 150.6 87.4549 150.709H87.2886V150.531L85.6973 133.703V133.608L85.7923 133.549L100.507 125.604L100.447 125.782C98.94 122.45 97.6314 119.031 96.5281 115.545C95.9759 113.797 95.5356 112.016 95.2099 110.213C94.9193 108.403 94.8356 106.566 94.9605 104.738C94.8703 97.3869 96.8011 90.1526 100.542 83.8243ZM100.542 83.8243C98.7537 87.0073 97.3618 90.3974 96.3975 93.9188C95.53 97.4671 95.1032 101.109 95.1267 104.761C95.015 106.575 95.1066 108.396 95.3999 110.189C95.7296 111.981 96.1739 113.75 96.73 115.485C97.8302 118.959 99.143 122.362 100.661 125.675V125.794H100.554L85.8635 133.786L85.9467 133.632L87.5974 150.448L87.4193 150.282C88.353 150.167 89.2723 149.956 90.1626 149.652C91.0652 149.367 91.9677 149.047 92.8584 148.714C94.6517 148.049 96.4212 147.313 98.1907 146.576C101.753 145.068 105.186 143.441 108.594 141.684C112.035 140.019 115.291 137.997 118.308 135.651C118.638 135.325 118.944 134.976 119.223 134.606C119.343 134.415 119.431 134.207 119.484 133.988C119.557 133.768 119.604 133.541 119.627 133.311C119.734 132.368 119.734 131.416 119.627 130.473C119.473 128.567 119.207 126.671 118.831 124.796C117.224 117.299 115.243 109.887 112.893 102.588L109.413 91.6268C108.87 89.789 108.2 87.9914 107.406 86.247C106.651 84.4851 105.549 82.8937 104.164 81.5679L100.542 83.8243Z" fill="#1B2E35"/>
<path d="M100.506 309.858C100.506 309.858 106.658 322.09 110.458 324.275C112.228 325.297 117.12 324.798 118.355 326.425C119.222 327.541 118.355 329.703 118.355 329.703H100.934L93.3211 323.504V329.976H85.008L82.6328 304.193L100.506 309.858Z" fill="#263238"/>
<path d="M63.7169 305.88C63.7169 305.88 62.6125 319.525 64.7145 323.361C65.7002 325.154 70.1418 327.268 70.3556 329.299C70.4981 330.712 68.6454 332.114 68.6454 332.114L53.7649 323.052L50.4278 313.801L47.0669 319.323L39.9414 315L52.9099 291.759L63.7169 305.88Z" fill="#263238"/>
<path d="M53.2656 170.922L60.023 237.403H103.536L108.845 151.743L63.0632 150.222L53.2656 170.922Z" fill="#B69468"/>
<path d="M53.2656 170.922L60.1655 237.427L60.0349 237.308H103.524L103.358 237.475L108.714 151.802L108.833 151.944L63.0632 150.353L53.2656 170.922ZM53.2656 170.922L63.0039 150.187L108.785 151.647H108.928V151.79L103.655 237.451V237.617H103.489H59.9993H59.928V237.498L53.2656 170.922Z" fill="#1B2E35"/>
<path d="M65.7223 80.6892C62.4684 81.093 57.9911 82.1974 56.661 83.5275C55.3309 84.8576 60.2238 130.889 59.8438 133.691C59.4638 136.494 48.918 180.007 48.918 180.007C48.918 180.007 61.6133 184.876 83.8925 183.57L91.8612 157.301L93.4882 183.796C93.4882 183.796 112.371 181.943 116.207 176.041C116.207 176.041 105.186 141.019 105.518 136.743C105.851 132.468 108.844 103.681 104.948 82.7675C104.616 81.0098 100.732 80.3923 100.732 80.3923C100.732 80.3923 74.463 79.6679 65.7223 80.6892Z" fill="#B69468"/>
<path d="M65.7218 80.6892C63.4948 80.9605 61.3019 81.462 59.1782 82.1855C58.6523 82.3704 58.1404 82.5927 57.6462 82.8506C57.3976 82.9827 57.1594 83.1336 56.9337 83.3019C56.8262 83.3876 56.7268 83.483 56.6368 83.5869C56.5776 83.7141 56.5414 83.8508 56.5299 83.9907C56.4526 85.1057 56.4526 86.2247 56.5299 87.3397C56.6961 91.8169 57.0524 96.2822 57.4087 100.748L59.677 127.54L59.9026 130.889L59.9858 132.575C60.0256 133.14 59.9816 133.709 59.8551 134.261C59.4038 136.458 58.8932 138.632 58.3825 140.817L55.3185 153.88L49.0956 180.007L49.0243 179.877C51.8126 180.803 54.667 181.518 57.5631 182.014C60.4608 182.549 63.3823 182.905 66.3037 183.202C69.2252 183.499 72.2417 183.594 75.1275 183.618C76.5883 183.618 78.0609 183.618 79.5335 183.618L83.9394 183.427L83.7969 183.534L91.7419 157.265L92.0507 156.255L92.1101 157.301L93.7252 183.796L93.5233 183.641C97.581 183.205 101.602 182.475 105.554 181.456C107.52 180.942 109.445 180.283 111.313 179.485C113.205 178.763 114.872 177.554 116.147 175.981V176.1C113.677 168.143 111.266 160.174 109.021 152.146C107.905 148.132 106.801 144.118 105.922 140.033C105.691 139.01 105.544 137.969 105.482 136.922C105.482 135.876 105.637 134.843 105.72 133.798L106.195 127.575C106.753 119.262 107.05 110.949 106.824 102.636C106.729 98.4674 106.444 94.3227 106.017 90.1661L105.637 87.0665L105.055 83.9432C105.001 83.4316 104.898 82.9264 104.746 82.4349C104.485 81.994 104.101 81.639 103.642 81.4136C102.718 80.9398 101.723 80.619 100.696 80.4635C94.8613 80.2814 89.0302 80.1785 83.2031 80.1548C80.2817 80.1548 77.3721 80.1548 74.4506 80.1548C71.5291 80.1548 68.6195 80.3804 65.7218 80.6892ZM65.7218 80.6892C68.6195 80.3685 71.541 80.2735 74.4506 80.2023C77.3602 80.131 80.2817 80.1073 83.2031 80.1191C89.0302 80.1191 94.8613 80.2062 100.696 80.3804C101.729 80.5413 102.731 80.8618 103.665 81.3305C104.16 81.5592 104.574 81.9317 104.853 82.3993C105.006 82.8991 105.114 83.4119 105.174 83.9313L105.672 87.019L106.052 90.1186C106.48 94.2633 106.789 98.4318 106.884 102.588C107.121 110.901 106.884 119.215 106.314 127.528L105.85 133.763C105.779 134.796 105.649 135.841 105.625 136.874C105.69 137.901 105.837 138.922 106.064 139.926C106.943 144 108.059 148.014 109.188 152.028C111.456 160.032 113.938 168.001 116.313 175.958V176.029C115.018 177.662 113.307 178.917 111.361 179.663C109.479 180.478 107.537 181.149 105.554 181.67C101.587 182.702 97.5505 183.44 93.4758 183.879H93.2976V183.689L91.6588 157.194H92.0269L84.0344 183.451V183.558H83.9276L79.5097 183.736C78.0371 183.736 76.5526 183.808 75.08 183.736C72.1348 183.736 69.1421 183.558 66.2444 183.309C63.3466 183.059 60.3895 182.667 57.48 182.121C54.5705 181.617 51.7039 180.89 48.9056 179.948H48.8105V179.853L55.0929 153.726L58.1806 140.662C58.6913 138.477 59.202 136.304 59.6651 134.107C59.7925 133.567 59.8365 133.01 59.7957 132.456L59.7245 130.782L59.4988 127.433L57.2899 100.641C56.9455 96.1753 56.5893 91.6981 56.4467 87.2209C56.3893 86.1006 56.4092 84.9776 56.5061 83.86C56.5192 83.7205 56.5554 83.584 56.613 83.4563C56.7042 83.3492 56.8078 83.2535 56.9218 83.1712C57.1475 83.0029 57.3857 82.8521 57.6343 82.7199C58.1326 82.4621 58.6485 82.2398 59.1782 82.0549C61.3066 81.3756 63.4994 80.9179 65.7218 80.6892Z" fill="#1B2E35"/>
<path d="M115.863 156.647H77.0645L95.7809 105.07L133.629 107.695L115.863 156.647Z" fill="#F37C4B"/>
<path d="M71.6367 137.86L74.8788 137.408C74.8788 137.408 82.1113 132.219 82.705 132.005C83.8303 131.89 84.9644 131.89 86.0897 132.005L84.7715 135.568C84.7715 135.568 95.4598 134.76 97.2411 135.199C99.0225 135.639 100.044 136.945 96.5761 137.812C93.9728 138.382 91.3345 138.779 88.6786 139C88.6786 139 101.374 138.418 102.253 139C103.132 139.582 103.583 141.137 100.186 141.375L90.2225 145.436C90.2225 145.436 89.9375 147.598 84.6171 149.759L71.6367 146.838V137.86Z" fill="#FBBF9D"/>
<path d="M60.3199 85.9858L56.579 83.7769C56.579 83.7769 53.99 85.6057 51.6149 92.9213C49.2397 100.237 38.3376 132.468 41.5797 137.04C44.8218 141.612 69.6187 152.681 73.4546 152.681L75.0816 135.865L60.3674 127.896C60.3674 127.896 66.0797 115.652 65.9253 109.001C65.7709 102.351 65.8659 95.8784 60.3199 85.9858Z" fill="#B69468"/>
<path d="M60.318 85.9857L56.5771 83.7886C55.1927 85.1144 54.09 86.7059 53.335 88.4678C52.5418 90.2122 51.8711 92.0098 51.3279 93.8475L47.8483 104.809C45.4972 112.107 43.5154 119.519 41.9104 127.017C41.5292 128.891 41.2595 130.787 41.1028 132.694C41.0017 133.637 41.0017 134.588 41.1028 135.532C41.1302 135.762 41.182 135.989 41.2572 136.209C41.3122 136.427 41.4003 136.635 41.5185 136.826C41.7936 137.2 42.0995 137.549 42.4329 137.871C45.4484 140.221 48.7049 142.243 52.1474 143.904C55.5597 145.662 59.0235 147.289 62.5388 148.785C64.3083 149.534 66.1016 150.27 67.8711 150.935C68.7617 151.267 69.6643 151.588 70.5788 151.873C71.4683 152.18 72.3879 152.391 73.3221 152.503L73.1439 152.669L74.7828 135.853L74.866 136.007L60.1755 128.014H60.0686V127.896C61.5904 124.583 62.9071 121.18 64.0114 117.706C64.5691 115.972 65.0095 114.203 65.3296 112.41C65.628 110.617 65.7196 108.796 65.6028 106.982C65.6303 103.33 65.2075 99.6883 64.3439 96.1396C63.4215 92.6033 62.0695 89.1933 60.318 85.9857ZM60.318 85.9857C64.0657 92.3172 66.0084 99.5539 65.9353 106.911C66.0502 108.74 65.9626 110.576 65.674 112.386C65.3539 114.191 64.9135 115.972 64.3558 117.718C63.2617 121.206 61.9569 124.625 60.4486 127.955V127.777L75.1629 135.722H75.2579V135.829L73.5834 152.704V152.883H73.4171C72.446 152.776 71.49 152.561 70.5669 152.241C69.6406 151.956 68.738 151.636 67.8354 151.303C66.0303 150.638 64.2727 149.914 62.4913 149.154C58.9681 147.633 55.4964 145.995 52.0761 144.237C48.6175 142.545 45.3457 140.495 42.3141 138.121C41.9614 137.774 41.6358 137.401 41.3403 137.005C41.1133 136.562 40.9646 136.084 40.9009 135.591C40.7882 134.625 40.7882 133.648 40.9009 132.682C41.0658 130.768 41.3394 128.864 41.7203 126.981C43.2405 119.44 45.4612 112.089 47.6583 104.761C48.8459 101.104 50.0335 97.4578 51.2211 93.8119C51.7814 91.9758 52.4719 90.1819 53.2875 88.444C54.0565 86.678 55.1756 85.0863 56.5771 83.7649L60.318 85.9857Z" fill="#1B2E35"/>
<path d="M91.8379 84.3469C92.5861 88.836 93.0967 93.3726 93.4768 97.9092C93.643 100.177 93.7737 102.458 93.8093 104.738C93.8911 107.017 93.7639 109.299 93.4293 111.555C93.6114 109.287 93.6391 107.009 93.5124 104.738C93.4055 102.47 93.2868 100.201 93.0849 97.9329C92.883 95.6646 92.7048 93.4082 92.4911 91.1399L91.8379 84.3469Z" fill="#1B2E35"/>
<path d="M91.7085 72.7679L93.4305 80.9385L91.8392 84.3469L73.8828 76.4732L74.631 60.0013L91.7085 72.7679Z" fill="#F89E71"/>
<path d="M99.3426 43.0781L99.6277 65.3098C99.6277 65.3098 99.1883 80.7485 81.0419 71.4734C81.0419 71.4734 72.7288 67.5425 71.6599 61.7827C71.6599 61.7827 66.6483 62.3646 66.3158 57.8755C65.9833 53.3864 70.128 52.6976 71.4581 53.5408L70.4961 35.1807L99.592 38.589L99.3426 43.0781Z" fill="#FBBF9D"/>
<path d="M91.8372 84.347L84.8542 80.4755L81.7784 87.7197L71.2207 80.3804L73.3346 73.6587L85.4361 78.504L91.8372 84.347Z" fill="#E1E2E1"/>
<path d="M91.8379 84.347L93.9874 78.884L98.2865 81.7105L97.0752 83.7532L94.7356 81.0336L91.8379 84.347Z" fill="#E1E2E1"/>
<path d="M95.9589 56.6999C96.7722 56.6999 97.4315 56.0405 97.4315 55.2272C97.4315 54.4139 96.7722 53.7546 95.9589 53.7546C95.1456 53.7546 94.4863 54.4139 94.4863 55.2272C94.4863 56.0405 95.1456 56.6999 95.9589 56.6999Z" fill="#263238"/>
<path d="M83.4531 56.106C84.2664 56.106 84.9257 55.4467 84.9257 54.6334C84.9257 53.8201 84.2664 53.1608 83.4531 53.1608C82.6398 53.1608 81.9805 53.8201 81.9805 54.6334C81.9805 55.4467 82.6398 56.106 83.4531 56.106Z" fill="#263238"/>
<path d="M92.0879 51.8307C92.202 51.5507 92.4014 51.3139 92.6579 51.1538C92.9156 50.9754 93.2235 50.8839 93.5368 50.8925C93.8363 50.8899 94.1284 50.9859 94.3681 51.1657C94.6101 51.3425 94.7891 51.5922 94.8787 51.8782C94.5818 51.7951 94.3562 51.6882 94.1187 51.6407C93.9084 51.5905 93.6935 51.5626 93.4774 51.5576C93.2602 51.5357 93.0414 51.5357 92.8242 51.5576C92.6342 51.6882 92.3848 51.7595 92.0879 51.8307Z" fill="#263238"/>
<path d="M82.0645 51.2844C82.1709 51.0066 82.3674 50.7724 82.6226 50.6194C82.88 50.439 83.1872 50.3435 83.5014 50.3462C83.8116 50.3532 84.1119 50.4564 84.3608 50.6415C84.6097 50.8266 84.795 51.0845 84.8909 51.3794C84.594 51.2963 84.3684 51.1894 84.1427 51.1419C83.9345 51.0815 83.7182 51.0535 83.5014 51.0588C83.2801 51.042 83.0578 51.042 82.8364 51.0588L82.0645 51.2844Z" fill="#263238"/>
<path d="M90.8869 54.6334C91.1696 55.4401 91.4114 56.2606 91.6113 57.0917C91.825 57.9112 91.9913 58.7425 92.1457 59.5738L92.3595 60.8326V61.1533C92.3886 61.2983 92.3886 61.4477 92.3595 61.5927C92.3152 61.7439 92.2294 61.8797 92.1118 61.9847C91.9943 62.0896 91.8497 62.1595 91.6944 62.1865C90.801 62.2831 89.8991 62.1094 89.1055 61.6877C89.533 61.6877 89.9605 61.7827 90.3762 61.7827C90.776 61.8304 91.1813 61.7898 91.5638 61.664C91.8844 61.4977 91.825 61.4739 91.7182 60.9514L91.4688 59.7044C91.3262 58.8612 91.1837 58.0299 91.0887 57.1867C90.9937 56.3436 90.8987 55.5004 90.8869 54.6334Z" fill="#263238"/>
<path d="M90.8218 66.5207C90.9149 65.7062 89.8704 64.9178 88.4889 64.76C87.1074 64.6021 85.912 65.1344 85.819 65.949C85.7259 66.7635 86.7703 67.5518 88.1518 67.7097C89.5333 67.8676 90.7287 67.3353 90.8218 66.5207Z" fill="#AF3948"/>
<path d="M94.2831 66.0699C93.2496 66.3959 92.1813 66.5992 91.1003 66.6756C90.0167 66.7826 88.9242 66.7586 87.8463 66.6044C86.7514 66.4628 85.6901 66.1291 84.7111 65.6187C83.7295 65.1065 82.9078 64.3341 82.3359 63.386C83.0834 64.1257 83.9664 64.7144 84.9368 65.1199C85.8975 65.5055 86.903 65.7689 87.9295 65.9037C88.9719 66.0545 90.0234 66.1339 91.0766 66.1412C92.1454 66.1531 93.1786 66.1293 94.2831 66.0699Z" fill="#263238"/>
<path d="M95.056 39.4679C95.056 39.4679 87.7167 37.6034 84.8902 44.4439C82.0638 51.2844 73.8813 55.2272 73.8813 55.2272C73.8813 55.2272 73.4181 72.2929 76.1496 75.2024C76.1496 75.2024 68.6915 74.8699 63.7155 72.1266C58.7395 69.3833 63.3592 35.8695 70.4966 35.1807C70.4966 35.1807 72.3968 29.029 85.8403 29.7653C99.2838 30.5016 105.447 43.4819 105.352 53.1608C105.257 62.8396 105.994 73.9317 107.728 74.4186C107.728 74.4186 100.139 72.9817 97.5143 71.3903C97.5143 71.3903 99.6163 69.9058 99.6163 58.3268C99.6163 49.9187 99.4144 49.9187 99.4144 49.9187L95.056 39.4679Z" fill="#263238"/>
<path d="M0.0253906 329.56L73.1927 329.287L146.36 329.192L292.695 329.002L439.03 329.192L512.197 329.287L585.364 329.56L512.197 329.833L439.03 329.928L292.695 330.118L146.36 329.928L73.1927 329.833L0.0253906 329.56Z" fill="#1B2E35" fill-opacity="0.9"/>
<path d="M272.566 47.988L273.426 42.8058H275.273C275.675 42.8058 275.995 42.8792 276.235 43.026C276.476 43.1727 276.641 43.3726 276.731 43.6257C276.822 43.8787 276.841 44.1646 276.789 44.4835C276.735 44.8023 276.62 45.0891 276.445 45.3438C276.271 45.5968 276.039 45.7976 275.749 45.946C275.459 46.0928 275.114 46.1662 274.714 46.1662H273.441L273.55 45.5032H274.749C275.004 45.5032 275.218 45.4593 275.392 45.3716C275.568 45.2822 275.705 45.1608 275.805 45.0073C275.904 44.8521 275.969 44.6775 275.999 44.4835C276.032 44.2861 276.023 44.1123 275.974 43.9622C275.925 43.8104 275.828 43.6915 275.683 43.6054C275.54 43.5194 275.339 43.4764 275.081 43.4764H274.099L273.348 47.988H272.566ZM278.665 48.0665C278.284 48.0665 277.969 47.9847 277.719 47.821C277.471 47.6557 277.297 47.4238 277.198 47.1252C277.098 46.8249 277.082 46.4732 277.15 46.07C277.215 45.6719 277.348 45.321 277.547 45.0174C277.746 44.7137 277.994 44.4767 278.291 44.3063C278.589 44.136 278.919 44.0508 279.28 44.0508C279.499 44.0508 279.706 44.087 279.9 44.1596C280.096 44.2321 280.262 44.346 280.399 44.5012C280.535 44.6564 280.63 44.858 280.682 45.1059C280.736 45.3522 280.734 45.6517 280.677 46.0042L280.634 46.2724H277.542L277.63 45.7056H279.978C280.014 45.5066 280.005 45.3303 279.951 45.1768C279.897 45.0216 279.804 44.8993 279.672 44.8099C279.542 44.7205 279.379 44.6758 279.181 44.6758C278.979 44.6758 278.79 44.7289 278.615 44.8352C278.439 44.9415 278.292 45.0773 278.174 45.2426C278.058 45.4062 277.985 45.5749 277.954 45.7487L277.866 46.2674C277.822 46.5508 277.829 46.7785 277.888 46.9506C277.949 47.1226 278.055 47.2475 278.207 47.3251C278.359 47.4027 278.549 47.4415 278.777 47.4415C278.923 47.4415 279.059 47.4212 279.184 47.3807C279.31 47.3386 279.423 47.277 279.52 47.196C279.618 47.1134 279.7 47.0105 279.766 46.8873L280.459 47.0164C280.366 47.2272 280.233 47.412 280.059 47.5705C279.886 47.7274 279.681 47.8497 279.445 47.9374C279.21 48.0235 278.95 48.0665 278.665 48.0665ZM284.6 45.0503L283.894 45.1717C283.878 45.0823 283.847 44.998 283.8 44.9187C283.754 44.8394 283.684 44.7753 283.59 44.7264C283.495 44.6758 283.37 44.6505 283.213 44.6505C282.995 44.6505 282.805 44.7002 282.641 44.7998C282.479 44.8993 282.386 45.0258 282.363 45.1793C282.341 45.3042 282.37 45.4054 282.451 45.483C282.532 45.5589 282.675 45.6221 282.879 45.6727L283.476 45.8144C283.82 45.8971 284.067 46.0262 284.215 46.2016C284.365 46.3753 284.417 46.6014 284.372 46.8797C284.333 47.1108 284.232 47.3158 284.068 47.4946C283.906 47.6734 283.699 47.8134 283.446 47.9147C283.193 48.0159 282.911 48.0665 282.601 48.0665C282.159 48.0665 281.814 47.9729 281.568 47.7856C281.322 47.5984 281.195 47.3335 281.189 46.9911L281.938 46.8797C281.951 47.0704 282.019 47.2146 282.143 47.3124C282.267 47.4086 282.44 47.4567 282.661 47.4567C282.914 47.4583 283.126 47.4052 283.296 47.2972C283.467 47.1893 283.564 47.0585 283.587 46.905C283.608 46.7853 283.581 46.6857 283.506 46.6065C283.434 46.5272 283.306 46.4664 283.122 46.4243L282.494 46.28C282.143 46.1974 281.895 46.0641 281.75 45.8802C281.605 45.6964 281.556 45.4653 281.604 45.1869C281.641 44.9592 281.737 44.761 281.892 44.5923C282.049 44.4219 282.247 44.2895 282.487 44.195C282.726 44.0989 282.991 44.0508 283.281 44.0508C283.705 44.0508 284.023 44.1419 284.235 44.3241C284.448 44.5046 284.569 44.7466 284.6 45.0503ZM286.681 48.0665C286.3 48.0665 285.985 47.9847 285.735 47.821C285.487 47.6557 285.313 47.4238 285.214 47.1252C285.114 46.8249 285.098 46.4732 285.166 46.07C285.232 45.6719 285.364 45.321 285.563 45.0174C285.762 44.7137 286.01 44.4767 286.307 44.3063C286.606 44.136 286.935 44.0508 287.296 44.0508C287.516 44.0508 287.722 44.087 287.916 44.1596C288.112 44.2321 288.278 44.346 288.415 44.5012C288.551 44.6564 288.646 44.858 288.698 45.1059C288.752 45.3522 288.75 45.6517 288.693 46.0042L288.65 46.2724H285.558L285.647 45.7056H287.995C288.03 45.5066 288.021 45.3303 287.967 45.1768C287.913 45.0216 287.82 44.8993 287.689 44.8099C287.559 44.7205 287.395 44.6758 287.198 44.6758C286.995 44.6758 286.806 44.7289 286.631 44.8352C286.455 44.9415 286.309 45.0773 286.191 45.2426C286.074 45.4062 286.001 45.5749 285.97 45.7487L285.882 46.2674C285.838 46.5508 285.846 46.7785 285.905 46.9506C285.965 47.1226 286.072 47.2475 286.223 47.3251C286.375 47.4027 286.565 47.4415 286.793 47.4415C286.94 47.4415 287.075 47.4212 287.2 47.3807C287.327 47.3386 287.439 47.277 287.537 47.196C287.635 47.1134 287.716 47.0105 287.782 46.8873L288.475 47.0164C288.383 47.2272 288.249 47.412 288.076 47.5705C287.902 47.7274 287.697 47.8497 287.461 47.9374C287.226 48.0235 286.967 48.0665 286.681 48.0665ZM289.212 47.988L289.86 44.1014H290.592L290.488 44.7188H290.528C290.633 44.5096 290.786 44.3451 290.986 44.2254C291.187 44.1039 291.401 44.0432 291.629 44.0432C291.678 44.0432 291.734 44.0449 291.796 44.0482C291.858 44.0499 291.909 44.0541 291.948 44.0609L291.826 44.7846C291.798 44.7761 291.745 44.7669 291.669 44.7567C291.594 44.7449 291.515 44.739 291.434 44.739C291.257 44.739 291.093 44.777 290.941 44.8529C290.789 44.9271 290.662 45.0309 290.559 45.1641C290.456 45.2957 290.389 45.4459 290.359 45.6145L289.969 47.988H289.212ZM294.653 44.1014L294.554 44.7087H292.431L292.53 44.1014H294.653ZM293.251 43.1702H294.008L293.395 46.8468C293.372 46.9936 293.376 47.1041 293.408 47.1783C293.44 47.2509 293.489 47.3006 293.555 47.3276C293.622 47.3529 293.697 47.3656 293.78 47.3656C293.841 47.3656 293.894 47.3613 293.939 47.3529C293.985 47.3445 294.021 47.3377 294.048 47.3327L294.088 47.9577C294.038 47.9745 293.97 47.9914 293.884 48.0083C293.799 48.0268 293.696 48.037 293.575 48.0386C293.376 48.042 293.196 48.0066 293.036 47.9324C292.876 47.8565 292.756 47.7417 292.677 47.5882C292.597 47.433 292.578 47.2382 292.618 47.0037L293.251 43.1702ZM295.963 48.0741C295.717 48.0741 295.501 48.0285 295.318 47.9374C295.134 47.8446 294.998 47.7105 294.91 47.5351C294.823 47.3597 294.8 47.1446 294.842 46.8899C294.879 46.6706 294.952 46.4901 295.06 46.3484C295.169 46.2067 295.302 46.0945 295.459 46.0118C295.616 45.9275 295.787 45.8642 295.97 45.822C296.154 45.7799 296.34 45.7487 296.527 45.7284C296.763 45.7014 296.955 45.6786 297.102 45.6601C297.25 45.6415 297.361 45.6129 297.436 45.5741C297.51 45.5336 297.554 45.4678 297.57 45.3767V45.359C297.605 45.1397 297.573 44.9693 297.473 44.8478C297.376 44.7247 297.205 44.6631 296.962 44.6631C296.709 44.6631 296.497 44.7188 296.325 44.8301C296.154 44.9415 296.029 45.0663 295.948 45.2046L295.27 45.0427C295.391 44.8065 295.545 44.6159 295.733 44.4708C295.922 44.3241 296.128 44.2178 296.353 44.152C296.577 44.0845 296.806 44.0508 297.041 44.0508C297.196 44.0508 297.357 44.0693 297.524 44.1064C297.691 44.1419 297.843 44.2077 297.98 44.3038C298.118 44.4 298.221 44.5375 298.288 44.7163C298.356 44.8934 298.366 45.1237 298.319 45.4071L297.891 47.988H297.152L297.243 47.4567H297.213C297.149 47.5545 297.059 47.6507 296.945 47.7451C296.832 47.8396 296.693 47.918 296.53 47.9804C296.366 48.0429 296.177 48.0741 295.963 48.0741ZM296.221 47.4668C296.432 47.4668 296.618 47.4255 296.78 47.3428C296.944 47.2601 297.076 47.1522 297.177 47.0189C297.279 46.884 297.342 46.7397 297.367 46.5862L297.451 46.0852C297.419 46.1122 297.362 46.1366 297.281 46.1586C297.202 46.1805 297.112 46.1999 297.013 46.2168C296.913 46.2336 296.816 46.248 296.719 46.2598C296.625 46.2716 296.547 46.2826 296.484 46.2927C296.336 46.3112 296.197 46.3425 296.067 46.3863C295.938 46.4302 295.831 46.4934 295.745 46.5761C295.659 46.6571 295.605 46.765 295.583 46.9C295.553 47.0872 295.598 47.2289 295.717 47.3251C295.839 47.4195 296.007 47.4668 296.221 47.4668ZM302.546 47.988H300.845L301.706 42.8058H303.414C303.923 42.8058 304.344 42.9121 304.676 43.1247C305.009 43.3355 305.241 43.6375 305.375 44.0305C305.508 44.4219 305.529 44.89 305.438 45.4349C305.35 45.968 305.178 46.4251 304.922 46.8064C304.667 47.1859 304.339 47.4777 303.937 47.6819C303.536 47.886 303.072 47.988 302.546 47.988ZM301.744 47.3048H302.579C302.973 47.3048 303.315 47.2281 303.603 47.0746C303.893 46.9211 304.129 46.6984 304.309 46.4066C304.49 46.1147 304.615 45.7596 304.684 45.3413C304.751 44.9432 304.745 44.6066 304.666 44.3316C304.587 44.055 304.433 43.8458 304.206 43.7041C303.978 43.5607 303.675 43.489 303.297 43.489H302.374L301.744 47.3048ZM305.927 47.988L306.575 44.1014H307.331L306.683 47.988H305.927ZM307.111 43.4941C306.979 43.4941 306.868 43.4502 306.777 43.3625C306.688 43.2731 306.646 43.1668 306.653 43.0437C306.66 42.9189 306.712 42.8126 306.81 42.7249C306.908 42.6355 307.022 42.5907 307.152 42.5907C307.283 42.5907 307.394 42.6355 307.483 42.7249C307.572 42.8126 307.615 42.9189 307.61 43.0437C307.603 43.1668 307.551 43.2731 307.453 43.3625C307.357 43.4502 307.243 43.4941 307.111 43.4941ZM309.151 48.0639C308.836 48.0639 308.568 47.9838 308.349 47.8236C308.131 47.6616 307.977 47.4314 307.886 47.1328C307.797 46.8325 307.786 46.4723 307.856 46.0523C307.926 45.6323 308.057 45.2729 308.248 44.9744C308.438 44.6758 308.67 44.4472 308.941 44.2886C309.213 44.1301 309.505 44.0508 309.819 44.0508C310.06 44.0508 310.248 44.0913 310.381 44.1722C310.516 44.2515 310.615 44.3443 310.68 44.4506C310.744 44.5568 310.792 44.6505 310.824 44.7314H310.867L311.188 42.8058H311.945L311.084 47.988H310.346L310.449 47.3833H310.386C310.327 47.4659 310.245 47.5604 310.141 47.6667C310.038 47.773 309.906 47.8657 309.746 47.945C309.586 48.0243 309.387 48.0639 309.151 48.0639ZM309.407 47.4187C309.624 47.4187 309.819 47.3613 309.991 47.2466C310.165 47.1302 310.309 46.9691 310.424 46.7633C310.54 46.5575 310.621 46.318 310.667 46.0447C310.712 45.7748 310.712 45.5386 310.664 45.3362C310.617 45.1338 310.526 44.976 310.391 44.863C310.256 44.75 310.078 44.6935 309.857 44.6935C309.629 44.6935 309.431 44.7525 309.263 44.8706C309.094 44.9887 308.955 45.1498 308.848 45.3539C308.741 45.558 308.667 45.7883 308.625 46.0447C308.581 46.3045 308.579 46.5381 308.62 46.7456C308.66 46.9531 308.745 47.1176 308.875 47.239C309.005 47.3588 309.182 47.4187 309.407 47.4187ZM312.162 47.988L312.809 44.1014H313.566L312.918 47.988H312.162ZM313.346 43.4941C313.214 43.4941 313.103 43.4502 313.012 43.3625C312.922 43.2731 312.881 43.1668 312.888 43.0437C312.895 42.9189 312.947 42.8126 313.045 42.7249C313.143 42.6355 313.256 42.5907 313.386 42.5907C313.518 42.5907 313.628 42.6355 313.718 42.7249C313.807 42.8126 313.849 42.9189 313.844 43.0437C313.838 43.1668 313.785 43.2731 313.687 43.3625C313.591 43.4502 313.477 43.4941 313.346 43.4941ZM314.85 46.6697L314.994 45.7461H315.128L316.955 44.1014H317.861L315.786 45.9739H315.667L314.85 46.6697ZM313.936 47.988L314.796 42.8058H315.553L314.693 47.988H313.936ZM316.391 47.988L315.308 46.1409L315.912 45.612L317.319 47.988H316.391Z" fill="#E1E2E1"/>
<path d="M323.619 89.9552H324.568L325.555 93.9836H325.616L327.929 89.9552H328.878L328.017 95.1375H327.273L327.898 91.3874H327.85L325.699 95.1299H325.079L324.179 91.3849H324.131L323.503 95.1375H322.759L323.619 89.9552ZM330.758 95.2159C330.377 95.2159 330.062 95.1341 329.812 94.9704C329.564 94.8051 329.39 94.5732 329.291 94.2746C329.191 93.9743 329.175 93.6226 329.243 93.2194C329.308 92.8213 329.441 92.4704 329.64 92.1668C329.839 91.8631 330.087 91.6261 330.384 91.4558C330.682 91.2854 331.012 91.2002 331.373 91.2002C331.592 91.2002 331.799 91.2365 331.993 91.309C332.189 91.3815 332.355 91.4954 332.492 91.6506C332.628 91.8058 332.723 92.0074 332.775 92.2554C332.829 92.5016 332.827 92.8011 332.77 93.1536L332.727 93.4219H329.635L329.723 92.8551H332.072C332.107 92.656 332.098 92.4797 332.044 92.3262C331.99 92.171 331.897 92.0487 331.765 91.9593C331.635 91.8699 331.472 91.8252 331.274 91.8252C331.072 91.8252 330.883 91.8783 330.708 91.9846C330.532 92.0909 330.385 92.2267 330.267 92.392C330.151 92.5556 330.078 92.7243 330.047 92.8981L329.959 93.4168C329.915 93.7002 329.922 93.9279 329.981 94.1C330.042 94.2721 330.148 94.3969 330.3 94.4745C330.452 94.5521 330.642 94.5909 330.87 94.5909C331.016 94.5909 331.152 94.5706 331.277 94.5302C331.404 94.488 331.516 94.4264 331.614 94.3454C331.711 94.2628 331.793 94.1599 331.859 94.0367L332.552 94.1658C332.46 94.3767 332.326 94.5614 332.152 94.7199C331.979 94.8768 331.774 94.9991 331.538 95.0868C331.303 95.1729 331.043 95.2159 330.758 95.2159ZM335.751 91.2508L335.653 91.8581H333.53L333.628 91.2508H335.751ZM334.349 90.3196H335.106L334.494 93.9963C334.47 94.143 334.474 94.2535 334.506 94.3277C334.538 94.4003 334.587 94.45 334.653 94.477C334.721 94.5023 334.796 94.515 334.878 94.515C334.939 94.515 334.992 94.5108 335.038 94.5023C335.083 94.4939 335.12 94.4871 335.147 94.4821L335.187 95.1071C335.136 95.124 335.068 95.1408 334.982 95.1577C334.898 95.1763 334.795 95.1864 334.673 95.1881C334.474 95.1914 334.295 95.156 334.134 95.0818C333.974 95.0059 333.854 94.8912 333.775 94.7377C333.696 94.5825 333.676 94.3876 333.717 94.1531L334.349 90.3196ZM337.554 95.2159C337.184 95.2159 336.875 95.1315 336.627 94.9629C336.379 94.7925 336.205 94.5546 336.104 94.2493C336.004 93.9423 335.987 93.5855 336.053 93.1789C336.117 92.7808 336.246 92.4333 336.44 92.1364C336.636 91.8395 336.881 91.6093 337.174 91.4456C337.469 91.282 337.797 91.2002 338.158 91.2002C338.528 91.2002 338.836 91.2854 339.082 91.4558C339.33 91.6261 339.505 91.8648 339.606 92.1719C339.707 92.4789 339.725 92.8365 339.659 93.2447C339.595 93.6395 339.464 93.9853 339.267 94.2822C339.071 94.5774 338.826 94.8068 338.533 94.9704C338.239 95.1341 337.913 95.2159 337.554 95.2159ZM337.597 94.5808C337.84 94.5808 338.051 94.5167 338.232 94.3885C338.414 94.2603 338.562 94.0899 338.677 93.8773C338.792 93.6648 338.87 93.432 338.912 93.1789C338.951 92.9343 338.95 92.7108 338.91 92.5084C338.871 92.3043 338.787 92.1406 338.657 92.0175C338.527 91.8944 338.346 91.8328 338.115 91.8328C337.872 91.8328 337.659 91.8977 337.475 92.0276C337.293 92.1558 337.145 92.327 337.03 92.5413C336.917 92.7555 336.84 92.9892 336.8 93.2422C336.761 93.4851 336.761 93.7086 336.8 93.9128C336.838 94.1152 336.923 94.2771 337.053 94.3986C337.182 94.52 337.364 94.5808 337.597 94.5808ZM341.642 95.2134C341.327 95.2134 341.059 95.1332 340.84 94.973C340.622 94.811 340.468 94.5808 340.377 94.2822C340.287 93.9819 340.277 93.6218 340.346 93.2017C340.417 92.7817 340.548 92.4224 340.739 92.1238C340.929 91.8252 341.16 91.5966 341.432 91.438C341.704 91.2795 341.996 91.2002 342.31 91.2002C342.551 91.2002 342.739 91.2407 342.872 91.3216C343.007 91.4009 343.106 91.4937 343.17 91.6C343.234 91.7063 343.283 91.7999 343.315 91.8809H343.358L343.679 89.9552H344.436L343.575 95.1375H342.836L342.94 94.5327H342.877C342.818 94.6154 342.736 94.7098 342.631 94.8161C342.529 94.9224 342.397 95.0151 342.237 95.0944C342.076 95.1737 341.878 95.2134 341.642 95.2134ZM341.898 94.5681C342.115 94.5681 342.31 94.5108 342.482 94.3961C342.656 94.2797 342.8 94.1186 342.915 93.9128C343.031 93.7069 343.112 93.4674 343.158 93.1941C343.203 92.9242 343.202 92.688 343.155 92.4856C343.108 92.2832 343.017 92.1255 342.882 92.0124C342.747 91.8994 342.569 91.8429 342.348 91.8429C342.12 91.8429 341.922 91.9019 341.753 92.02C341.585 92.1381 341.446 92.2992 341.338 92.5033C341.232 92.7074 341.158 92.9377 341.116 93.1941C341.072 93.4539 341.07 93.6875 341.111 93.895C341.151 94.1025 341.236 94.267 341.366 94.3885C341.496 94.5082 341.673 94.5681 341.898 94.5681ZM346.318 95.2159C345.936 95.2159 345.621 95.1341 345.371 94.9704C345.123 94.8051 344.949 94.5732 344.85 94.2746C344.75 93.9743 344.734 93.6226 344.802 93.2194C344.868 92.8213 345 92.4704 345.199 92.1668C345.398 91.8631 345.646 91.6261 345.943 91.4558C346.242 91.2854 346.571 91.2002 346.932 91.2002C347.152 91.2002 347.358 91.2365 347.552 91.309C347.748 91.3815 347.914 91.4954 348.051 91.6506C348.187 91.8058 348.282 92.0074 348.334 92.2554C348.388 92.5016 348.387 92.8011 348.329 93.1536L348.286 93.4219H345.194L345.283 92.8551H347.631C347.666 92.656 347.657 92.4797 347.603 92.3262C347.549 92.171 347.456 92.0487 347.325 91.9593C347.195 91.8699 347.031 91.8252 346.834 91.8252C346.631 91.8252 346.442 91.8783 346.267 91.9846C346.091 92.0909 345.945 92.2267 345.827 92.392C345.71 92.5556 345.637 92.7243 345.606 92.8981L345.518 93.4168C345.474 93.7002 345.482 93.9279 345.541 94.1C345.601 94.2721 345.708 94.3969 345.86 94.4745C346.011 94.5521 346.201 94.5909 346.429 94.5909C346.576 94.5909 346.711 94.5706 346.836 94.5302C346.963 94.488 347.075 94.4264 347.173 94.3454C347.271 94.2628 347.352 94.1599 347.418 94.0367L348.112 94.1658C348.019 94.3767 347.886 94.5614 347.712 94.7199C347.538 94.8768 347.333 94.9991 347.097 95.0868C346.862 95.1729 346.603 95.2159 346.318 95.2159Z" fill="#E1E2E1"/>
<path d="M282.221 89.9552H283.17L284.157 93.9836H284.217L286.53 89.9552H287.479L286.619 95.1375H285.875L286.5 91.3874H286.452L284.301 95.1299H283.681L282.78 91.3849H282.732L282.105 95.1375H281.361L282.221 89.9552ZM288.816 95.2235C288.57 95.2235 288.354 95.1779 288.171 95.0868C287.987 94.9941 287.851 94.86 287.763 94.6845C287.675 94.5091 287.653 94.294 287.695 94.0393C287.732 93.82 287.804 93.6395 287.912 93.4978C288.022 93.3561 288.155 93.2439 288.312 93.1612C288.469 93.0769 288.64 93.0136 288.823 92.9715C289.007 92.9293 289.193 92.8981 289.38 92.8778C289.616 92.8508 289.808 92.8281 289.954 92.8095C290.103 92.791 290.214 92.7623 290.288 92.7235C290.363 92.683 290.407 92.6172 290.423 92.5261V92.5084C290.458 92.2891 290.426 92.1187 290.326 91.9973C290.229 91.8741 290.058 91.8125 289.815 91.8125C289.562 91.8125 289.35 91.8682 289.178 91.9795C289.007 92.0909 288.882 92.2157 288.801 92.354L288.122 92.1921C288.244 91.9559 288.398 91.7653 288.586 91.6202C288.774 91.4735 288.981 91.3672 289.205 91.3014C289.43 91.2339 289.659 91.2002 289.894 91.2002C290.049 91.2002 290.21 91.2187 290.377 91.2559C290.544 91.2913 290.696 91.3571 290.833 91.4532C290.971 91.5494 291.074 91.6869 291.141 91.8657C291.209 92.0428 291.219 92.2731 291.172 92.5565L290.744 95.1375H290.005L290.096 94.6061H290.066C290.002 94.7039 289.912 94.8001 289.798 94.8945C289.685 94.989 289.546 95.0674 289.383 95.1299C289.219 95.1923 289.03 95.2235 288.816 95.2235ZM289.074 94.6162C289.285 94.6162 289.471 94.5749 289.633 94.4922C289.797 94.4095 289.929 94.3016 290.03 94.1683C290.132 94.0334 290.195 93.8891 290.22 93.7356L290.304 93.2346C290.272 93.2616 290.215 93.2861 290.134 93.308C290.055 93.3299 289.965 93.3493 289.866 93.3662C289.766 93.3831 289.669 93.3974 289.572 93.4092C289.478 93.421 289.399 93.432 289.337 93.4421C289.189 93.4607 289.049 93.4919 288.92 93.5357C288.791 93.5796 288.684 93.6428 288.598 93.7255C288.512 93.8065 288.458 93.9144 288.436 94.0494C288.406 94.2366 288.451 94.3783 288.57 94.4745C288.692 94.569 288.86 94.6162 289.074 94.6162ZM294.214 91.2508L294.115 91.8581H291.992L292.091 91.2508H294.214ZM292.812 90.3196H293.568L292.956 93.9963C292.933 94.143 292.937 94.2535 292.969 94.3277C293.001 94.4003 293.05 94.45 293.116 94.477C293.183 94.5023 293.258 94.515 293.341 94.515C293.401 94.515 293.455 94.5108 293.5 94.5023C293.546 94.4939 293.582 94.4871 293.609 94.4821L293.649 95.1071C293.599 95.124 293.531 95.1408 293.444 95.1577C293.36 95.1763 293.257 95.1864 293.136 95.1881C292.937 95.1914 292.757 95.156 292.597 95.0818C292.437 95.0059 292.317 94.8912 292.237 94.7377C292.158 94.5825 292.139 94.3876 292.179 94.1531L292.812 90.3196ZM296.026 95.2159C295.645 95.2159 295.329 95.1341 295.08 94.9704C294.832 94.8051 294.658 94.5732 294.558 94.2746C294.459 93.9743 294.443 93.6226 294.51 93.2194C294.576 92.8213 294.709 92.4704 294.908 92.1668C295.107 91.8631 295.355 91.6261 295.652 91.4558C295.95 91.2854 296.28 91.2002 296.641 91.2002C296.86 91.2002 297.067 91.2365 297.261 91.309C297.457 91.3815 297.623 91.4954 297.759 91.6506C297.896 91.8058 297.991 92.0074 298.043 92.2554C298.097 92.5016 298.095 92.8011 298.038 93.1536L297.995 93.4219H294.903L294.991 92.8551H297.339C297.375 92.656 297.366 92.4797 297.312 92.3262C297.258 92.171 297.165 92.0487 297.033 91.9593C296.903 91.8699 296.74 91.8252 296.542 91.8252C296.34 91.8252 296.151 91.8783 295.975 91.9846C295.8 92.0909 295.653 92.2267 295.535 92.392C295.419 92.5556 295.345 92.7243 295.315 92.8981L295.226 93.4168C295.183 93.7002 295.19 93.9279 295.249 94.1C295.31 94.2721 295.416 94.3969 295.568 94.4745C295.72 94.5521 295.91 94.5909 296.137 94.5909C296.284 94.5909 296.42 94.5706 296.545 94.5302C296.671 94.488 296.784 94.4264 296.881 94.3454C296.979 94.2628 297.061 94.1599 297.127 94.0367L297.82 94.1658C297.727 94.3767 297.594 94.5614 297.42 94.7199C297.247 94.8768 297.042 94.9991 296.805 95.0868C296.571 95.1729 296.311 95.2159 296.026 95.2159ZM298.557 95.1375L299.205 91.2508H299.936L299.832 91.8682H299.873C299.977 91.659 300.13 91.4946 300.331 91.3748C300.532 91.2533 300.746 91.1926 300.974 91.1926C301.023 91.1926 301.078 91.1943 301.141 91.1977C301.203 91.1993 301.254 91.2036 301.292 91.2103L301.171 91.934C301.142 91.9256 301.09 91.9163 301.014 91.9062C300.938 91.8944 300.86 91.8885 300.779 91.8885C300.602 91.8885 300.437 91.9264 300.285 92.0023C300.134 92.0765 300.006 92.1803 299.903 92.3136C299.8 92.4451 299.734 92.5953 299.703 92.764L299.314 95.1375H298.557ZM301.306 95.1375L301.953 91.2508H302.71L302.062 95.1375H301.306ZM302.49 90.6435C302.358 90.6435 302.247 90.5996 302.156 90.5119C302.067 90.4225 302.025 90.3162 302.032 90.1931C302.039 90.0683 302.091 89.962 302.189 89.8743C302.287 89.7849 302.401 89.7402 302.53 89.7402C302.662 89.7402 302.772 89.7849 302.862 89.8743C302.951 89.962 302.993 90.0683 302.988 90.1931C302.982 90.3162 302.929 90.4225 302.832 90.5119C302.735 90.5996 302.622 90.6435 302.49 90.6435Z" fill="#E1E2E1"/>
<path d="M242.202 90.6283L242.313 89.9552H246.324L246.212 90.6283H244.595L243.847 95.1375H243.067L243.816 90.6283H242.202ZM248.49 93.5256L248.87 91.2508H249.629L248.981 95.1375H248.237L248.351 94.4644H248.311C248.189 94.6719 248.017 94.8448 247.795 94.9831C247.574 95.1197 247.317 95.1881 247.025 95.1881C246.776 95.1881 246.564 95.1332 246.39 95.0236C246.218 94.9122 246.096 94.7478 246.023 94.5302C245.951 94.3125 245.941 94.0435 245.993 93.723L246.408 91.2508H247.164L246.767 93.6319C246.725 93.8967 246.765 94.1076 246.886 94.2645C247.008 94.4214 247.185 94.4998 247.417 94.4998C247.559 94.4998 247.706 94.4644 247.858 94.3935C248.01 94.3227 248.144 94.2156 248.26 94.0722C248.378 93.9288 248.455 93.7466 248.49 93.5256ZM250.646 91.2508H251.402L250.716 95.3905C250.673 95.6503 250.588 95.8696 250.463 96.0484C250.339 96.2272 250.177 96.363 249.978 96.4558C249.779 96.5486 249.545 96.5949 249.277 96.5949C249.251 96.5949 249.227 96.5949 249.203 96.5949C249.178 96.5949 249.152 96.5941 249.125 96.5924L249.234 95.9421C249.256 95.9421 249.276 95.9421 249.294 95.9421C249.313 95.9421 249.333 95.9421 249.355 95.9421C249.534 95.9421 249.672 95.894 249.77 95.7979C249.866 95.7017 249.93 95.5642 249.962 95.3854L250.646 91.2508ZM251.164 90.6511C251.034 90.6511 250.924 90.6072 250.833 90.5195C250.743 90.4301 250.702 90.3238 250.709 90.2007C250.714 90.0759 250.765 89.9696 250.863 89.8819C250.961 89.7925 251.076 89.7478 251.207 89.7478C251.339 89.7478 251.449 89.7925 251.539 89.8819C251.628 89.9696 251.67 90.0759 251.663 90.2007C251.658 90.3238 251.606 90.4301 251.508 90.5195C251.411 90.6072 251.296 90.6511 251.164 90.6511ZM254.503 93.5256L254.882 91.2508H255.641L254.993 95.1375H254.25L254.363 94.4644H254.323C254.201 94.6719 254.029 94.8448 253.807 94.9831C253.586 95.1197 253.329 95.1881 253.037 95.1881C252.788 95.1881 252.576 95.1332 252.402 95.0236C252.23 94.9122 252.108 94.7478 252.035 94.5302C251.963 94.3125 251.953 94.0435 252.005 93.723L252.42 91.2508H253.177L252.779 93.6319C252.737 93.8967 252.777 94.1076 252.898 94.2645C253.02 94.4214 253.197 94.4998 253.43 94.4998C253.571 94.4998 253.718 94.4644 253.87 94.3935C254.022 94.3227 254.156 94.2156 254.272 94.0722C254.39 93.9288 254.467 93.7466 254.503 93.5256ZM257.131 95.2235C256.885 95.2235 256.67 95.1779 256.486 95.0868C256.302 94.9941 256.166 94.86 256.078 94.6845C255.991 94.5091 255.968 94.294 256.01 94.0393C256.047 93.82 256.12 93.6395 256.228 93.4978C256.337 93.3561 256.471 93.2439 256.627 93.1612C256.784 93.0769 256.955 93.0136 257.139 92.9715C257.322 92.9293 257.508 92.8981 257.695 92.8778C257.931 92.8508 258.123 92.8281 258.27 92.8095C258.418 92.791 258.529 92.7623 258.604 92.7235C258.678 92.683 258.723 92.6172 258.738 92.5261V92.5084C258.773 92.2891 258.741 92.1187 258.642 91.9973C258.544 91.8741 258.373 91.8125 258.13 91.8125C257.877 91.8125 257.665 91.8682 257.493 91.9795C257.322 92.0909 257.197 92.2157 257.116 92.354L256.438 92.1921C256.559 91.9559 256.713 91.7653 256.901 91.6202C257.09 91.4735 257.296 91.3672 257.521 91.3014C257.745 91.2339 257.974 91.2002 258.209 91.2002C258.364 91.2002 258.525 91.2187 258.692 91.2559C258.859 91.2913 259.011 91.3571 259.148 91.4532C259.286 91.5494 259.389 91.6869 259.456 91.8657C259.524 92.0428 259.534 92.2731 259.487 92.5565L259.059 95.1375H258.32L258.411 94.6061H258.381C258.317 94.7039 258.227 94.8001 258.113 94.8945C258 94.989 257.861 95.0674 257.698 95.1299C257.534 95.1923 257.345 95.2235 257.131 95.2235ZM257.389 94.6162C257.6 94.6162 257.786 94.5749 257.948 94.4922C258.112 94.4095 258.244 94.3016 258.346 94.1683C258.447 94.0334 258.51 93.8891 258.535 93.7356L258.619 93.2346C258.587 93.2616 258.53 93.2861 258.449 93.308C258.37 93.3299 258.281 93.3493 258.181 93.3662C258.082 93.3831 257.984 93.3974 257.888 93.4092C257.793 93.421 257.715 93.432 257.652 93.4421C257.504 93.4607 257.365 93.4919 257.235 93.5357C257.107 93.5796 256.999 93.6428 256.913 93.7255C256.827 93.8065 256.773 93.9144 256.751 94.0494C256.721 94.2366 256.766 94.3783 256.886 94.4745C257.007 94.569 257.175 94.6162 257.389 94.6162ZM261.206 92.8297L260.826 95.1375H260.069L260.717 91.2508H261.443L261.337 91.8834H261.385C261.508 91.6759 261.676 91.5106 261.889 91.3874C262.103 91.2626 262.356 91.2002 262.648 91.2002C262.911 91.2002 263.132 91.2559 263.311 91.3672C263.491 91.4768 263.619 91.6405 263.693 91.8581C263.769 92.0757 263.781 92.3448 263.728 92.6653L263.313 95.1375H262.557L262.954 92.7564C263 92.4747 262.962 92.2545 262.843 92.0959C262.725 91.9357 262.536 91.8556 262.278 91.8556C262.103 91.8556 261.94 91.8935 261.79 91.9694C261.642 92.0453 261.516 92.1567 261.413 92.3034C261.312 92.4485 261.243 92.6239 261.206 92.8297Z" fill="#E1E2E1"/>
<path d="M284.527 143.073H283.697L286.422 137.891H287.326L288.33 143.073H287.5L286.744 138.832H286.703L284.527 143.073ZM285.003 141.044H287.695L287.584 141.702H284.891L285.003 141.044ZM292.393 140.135L291.687 140.257C291.672 140.168 291.641 140.083 291.594 140.004C291.548 139.925 291.478 139.861 291.384 139.812C291.289 139.761 291.163 139.736 291.007 139.736C290.789 139.736 290.598 139.785 290.435 139.885C290.273 139.984 290.18 140.111 290.156 140.265C290.134 140.389 290.164 140.491 290.245 140.568C290.326 140.644 290.468 140.707 290.673 140.758L291.27 140.9C291.614 140.982 291.86 141.111 292.009 141.287C292.159 141.461 292.211 141.687 292.166 141.965C292.127 142.196 292.026 142.401 291.862 142.58C291.7 142.759 291.492 142.899 291.239 143C290.986 143.101 290.705 143.152 290.394 143.152C289.952 143.152 289.608 143.058 289.362 142.871C289.116 142.684 288.989 142.419 288.982 142.076L289.731 141.965C289.745 142.156 289.813 142.3 289.936 142.398C290.061 142.494 290.234 142.542 290.455 142.542C290.708 142.544 290.92 142.49 291.09 142.382C291.26 142.274 291.357 142.144 291.381 141.99C291.401 141.87 291.374 141.771 291.3 141.692C291.228 141.612 291.099 141.552 290.916 141.509L290.288 141.365C289.937 141.283 289.689 141.149 289.544 140.965C289.399 140.782 289.35 140.55 289.397 140.272C289.434 140.044 289.531 139.846 289.686 139.677C289.843 139.507 290.041 139.375 290.28 139.28C290.52 139.184 290.785 139.136 291.075 139.136C291.498 139.136 291.816 139.227 292.029 139.409C292.241 139.59 292.363 139.832 292.393 140.135ZM294.475 143.152C294.094 143.152 293.778 143.07 293.529 142.906C293.281 142.741 293.107 142.509 293.008 142.21C292.908 141.91 292.892 141.558 292.959 141.155C293.025 140.757 293.158 140.406 293.357 140.103C293.556 139.799 293.804 139.562 294.101 139.392C294.399 139.221 294.729 139.136 295.09 139.136C295.309 139.136 295.516 139.172 295.71 139.245C295.906 139.317 296.072 139.431 296.208 139.586C296.345 139.742 296.44 139.943 296.492 140.191C296.546 140.437 296.544 140.737 296.487 141.089L296.444 141.358H293.352L293.44 140.791H295.788C295.824 140.592 295.815 140.416 295.761 140.262C295.707 140.107 295.614 139.984 295.482 139.895C295.352 139.806 295.189 139.761 294.991 139.761C294.789 139.761 294.6 139.814 294.425 139.92C294.249 140.027 294.102 140.162 293.984 140.328C293.868 140.491 293.794 140.66 293.764 140.834L293.676 141.353C293.632 141.636 293.639 141.864 293.698 142.036C293.759 142.208 293.865 142.333 294.017 142.41C294.169 142.488 294.359 142.527 294.586 142.527C294.733 142.527 294.869 142.506 294.994 142.466C295.12 142.424 295.233 142.362 295.33 142.281C295.428 142.199 295.51 142.096 295.576 141.973L296.269 142.102C296.176 142.312 296.043 142.497 295.869 142.656C295.696 142.813 295.491 142.935 295.254 143.023C295.02 143.109 294.76 143.152 294.475 143.152ZM300.409 140.135L299.704 140.257C299.688 140.168 299.657 140.083 299.61 140.004C299.564 139.925 299.494 139.861 299.4 139.812C299.305 139.761 299.18 139.736 299.023 139.736C298.805 139.736 298.615 139.785 298.451 139.885C298.289 139.984 298.196 140.111 298.173 140.265C298.151 140.389 298.18 140.491 298.261 140.568C298.342 140.644 298.485 140.707 298.689 140.758L299.286 140.9C299.63 140.982 299.876 141.111 300.025 141.287C300.175 141.461 300.227 141.687 300.182 141.965C300.143 142.196 300.042 142.401 299.878 142.58C299.716 142.759 299.509 142.899 299.256 143C299.003 143.101 298.721 143.152 298.41 143.152C297.969 143.152 297.624 143.058 297.378 142.871C297.132 142.684 297.005 142.419 296.999 142.076L297.748 141.965C297.761 142.156 297.829 142.3 297.952 142.398C298.077 142.494 298.25 142.542 298.471 142.542C298.724 142.544 298.936 142.49 299.106 142.382C299.277 142.274 299.374 142.144 299.397 141.99C299.418 141.87 299.391 141.771 299.316 141.692C299.244 141.612 299.116 141.552 298.932 141.509L298.304 141.365C297.953 141.283 297.705 141.149 297.56 140.965C297.415 140.782 297.366 140.55 297.414 140.272C297.451 140.044 297.547 139.846 297.702 139.677C297.859 139.507 298.057 139.375 298.297 139.28C298.536 139.184 298.801 139.136 299.091 139.136C299.515 139.136 299.833 139.227 300.045 139.409C300.258 139.59 300.379 139.832 300.409 140.135ZM300.829 143.073L301.477 139.187H302.203L302.097 139.819H302.145C302.263 139.605 302.423 139.438 302.625 139.318C302.83 139.197 303.061 139.136 303.319 139.136C303.575 139.136 303.782 139.197 303.939 139.318C304.097 139.44 304.201 139.607 304.25 139.819H304.29C304.415 139.61 304.59 139.444 304.814 139.321C305.039 139.198 305.291 139.136 305.571 139.136C305.92 139.136 306.188 139.247 306.375 139.47C306.564 139.691 306.622 140.023 306.548 140.467L306.112 143.073H305.353L305.778 140.538C305.82 140.273 305.78 140.082 305.657 139.966C305.534 139.848 305.373 139.789 305.174 139.789C304.927 139.789 304.723 139.865 304.561 140.017C304.399 140.167 304.3 140.36 304.263 140.596L303.845 143.073H303.094L303.526 140.49C303.56 140.277 303.521 140.108 303.41 139.981C303.3 139.853 303.14 139.789 302.929 139.789C302.786 139.789 302.647 139.827 302.512 139.903C302.378 139.979 302.264 140.083 302.17 140.216C302.076 140.35 302.014 140.503 301.985 140.677L301.585 143.073H300.829ZM308.789 143.152C308.408 143.152 308.092 143.07 307.842 142.906C307.594 142.741 307.421 142.509 307.321 142.21C307.222 141.91 307.206 141.558 307.273 141.155C307.339 140.757 307.471 140.406 307.67 140.103C307.869 139.799 308.117 139.562 308.414 139.392C308.713 139.221 309.043 139.136 309.404 139.136C309.623 139.136 309.83 139.172 310.024 139.245C310.219 139.317 310.385 139.431 310.522 139.586C310.659 139.742 310.753 139.943 310.806 140.191C310.86 140.437 310.858 140.737 310.8 141.089L310.757 141.358H307.665L307.754 140.791H310.102C310.138 140.592 310.128 140.416 310.074 140.262C310.02 140.107 309.927 139.984 309.796 139.895C309.666 139.806 309.502 139.761 309.305 139.761C309.103 139.761 308.914 139.814 308.738 139.92C308.563 140.027 308.416 140.162 308.298 140.328C308.182 140.491 308.108 140.66 308.078 140.834L307.989 141.353C307.945 141.636 307.953 141.864 308.012 142.036C308.073 142.208 308.179 142.333 308.331 142.41C308.483 142.488 308.672 142.527 308.9 142.527C309.047 142.527 309.183 142.506 309.308 142.466C309.434 142.424 309.546 142.362 309.644 142.281C309.742 142.199 309.824 142.096 309.89 141.973L310.583 142.102C310.49 142.312 310.357 142.497 310.183 142.656C310.009 142.813 309.804 142.935 309.568 143.023C309.334 143.109 309.074 143.152 308.789 143.152ZM312.458 140.766L312.079 143.073H311.322L311.97 139.187H312.696L312.59 139.819H312.638C312.761 139.612 312.929 139.446 313.142 139.323C313.356 139.198 313.609 139.136 313.901 139.136C314.164 139.136 314.385 139.192 314.564 139.303C314.744 139.413 314.872 139.576 314.946 139.794C315.022 140.011 315.034 140.281 314.981 140.601L314.566 143.073H313.81L314.207 140.692C314.253 140.41 314.215 140.19 314.096 140.032C313.978 139.871 313.789 139.791 313.531 139.791C313.356 139.791 313.193 139.829 313.043 139.905C312.895 139.981 312.769 140.092 312.666 140.239C312.565 140.384 312.496 140.56 312.458 140.766Z" fill="#E1E2E1"/>
<g opacity="0.3">
<path d="M327.653 45.7027C327.555 46.7228 326.854 47.6774 325.699 48.3629C324.63 49.0613 323.41 49.6535 322.08 50.1205C319.395 51.0461 316.553 51.7596 313.612 52.2463C307.735 53.2144 301.704 53.7246 295.645 53.7664C289.557 53.8194 283.483 53.3928 277.55 52.4957C274.559 52.045 271.661 51.3592 268.919 50.4531C267.521 49.9699 266.236 49.3581 265.101 48.6361C263.845 47.8744 263.086 46.8232 262.984 45.7027C263.07 44.5801 263.809 43.5219 265.047 42.7456C266.165 42.0029 267.445 41.3744 268.847 40.8811C271.577 39.9303 274.476 39.2044 277.478 38.7197C280.456 38.2389 283.478 37.8819 286.525 37.6509C292.59 37.2112 298.715 37.2551 304.764 37.7815C307.781 38.0457 310.767 38.4425 313.703 38.9691C316.617 39.5033 319.429 40.2564 322.08 41.2136C323.412 41.6985 324.631 42.3064 325.699 43.0188C326.855 43.7139 327.555 44.6759 327.653 45.7027ZM327.472 45.7027C327.365 44.7267 326.676 43.8178 325.554 43.1732C324.482 42.4934 323.262 41.9211 321.936 41.4749C319.241 40.6241 316.397 39.9939 313.467 39.5985C307.608 38.8264 301.638 38.472 295.663 38.5416C289.702 38.5502 283.761 38.9923 277.948 39.8598C275.059 40.2878 272.259 40.9417 269.607 41.8074C268.337 42.2433 267.167 42.7951 266.133 43.4463C265.146 44.0287 264.531 44.835 264.414 45.7027C264.492 46.5834 265.089 47.4097 266.078 48.0066C267.118 48.6826 268.308 49.2512 269.607 49.693C272.232 50.5957 275.015 51.2857 277.894 51.7475C283.715 52.6858 289.687 53.1642 295.681 53.1727C301.69 53.241 307.691 52.8423 313.558 51.9851C316.513 51.5478 319.375 50.8737 322.08 49.978C323.414 49.5241 324.634 48.9394 325.699 48.2442C326.775 47.5802 327.423 46.6706 327.509 45.7027H327.472Z" fill="#5A8CC4"/>
</g>
<g opacity="0.3">
<path d="M258.777 61.5927C261.319 59.8113 263.884 58.0299 266.449 56.3316C267.732 55.4647 268.979 54.5384 270.333 53.7902C271.688 53.0158 273.101 52.3487 274.56 51.795L274.632 51.8901C273.482 52.9495 272.256 53.922 270.962 54.7996C269.691 55.6785 268.302 56.3791 266.96 57.1748C264.264 58.7187 261.568 60.2388 258.849 61.7233L258.777 61.5927Z" fill="#5A8CC4"/>
</g>
<g opacity="0.3">
<path d="M330.828 58.9206C328.108 57.4242 325.401 55.916 322.717 54.3721C321.363 53.612 319.985 52.9114 318.715 51.9969C317.414 51.1331 316.187 50.164 315.045 49.0992L315.104 48.9923C316.562 49.5486 317.976 50.2156 319.332 50.9875C320.686 51.7356 321.933 52.6738 323.216 53.5408C325.797 55.2588 328.354 57.0085 330.887 58.7899L330.828 58.9206Z" fill="#5A8CC4"/>
</g>
<g opacity="0.3">
<path d="M301.185 71.4496C300.393 68.4569 299.602 65.4641 298.81 62.4714C298.418 60.9632 297.955 59.4906 297.705 57.9586C297.422 56.4222 297.263 54.8653 297.23 53.3032H297.349C297.963 54.7355 298.467 56.2124 298.857 57.7211C299.227 59.2254 299.52 60.7475 299.736 62.2814C300.29 65.3295 300.821 68.3856 301.328 71.4496H301.185Z" fill="#5A8CC4"/>
</g>
<path d="M273.456 63.4691H245.523V70.464H273.456V63.4691Z" fill="#E1E2E1"/>
<path d="M302.067 100.455H281.113V105.311H302.067V100.455Z" fill="#E1E2E1"/>
<path d="M308.365 106.886H281.113V111.743H308.365V106.886Z" fill="#E1E2E1"/>
<path d="M299.519 113.318H281.113V118.174H299.519V113.318Z" fill="#E1E2E1"/>
<path d="M259.861 100.434H241.463V105.29H259.861V100.434Z" fill="#E1E2E1"/>
<path d="M265.391 106.865H241.463V111.722H265.391V106.865Z" fill="#E1E2E1"/>
<path d="M257.623 113.297H241.463V118.154H257.623V113.297Z" fill="#E1E2E1"/>
<path d="M350.067 100.455H322.512V105.311H350.067V100.455Z" fill="#E1E2E1"/>
<path d="M339.803 106.886H322.512V111.743H339.803V106.886Z" fill="#E1E2E1"/>
<path d="M345.638 113.318H322.512V118.174H334.075H345.638V113.318Z" fill="#E1E2E1"/>
<path d="M320.462 73.8486H288.207V80.8435H320.462V73.8486Z" fill="#E1E2E1"/>
<path d="M350.067 61.6401H317.812V68.635H350.067V61.6401Z" fill="#E1E2E1"/>
<path opacity="0.3" d="M251.924 147.021H244.086V179.074H251.924V147.021Z" stroke="#5A8CC4" stroke-width="0.593795" stroke-miterlimit="10"/>
<path opacity="0.3" d="M277.791 147.021H251.926V179.074H277.791V147.021Z" stroke="#5A8CC4" stroke-width="0.593795" stroke-miterlimit="10"/>
<path opacity="0.3" d="M350.055 147.021H330.959V179.074H350.055V147.021Z" stroke="#5A8CC4" stroke-width="0.593795" stroke-miterlimit="10"/>
<path opacity="0.3" d="M330.851 147.021H277.789V179.074H330.851V147.021Z" stroke="#5A8CC4" stroke-width="0.593795" stroke-miterlimit="10"/>
<path opacity="0.3" d="M244.086 152.531H350.066" stroke="#5A8CC4" stroke-width="0.593795" stroke-miterlimit="10"/>
</svg>
