<svg width="40" height="40" viewBox="0 0 40 40" fill="none" xmlns="http://www.w3.org/2000/svg">
<path d="M35.0001 10.3575C33.8976 10.8458 32.7117 11.1717 31.4609 11.3258C32.7326 10.5708 33.7109 9.36667 34.1701 7.94417C32.9801 8.64167 31.6617 9.15417 30.2592 9.42417C29.1392 8.23667 27.5417 7.5 25.7717 7.5C22.3717 7.5 19.6159 10.2317 19.6159 13.6C19.6159 14.0767 19.6717 14.5408 19.7767 14.9917C14.6617 14.735 10.1251 12.3033 7.09006 8.61333C6.55673 9.515 6.25672 10.5708 6.25672 11.685C6.25672 13.8025 7.34089 15.6667 8.99423 16.765C7.98506 16.7342 7.03506 16.4533 6.20339 16.0033C6.20339 16.0217 6.20339 16.0492 6.20339 16.075C6.20339 19.0342 8.32589 21.4983 11.1392 22.0592C10.6251 22.2 10.0817 22.2783 9.52172 22.2783C9.12422 22.2783 8.73673 22.2333 8.36173 22.1658C9.14506 24.5842 11.4176 26.3517 14.1101 26.4042C12.0034 28.0375 9.35006 29.0158 6.46506 29.0158C5.96672 29.0158 5.47923 28.9875 4.99756 28.9292C7.72339 30.655 10.9601 31.6667 14.4342 31.6667C25.7551 31.6667 31.9484 22.37 31.9484 14.305C31.9484 14.0408 31.9401 13.7775 31.9276 13.5175C33.1359 12.6642 34.1776 11.5875 35.0001 10.3575Z" fill="#03A9F4"/>
</svg>
