<svg width="32" height="32" viewBox="0 0 32 32" fill="none" xmlns="http://www.w3.org/2000/svg">
<path d="M26.7062 9.02188C26.8937 9.20938 27 9.4625 27 9.72812V29C27 29.5531 26.5531 30 26 30H6C5.44687 30 5 29.5531 5 29V3C5 2.44687 5.44687 2 6 2H19.2719C19.5375 2 19.7938 2.10625 19.9813 2.29375L26.7062 9.02188V9.02188ZM24.6938 10.1875L18.8125 4.30625V10.1875H24.6938ZM17.9794 14.9325L16.0662 18.1294L14.1344 14.9312C14.101 14.876 14.0539 14.8303 13.9977 14.7986C13.9414 14.767 13.878 14.7503 13.8134 14.7503H12.6122C12.5414 14.7503 12.4721 14.7704 12.4122 14.8081C12.3705 14.8344 12.3344 14.8686 12.3059 14.9088C12.2775 14.9491 12.2572 14.9945 12.2463 15.0426C12.2355 15.0906 12.2342 15.1404 12.2425 15.1889C12.2509 15.2375 12.2687 15.284 12.295 15.3256L14.8681 19.4013L12.2603 23.5506C12.2227 23.6104 12.2028 23.6797 12.2028 23.7503C12.2028 23.8498 12.2423 23.9452 12.3126 24.0155C12.383 24.0858 12.4784 24.1253 12.5778 24.1253H13.6547C13.7186 24.1253 13.7815 24.1089 13.8374 24.0777C13.8932 24.0466 13.9402 24.0016 13.9738 23.9472L15.9331 20.7763L17.88 23.9466C17.9136 24.0012 17.9606 24.0463 18.0165 24.0776C18.0725 24.1089 18.1356 24.1253 18.1997 24.1253H19.3709C19.4427 24.1253 19.513 24.1047 19.5734 24.0659C19.6149 24.0393 19.6507 24.0048 19.6788 23.9644C19.7069 23.924 19.7268 23.8784 19.7373 23.8303C19.7478 23.7822 19.7487 23.7325 19.74 23.684C19.7313 23.6355 19.7132 23.5893 19.6866 23.5478L17.0669 19.4681L19.7325 15.3284C19.7714 15.2678 19.792 15.1973 19.7919 15.1253C19.7919 15.0259 19.7524 14.9305 19.682 14.8601C19.6117 14.7898 19.5163 14.7503 19.4169 14.7503H18.3013C18.2365 14.7504 18.1728 14.7672 18.1164 14.7992C18.0601 14.8312 18.013 14.8772 17.9797 14.9328L17.9794 14.9325Z" fill="#107C41"/>
</svg>
